<svg width="57" height="56" viewBox="0 0 57 56" fill="none" xmlns="http://www.w3.org/2000/svg">
<path d="M55.8463 17.8375L40.406 2.39707C38.9249 0.915992 36.8787 0 34.6187 0C32.7638 0 31.053 0.617125 29.6804 1.65724C28.7113 2.39159 27.3838 2.39378 26.4118 1.65724C25.0392 0.617125 23.3285 0 21.4735 0C19.2135 0 17.1674 0.916102 15.6863 2.39718L0.246053 17.8375C-0.11537 18.1989 -0.0729718 18.7967 0.335998 19.1035L10.6331 26.8264C15.6564 30.5939 21.7663 32.6305 28.0455 32.6305L28.0467 32.6202V32.6305C34.3259 32.6305 40.4358 30.5939 45.4591 26.8264L55.7562 19.1035C56.1653 18.7967 56.2077 18.1989 55.8463 17.8375Z" fill="#EE6161"/>
<path d="M28.0471 21.9905C30.8572 21.9905 39.9931 24.7705 42.0693 23.753C42.2035 23.6873 42.3364 23.6179 42.4676 23.545L52.231 18.1209L45.7696 16.1328H10.3246L3.86328 18.1209L13.6266 23.545C13.7579 23.618 13.8907 23.6873 14.025 23.753C16.1009 24.7705 25.237 21.9905 28.0471 21.9905Z" fill="#D83131"/>
<path d="M41.8107 21.4497L40.5802 20.15C40.1658 19.7123 39.4733 19.6985 39.0419 20.1194L37.3966 21.7243V21.7244V20.4659C37.3966 20.3004 37.2624 20.1662 37.097 20.1662H32.7227V23.3898C35.3086 23.8948 35.5996 24.3993 37.3967 24.5895C38.9891 24.7579 40.6125 24.4669 42.0708 23.7521V22.1022C42.0707 21.8596 41.9777 21.626 41.8107 21.4497Z" fill="#FDF6EC"/>
<path d="M18.9971 20.1662C18.8316 20.1662 18.6975 20.3004 18.6975 20.4659V21.7243L17.0522 20.1194C16.6208 19.6985 15.9283 19.7123 15.5139 20.15L14.2834 21.4497C14.1165 21.626 14.0234 21.8596 14.0234 22.1024V23.7523C16.0916 24.7658 18.503 24.9314 20.69 24.1252C22.5055 23.4559 25.0369 22.9569 28.0456 22.9569V20.1663L18.9971 20.1662Z" fill="#FDF6EC"/>
<path d="M34.2784 25.62H26.4883V20.6635C26.4883 18.6683 28.1058 17.0508 30.101 17.0508H30.6658C32.6611 17.0508 34.2784 18.6683 34.2784 20.6635V25.62Z" fill="#FFEEE6"/>
<path d="M30.6658 17.0508H30.101C29.903 17.0508 29.7089 17.0668 29.5196 17.0973C29.6773 17.5031 29.764 17.9445 29.764 18.4062V23.3627H26.4883V25.6199H34.2784V20.6634C34.2784 18.6683 32.6611 17.0508 30.6658 17.0508Z" fill="#FFDFCF"/>
<path d="M30.385 21.7266C28.2338 21.7266 26.4899 23.4705 26.4899 25.6216V33.6668C26.4899 35.8974 25.2295 37.9366 23.2343 38.9341L20.2578 40.4222L28.0474 43.5389L34.2801 40.4223V25.6216C34.2801 23.4705 32.5362 21.7266 30.385 21.7266Z" fill="#FED2A4"/>
<path d="M35.4349 12.9525C32.7012 12.1114 30.214 10.6141 28.1909 8.59107C28.1511 8.55119 28.0989 8.53125 28.0468 8.53125C27.9946 8.53125 27.9424 8.55119 27.9026 8.59107C25.8803 10.6133 23.3933 12.1112 20.6587 12.9525C19.6662 13.2578 11.5286 15.7617 10.3242 16.1323L12.8202 17.9905C13.1414 18.2295 13.5724 18.2594 13.9235 18.0669L15.7773 17.0506H40.3162L42.17 18.0669C42.521 18.2594 42.9521 18.2295 43.2733 17.9905L45.7693 16.1323C44.7427 15.8164 36.4578 13.2672 35.4349 12.9525Z" fill="#FDF6EC"/>
<path d="M30.3849 21.7266C30.0558 21.7266 29.7362 21.7674 29.431 21.8443C29.646 22.3355 29.7656 22.8766 29.7656 23.4414V35.0106C29.7656 36.7525 28.3534 38.1646 26.6116 38.1646H24.4025C24.0497 38.4628 23.6586 38.7221 23.2343 38.9342L20.2578 40.4223L28.0473 43.5388L34.28 40.4222V25.6216C34.2799 23.4705 32.5361 21.7266 30.3849 21.7266Z" fill="#FFBD86"/>
<path d="M36.592 48.2126C37.8955 48.2126 38.9519 49.27 38.9519 50.5736V53.6422C38.9519 54.9457 37.8956 56.0033 36.592 56.0033H19.4768C18.4013 56.0033 17.4273 55.5677 16.7231 54.8623C16.0177 54.1569 15.582 53.1829 15.582 52.1074C15.582 51.0386 16.0131 50.0691 16.7107 49.366C17.0581 49.0323 17.2208 48.6409 17.2208 48.2126C17.2208 47.7624 17.0241 47.3427 16.7231 47.0716C15.9947 46.3432 15.582 45.3611 15.582 44.3178C15.582 42.1667 17.3257 40.4219 19.4768 40.4219H36.5919C37.8954 40.4219 38.9518 41.4793 38.9518 42.7829V45.8515C38.9518 47.1551 37.8955 48.2126 36.592 48.2126Z" fill="#FED2A4"/>
<path d="M38.9509 45.8515V42.7829C38.9509 41.4794 37.8945 40.4219 36.5909 40.4219H34.4342C34.4358 40.4563 34.4365 40.4909 34.4365 40.5257V49.1999C34.4365 51.7107 32.4011 53.746 29.8904 53.746H15.9414C16.1351 54.1633 16.4006 54.5407 16.7221 54.8621C17.4263 55.5675 18.4003 56.0032 19.4759 56.0032H36.5909C37.8944 56.0032 38.9509 54.9456 38.9509 53.6421V50.5735C38.9509 49.27 37.8945 48.2125 36.5909 48.2125C37.8945 48.2125 38.9509 47.155 38.9509 45.8515Z" fill="#FFBD86"/>
<path d="M22.0535 12.4609C21.5971 12.6447 21.1322 12.8095 20.6601 12.9549C20.601 12.9731 20.5168 12.999 20.4102 13.0318V17.0529H22.0535V12.4609Z" fill="#FEF1DA"/>
<path d="M41.1394 17.5025V14.7087C40.5914 14.5401 40.0357 14.3691 39.4961 14.2031V17.052H40.3178L41.1394 17.5025Z" fill="#FEF1DA"/>
<path d="M14.957 17.5025L15.7787 17.052H16.6004V14.2031C16.0611 14.3691 15.5054 14.54 14.957 14.7087V17.5025Z" fill="#FEF1DA"/>
<path d="M35.6863 13.0317C35.5802 12.9991 35.4959 12.9731 35.4363 12.9548C34.9641 12.8095 34.4993 12.6447 34.043 12.4609V17.0528H35.6863V13.0317Z" fill="#FEF1DA"/>
<path d="M28.8699 9.23339C28.6387 9.02567 28.4128 8.81149 28.1924 8.59107C28.1525 8.55119 28.1004 8.53125 28.0482 8.53125C27.9961 8.53125 27.9438 8.55119 27.9041 8.59107C27.6836 8.81149 27.4577 9.02556 27.2266 9.23339V17.0505H28.8699V9.23339Z" fill="#FEF1DA"/>
<path d="M31.1609 33.4558H29.6029C29.149 33.4558 28.7812 33.0879 28.7812 32.6342C28.7812 32.1804 29.149 31.8125 29.6029 31.8125H31.1609C31.6148 31.8125 31.9826 32.1804 31.9826 32.6342C31.9826 33.0879 31.6148 33.4558 31.1609 33.4558Z" fill="#FFBD86"/>
<path d="M29.7656 33.4558H31.1633C31.6172 33.4558 31.985 33.0879 31.985 32.6342C31.985 32.1804 31.6172 31.8125 31.1633 31.8125H29.7656V33.4558Z" fill="#F6A96C"/>
<path d="M29.2318 46.5664C28.7779 46.5664 28.4102 46.9343 28.4102 47.3881C28.4102 47.8418 28.7779 48.2097 29.2318 48.2097H36.5957C37.649 48.2097 38.5408 47.5192 38.8445 46.5664H29.2318Z" fill="#FFBD86"/>
<path d="M34.4414 46.5664V48.2097H36.5959C37.6493 48.2097 38.5412 47.5192 38.8448 46.5664H34.4414Z" fill="#F6A96C"/>
<path d="M17.875 24.6335C18.4247 24.6294 18.9752 24.5718 19.5183 24.4586V20.1641H18.9964C18.8309 20.1641 18.6968 20.2983 18.6968 20.4638V21.7222L17.8751 20.9207V24.6335H17.875Z" fill="#FEF1DA"/>
<path d="M22.5508 23.5662C23.0654 23.4429 23.6141 23.3342 24.1941 23.2437V20.1641H22.5508V23.5662Z" fill="#FEF1DA"/>
<path d="M38.2135 20.9207L37.3919 21.7222V21.7223V20.4638C37.3919 20.2983 37.2577 20.1641 37.0922 20.1641H36.5703V24.4612C36.8119 24.5117 37.0791 24.5543 37.392 24.5874C37.6653 24.6163 37.9395 24.6316 38.2136 24.6337V20.9207H38.2135Z" fill="#FEF1DA"/>
</svg>
