<svg width="57" height="57" viewBox="0 0 57 57" fill="none" xmlns="http://www.w3.org/2000/svg">
<g clip-path="url(#clip0_2576_1412)">
<path d="M17.5292 21.0352V27.1001V27.1703H15.7763C14.8122 27.1703 14.0234 26.3815 14.0234 25.4174V22.6128C14.0234 21.7451 14.7334 21.0352 15.601 21.0352H15.7763H17.5292Z" fill="#F4CCCF"/>
<path d="M42.0683 22.6128V25.4174C42.0683 26.3815 41.2795 27.1703 40.3154 27.1703H38.5625C38.5625 27.144 38.5625 27.1264 38.5625 27.1001V21.0352H40.4907C41.1305 21.0352 41.6914 21.4296 41.9368 21.9817C42.0244 22.1745 42.0683 22.3849 42.0683 22.6128Z" fill="#F4CCCF"/>
<path d="M47.3272 52.149V55.2165H28.0455H12.2695V49.5197L23.6633 44.6992C23.6633 44.6992 24.5397 47.3285 28.0455 47.3285C31.5513 47.3285 32.4277 44.6992 32.4277 44.6992L46.0652 50.4662C46.8189 50.6853 47.3272 51.3689 47.3272 52.149Z" fill="#3890BD"/>
<path d="M47.3276 52.149V55.2165H43.8218V53.9019C43.8218 53.1218 43.3135 52.4382 42.5597 52.2191L30.1055 46.9517C31.9197 46.233 32.428 44.6992 32.428 44.6992L46.0655 50.4662C46.8192 50.6853 47.3276 51.3689 47.3276 52.149Z" fill="#136694"/>
<path d="M32.4285 39.6328V44.6987C32.4285 44.6987 31.552 47.328 28.0463 47.328C24.5405 47.328 23.6641 44.6987 23.6641 44.6987V39.6328C24.5317 40.071 25.5046 40.3164 26.5125 40.3164H29.5801C30.588 40.3164 31.5608 40.071 32.4285 39.6328Z" fill="#FDEBEC"/>
<path d="M29.5801 40.3164H26.5125C25.5046 40.3164 24.5317 40.071 23.6641 39.6328V41.7398C27.8578 41.1806 30.1541 42.9125 31.0691 46.4226C32.1025 45.6619 32.4285 44.6987 32.4285 44.6987V39.6328C31.5608 40.071 30.588 40.3164 29.5801 40.3164Z" fill="#F4CCCF"/>
<path d="M38.562 21.0364V27.1014V27.1715C38.5532 29.4941 37.966 31.7728 36.8529 33.815L35.0913 37.049C34.469 38.1796 33.5312 39.0736 32.4269 39.6345C31.5592 40.0728 30.5863 40.3182 29.5784 40.3182H26.5109C25.503 40.3182 24.5301 40.0728 23.6624 39.6345C22.5581 39.0736 21.6203 38.1796 20.9981 37.049L19.438 34.1831H21.0331C21.8745 34.6038 22.786 34.8141 23.715 34.8141H23.7238C23.9604 35.9535 24.9771 36.8124 26.1866 36.8124H29.9027C31.2963 36.8124 32.4269 35.6818 32.4269 34.2882V32.4302V29.8008C32.4269 29.3188 32.0325 28.9244 31.5504 28.9244H24.5389C24.0568 28.9244 23.6624 29.3188 23.6624 29.8008V30.9227C22.7509 30.9315 21.857 31.1418 21.0331 31.5537H18.2548C17.7815 30.1514 17.5361 28.6702 17.5273 27.1715C17.5273 27.1452 17.5273 27.1277 17.5273 27.1014V21.0364V17.5307L21.9096 14.9013L24.5389 17.5307C24.5389 17.5307 28.9211 15.7778 29.7975 14.0249L32.4269 16.6542L34.1798 13.1484L36.8091 18.4071L38.562 17.5307V21.0364Z" fill="#FDEBEC"/>
<path d="M38.562 17.5307V21.9129L36.8091 22.7893L34.1798 18.4071L32.4269 21.0364L29.7975 17.5307C28.9211 19.2835 23.6624 20.16 23.6624 20.16L21.0331 18.4071L17.5273 21.9129V17.5307L21.9096 14.9013L24.5389 17.5307C24.5389 17.5307 28.9211 15.7778 29.7975 14.0249L32.4269 16.6542L34.1798 13.1484L36.8091 18.4071L38.562 17.5307Z" fill="#F4CCCF"/>
<path d="M14.0236 34.1797L12.2707 38.5619V49.5174V55.2143H6.1356V38.5619L5.39062 35.582C5.67109 35.7135 5.97784 35.7748 6.31089 35.7398L11.5695 35.2139C12.2093 35.1525 12.744 34.7406 12.9894 34.1797H14.0236Z" fill="#FDEBEC"/>
<path d="M12.9894 34.1797C12.744 34.7406 12.2093 35.1525 11.5695 35.2139L6.31089 35.7398C5.97784 35.7748 5.67109 35.7135 5.39062 35.582L5.87968 37.5382C8.22416 37.3796 10.4924 37.2455 12.5257 37.923L14.0236 34.1797H12.9894Z" fill="#F4CCCF"/>
<path d="M15.7775 31.551H13.1481V29.8857C13.1481 29.7368 13.1131 29.5965 13.043 29.4738L14.1122 29.2547C14.9711 29.0794 15.7775 29.7455 15.7775 30.622V31.551Z" fill="#F4CCCF"/>
<path d="M13.1472 31.5526V33.4721C13.1472 33.7262 13.0947 33.9629 12.9895 34.182C12.7441 34.7429 12.2094 35.1548 11.5696 35.2162L6.31099 35.742C5.97794 35.7771 5.67118 35.7157 5.39072 35.5843C4.84733 35.3301 4.45293 34.8042 4.39158 34.182C4.38281 34.1206 4.38281 34.0593 4.38281 33.9979V31.5526V30.5886C4.38281 30.1416 4.72463 29.7647 5.17161 29.7209L12.1832 29.0197C12.5513 28.9847 12.8843 29.1775 13.0421 29.4755C13.1122 29.5982 13.1472 29.7384 13.1472 29.8874V31.5526Z" fill="#FDEBEC"/>
<path d="M26.7503 34.4017C27.4953 34.2702 28.0474 33.6304 28.0474 32.8679C28.0474 32.7189 28.0211 32.5699 27.9773 32.4297H32.4296V34.2877C32.4296 35.6813 31.299 36.8119 29.9055 36.8119H26.1894C24.9799 36.8119 23.9632 35.953 23.7266 34.8136C24.0596 34.8136 24.3927 34.7873 24.7257 34.7347L26.7503 34.4017Z" fill="#E45081"/>
<path d="M24.5405 28.9219H31.552C32.0341 28.9219 32.4285 29.3163 32.4285 29.7983V32.4276H27.9762C27.8184 31.8667 27.3451 31.4373 26.7491 31.3321L24.7246 30.999C24.374 30.9377 24.0146 30.9114 23.6641 30.9202V29.7983C23.6641 29.3163 24.0585 28.9219 24.5405 28.9219Z" fill="#F2F2F2"/>
<path d="M4.38077 33.9961C4.38077 34.0574 4.38077 34.1188 4.38954 34.1801H2.18966C1.46222 34.1801 0.875 33.5929 0.875 32.8654C0.875 32.138 1.46222 31.5508 2.18966 31.5508H4.38077V33.9961Z" fill="#3890BD"/>
<path d="M27.9755 32.4271C28.0193 32.5673 28.0456 32.7163 28.0456 32.8653C28.0456 33.6278 27.4934 34.2676 26.7484 34.3991L24.7238 34.7321C24.3908 34.7847 24.0578 34.811 23.7247 34.811H23.7159C22.7869 34.811 21.8754 34.6007 21.034 34.18H19.4389H14.0225H12.9883C13.0935 33.9609 13.146 33.7242 13.146 33.4701V31.5507H15.7754H18.2557H21.034C21.8579 31.1387 22.7519 30.9284 23.6634 30.9196C24.0139 30.9108 24.3733 30.9371 24.7238 30.9985L26.7484 31.3315C27.3444 31.4367 27.8177 31.8662 27.9755 32.4271Z" fill="#3890BD"/>
<path d="M33.3046 0.875C33.3046 0.875 49.957 6.13366 42.069 21.9096L41.9375 21.9797C41.6921 21.4276 41.1312 21.0332 40.4914 21.0332H38.5632V17.5274L36.8104 18.4039L34.181 13.1452L32.4281 16.651L29.7988 14.0216C28.9224 15.7745 24.5402 17.5274 24.5402 17.5274L21.9108 14.8981L17.5286 17.5274V21.0332H15.7757L12.27 13.1452C12.27 13.1452 9.64062 7.88654 9.64062 0.875L19.2815 3.50433V0.875C19.2815 0.875 28.9224 0.875 31.5517 3.50433L33.3046 0.875Z" fill="#4B5469"/>
<path d="M43.9183 16.6773C42.2443 8.9558 33.3046 6.13366 33.3046 6.13366L31.5517 8.76298C28.9224 6.13366 19.2815 6.13366 19.2815 6.13366V8.76298L10.1402 6.27389C9.84221 4.66123 9.64062 2.83823 9.64062 0.875L19.2815 3.50433V0.875C19.2815 0.875 28.9224 0.875 31.5517 3.50433L33.3046 0.875C33.3046 0.875 46.2058 4.95046 43.9183 16.6773Z" fill="#383F4F"/>
<path d="M14.5524 10.5179L16.4166 13.6249C16.556 13.8581 16.8391 13.9624 17.0968 13.8765L18.5227 13.4014C18.8978 13.2761 19.0398 12.8204 18.8032 12.5048L16.8294 9.87376C16.719 9.72652 16.5481 9.64062 16.3658 9.64062H15.0494C14.5989 9.64062 14.3202 10.1314 14.5524 10.5179Z" fill="#B7BBC3"/>
<path d="M28.9223 25.4174H28.0459V21.9116C28.0459 21.4278 27.6532 21.0352 27.1694 21.0352C26.6856 21.0352 26.293 21.4278 26.293 21.9116V26.2938C26.293 26.7776 26.6856 27.1703 27.1694 27.1703H28.9223C29.4061 27.1703 29.7987 26.7776 29.7987 26.2938C29.7987 25.81 29.4061 25.4174 28.9223 25.4174Z" fill="#31293A"/>
<path d="M23.2726 6.92108C23.3979 6.98331 23.532 7.01311 23.6635 7.01311C23.9851 7.01311 24.2945 6.83607 24.4488 6.52843C24.6652 6.09547 24.49 5.56873 24.057 5.35225L22.3041 4.47581C21.8694 4.25845 21.3444 4.43549 21.1279 4.86758C20.9114 5.30054 21.0867 5.82728 21.5197 6.04376L23.2726 6.92108Z" fill="#31293A"/>
<path d="M23.6659 21.0352H21.0366C20.5528 21.0352 20.1602 21.4278 20.1602 21.9116C20.1602 22.3954 20.5528 22.788 21.0366 22.788H23.6659C24.1497 22.788 24.5424 22.3954 24.5424 21.9116C24.5424 21.4278 24.1497 21.0352 23.6659 21.0352Z" fill="#31293A"/>
<path d="M35.0566 21.0352H32.4272C31.9434 21.0352 31.5508 21.4278 31.5508 21.9116C31.5508 22.3954 31.9434 22.788 32.4272 22.788H35.0566C35.5403 22.788 35.933 22.3954 35.933 21.9116C35.933 21.4278 35.5403 21.0352 35.0566 21.0352Z" fill="#31293A"/>
<path d="M3.73014 35.0582C3.87738 35.393 4.09386 35.6971 4.37082 35.9469C4.4497 36.0188 4.53822 36.0766 4.62499 36.1371L5.25866 38.6718V55.2164C5.25866 55.7002 5.6513 56.0928 6.1351 56.0928H47.3279C47.8117 56.0928 48.2044 55.7002 48.2044 55.2164V52.1488C48.2044 50.9875 47.4673 49.9866 46.3647 49.6413L33.3048 44.118V40.1407C34.3566 39.4983 35.2479 38.5885 35.8623 37.4675L37.6231 34.2335C38.6608 32.3298 39.2699 30.2088 39.4084 28.0467H40.3164C41.766 28.0467 42.9457 26.867 42.9457 25.4173V22.6162C42.9457 22.4716 42.9273 22.3314 42.9027 22.1938C45.3138 17.3181 45.7144 12.893 44.0833 9.04275C41.3374 2.55883 33.885 0.140721 33.5686 0.0408068C33.1961 -0.0766366 32.7921 0.0653472 32.5756 0.390507L31.3442 2.23717C27.9059 0.0679766 20.2195 0.000490411 19.2817 0.000490411C18.7979 0.000490411 18.4053 0.393137 18.4053 0.876933V2.359L9.87137 0.0311659C9.60844 -0.039826 9.32623 0.0145135 9.10887 0.180161C8.89239 0.346685 8.76443 0.603483 8.76443 0.876933C8.76443 8.01381 11.3754 13.3163 11.4691 13.503L14.5393 20.4111C13.719 20.8099 13.1466 21.6442 13.1466 22.6162V25.4173C13.1466 26.867 14.3263 28.0467 15.776 28.0467H16.6901C16.7462 28.9362 16.8742 29.8162 17.0871 30.676H16.6524V30.6234C16.6524 29.9389 16.3474 29.2973 15.8163 28.8635C15.2869 28.4305 14.6015 28.2605 13.9354 28.3972L13.3456 28.5182C12.9915 28.2421 12.5454 28.1071 12.0958 28.1466L5.08512 28.8477C4.18414 28.938 3.50577 29.6882 3.50577 30.5927V30.676H2.19111C0.983369 30.676 0 31.6594 0 32.8671C0 34.0748 0.983369 35.0582 2.19111 35.0582H3.73014ZM37.687 27.1001C37.687 29.2938 37.1331 31.47 36.084 33.3947L34.3241 36.627C33.3732 38.3624 31.5554 39.4404 29.5799 39.4404H26.5124C24.5369 39.4404 22.7191 38.3624 21.7691 36.6288L20.9365 35.0985C21.6253 35.4044 22.3502 35.592 23.0899 35.6603C23.6236 36.8645 24.8287 37.6875 26.1881 37.6875H29.9042C31.7789 37.6875 33.3048 36.1616 33.3048 34.2869V29.7995C33.3048 28.8328 32.5187 28.0467 31.5519 28.0467H24.5404C23.5737 28.0467 22.7875 28.8328 22.7875 29.7995V30.1037C22.1162 30.1957 21.4597 30.3868 20.8348 30.676H18.9119C18.5823 29.5173 18.4053 28.3192 18.4053 27.1001V18.0254L21.7752 16.0035L23.9208 18.149C24.1688 18.3979 24.5404 18.4733 24.8664 18.3436C25.2696 18.1823 28.3258 16.9272 29.8841 15.3488L31.8087 17.2734C32.0077 17.4724 32.289 17.56 32.5686 17.5188C32.8464 17.4733 33.0857 17.298 33.2119 17.0455L34.1813 15.1069L36.0262 18.7976C36.2435 19.2305 36.7685 19.4076 37.2024 19.1893L37.687 18.9474V27.1001ZM31.5519 40.912V44.529C31.3618 44.9462 30.5072 46.452 28.0462 46.452C25.5956 46.452 24.7332 44.9489 24.5404 44.5282V40.912C25.1732 41.0934 25.8349 41.1933 26.5124 41.1933H29.5799C30.2574 41.1933 30.9191 41.0934 31.5519 40.912ZM28.8823 33.3053H31.5519V34.2869C31.5519 35.1958 30.8131 35.9346 29.9042 35.9346H26.1881C25.7946 35.9346 25.4274 35.7918 25.1408 35.5534L26.9015 35.2642C27.9252 35.0836 28.7026 34.2913 28.8823 33.3053ZM26.891 30.4683L24.8682 30.1361C24.7586 30.1177 24.6491 30.1186 24.5395 30.1054V29.7995H31.5511V31.5524H28.5265C28.1671 30.9985 27.5904 30.5918 26.891 30.4683ZM41.1928 25.4173C41.1928 25.9002 40.7993 26.2938 40.3164 26.2938H39.4399V21.9116H40.4881C40.8764 21.9116 41.1928 22.228 41.1928 22.6162V25.4173ZM16.6524 26.2938H15.776C15.293 26.2938 14.8995 25.9002 14.8995 25.4173V22.6162C14.8995 22.228 15.2159 21.9116 15.6042 21.9116H16.6524V26.2938ZM17.0775 16.7782C16.8137 16.936 16.6524 17.2217 16.6524 17.5293V20.1587H16.3457L13.0546 12.7562C13.031 12.708 10.8013 8.16105 10.5419 2.03121L19.0512 4.35203C19.3168 4.4239 19.5973 4.36868 19.8137 4.20303C20.0302 4.03651 20.1582 3.77971 20.1582 3.50626V1.76652C23.2047 1.85241 29.1777 2.37127 30.9323 4.12591C31.1181 4.31171 31.3758 4.40549 31.6387 4.37832C31.8999 4.3529 32.1356 4.21092 32.2811 3.99269L33.651 1.93743C35.4057 2.63157 40.4627 4.9892 42.4698 9.72638C43.7941 12.8535 43.5347 16.482 41.7423 20.5145C41.3742 20.2936 40.9483 20.1587 40.4881 20.1587H39.4399V17.5293C39.4399 17.2252 39.2822 16.9439 39.0245 16.7835C38.7659 16.624 38.4425 16.61 38.1717 16.7449L37.2032 17.2296L34.9657 12.7554C34.6686 12.1611 33.6948 12.1611 33.3977 12.7554L32.1891 15.1735L30.4196 13.4039C30.2197 13.2041 29.9367 13.1138 29.6597 13.1585C29.3819 13.2041 29.1426 13.3794 29.0164 13.6318C28.5431 14.5784 26.3327 15.7957 24.7446 16.4934L22.5316 14.2804C22.2476 13.9964 21.8059 13.9421 21.4606 14.1489L17.0775 16.7782ZM14.0231 30.1685L14.286 30.1151C14.4911 30.0739 14.6366 30.1641 14.7076 30.2211C14.7786 30.2798 14.8995 30.4095 14.8995 30.6234V30.676H14.0231V30.1685ZM14.0231 32.4289H21.0346C21.1705 32.4289 21.3054 32.3973 21.4264 32.3368C22.4054 31.8469 23.4957 31.6865 24.5825 31.8653L26.5965 32.1966C26.9287 32.2553 27.1697 32.5376 27.1697 32.8671C27.1697 33.1966 26.9287 33.4789 26.607 33.5358L24.5807 33.8689C24.2985 33.9153 24.0163 33.9372 23.7358 33.9381C23.7323 33.9381 23.7288 33.9364 23.7253 33.9364H23.7165C22.9242 33.9355 22.1451 33.7576 21.4264 33.3982C21.3054 33.3369 21.1705 33.3053 21.0346 33.3053H14.0231V32.4289ZM13.1466 38.7322L14.6164 35.0582H18.9189L20.2309 37.4684C20.8453 38.5894 21.7358 39.4983 22.7875 40.1407V44.118L13.1466 48.197V38.7322ZM13.1466 50.1006L23.2625 45.8209C23.8822 46.778 25.2687 48.2048 28.0462 48.2048C30.8236 48.2048 32.2101 46.778 32.8298 45.82L45.724 51.2733C45.7556 51.2864 45.788 51.2978 45.8204 51.3083C46.1982 51.4179 46.4515 51.7553 46.4515 52.1488V54.3399H13.1466V50.1006ZM11.4569 38.2379C11.4148 38.3414 11.3938 38.4518 11.3938 38.564V54.3399H7.01154V38.564C7.01154 38.4921 7.00278 38.4211 6.98525 38.351L6.54703 36.599L11.6549 36.088C11.917 36.0617 12.1615 35.9881 12.3938 35.8926L11.4569 38.2379ZM5.25866 30.5927L12.2702 29.8916V33.4718C12.2702 33.9241 11.931 34.2992 11.4814 34.3439L6.22274 34.8698C5.97383 34.8969 5.73281 34.8154 5.54701 34.648C5.3612 34.4789 5.25866 34.2484 5.25866 33.9977V30.5927ZM1.75289 32.8671C1.75289 32.6252 1.94921 32.4289 2.19111 32.4289H3.50577V33.3053H2.19111C1.94921 33.3053 1.75289 33.109 1.75289 32.8671Z" fill="#31293A"/>
</g>
<defs>
<clipPath id="clip0_2576_1412">
<rect width="56.0923" height="56.0923" fill="white"/>
</clipPath>
</defs>
</svg>
