<svg width="70" height="70" viewBox="0 0 70 70" fill="none" xmlns="http://www.w3.org/2000/svg">
<path d="M57.6442 67.0178H13.3047C10.2843 67.0178 7.83594 64.5694 7.83594 61.549V40.8594C7.83594 37.839 10.2843 35.3906 13.3047 35.3906H57.6442C60.6646 35.3906 63.113 37.839 63.113 40.8594V61.549C63.113 64.5694 60.6643 67.0178 57.6442 67.0178Z" fill="#E63950"/>
<path d="M57.6448 35.3906H56.907C57.3735 36.1956 57.6448 37.1278 57.6448 38.125V58.8146C57.6448 61.835 55.1964 64.2834 52.176 64.2834H8.57422C9.52031 65.9164 11.2823 67.0178 13.3052 67.0178H57.6448C60.6652 67.0178 63.1135 64.5694 63.1135 61.549V40.8594C63.1135 37.839 60.6649 35.3906 57.6448 35.3906Z" fill="#D10028"/>
<path d="M19.4776 20.4259H51.4728C51.802 20.4259 52.0992 20.2291 52.2277 19.9261L52.7393 18.721C55.9604 11.1334 48.3375 3.4687 40.7324 6.64824L37.7489 7.89566C36.294 8.50406 34.6561 8.50406 33.2011 7.89566L30.2176 6.64824C22.6128 3.46898 14.9899 11.1337 18.211 18.7213L18.7226 19.9264C18.8511 20.2293 19.1483 20.4259 19.4776 20.4259Z" fill="#FFA91A"/>
<path d="M49.2687 7.40234C50.8276 9.78207 51.3195 12.8911 50.0051 15.9872L49.4935 17.1922C49.365 17.4952 49.0675 17.6921 48.7386 17.6921H17.8398C17.9421 18.0347 18.0652 18.3784 18.2109 18.7216L18.7225 19.9266C18.851 20.2296 19.1485 20.4264 19.4775 20.4264H51.4727C51.8019 20.4264 52.0991 20.2296 52.2276 19.9266L52.7392 18.7216C54.6544 14.2107 52.7368 9.67297 49.2687 7.40234Z" fill="#F79219"/>
<path d="M50.055 7.98047C52.0557 10.4359 52.835 13.9034 51.3697 17.3553L50.8581 18.5603C50.7296 18.8633 50.4321 19.0602 50.1031 19.0602H18.3516L18.7199 19.9275C18.8484 20.2305 19.1459 20.4273 19.4748 20.4273H51.47C51.7993 20.4273 52.0965 20.2305 52.225 19.9275L52.7366 18.7225C54.5011 14.5668 53.0122 10.3881 50.055 7.98047Z" fill="#EF7816"/>
<path d="M19.1674 16.6426C18.8986 16.6426 18.6643 16.4446 18.6262 16.1709C18.5759 15.8094 18.5508 15.4422 18.5508 15.0796C18.5508 13.5328 19.0115 12.0193 19.883 10.703C20.8944 9.17503 22.3805 8.01374 24.0677 7.43323C24.3537 7.33452 24.6646 7.48682 24.7627 7.77229C24.8609 8.05776 24.7091 8.3692 24.4237 8.46737C22.963 8.96995 21.6743 9.97838 20.7949 11.3067C20.0424 12.4437 19.6445 13.7483 19.6445 15.0796C19.6445 15.3922 19.6664 15.7088 19.7096 16.0205C19.7512 16.3197 19.5423 16.5958 19.2431 16.6374C19.2177 16.6412 19.1923 16.6426 19.1674 16.6426ZM26.388 8.10206C26.0941 8.10206 25.8513 7.86881 25.8417 7.57295C25.8319 7.27108 26.0687 7.01842 26.3705 7.00858C26.455 7.00585 26.5379 7.00256 26.6246 7.00448C26.9264 7.00502 27.1712 7.2503 27.1706 7.55217C27.1701 7.85405 26.9254 8.09823 26.6237 8.09823C26.621 8.09823 26.6166 8.09823 26.6128 8.09823C26.5439 8.09823 26.475 8.09932 26.4061 8.10178C26.4001 8.10206 26.3941 8.10206 26.388 8.10206Z" fill="#FFC91D"/>
<path d="M20.5036 29.5864L21.2807 31.417C22.1872 33.552 22.6542 35.8478 22.6542 38.1671V51.734C22.6542 55.817 25.9642 59.1269 30.0471 59.1269C31.2954 59.1269 32.3074 58.1149 32.3074 56.8667V48.2411C32.3074 46.4963 33.6724 44.9998 35.4166 44.9678C37.1937 44.9352 38.6445 46.3661 38.6445 48.1358V56.8664C38.6445 58.1146 39.6565 59.1269 40.9051 59.1269C44.988 59.1269 48.2983 55.817 48.2983 51.7337V38.1668C48.2983 35.8473 48.7653 33.5518 49.6717 31.4168L50.4488 29.5861C50.6785 29.0452 50.2815 28.4453 49.6939 28.4453H21.2588C20.671 28.4456 20.2739 29.0452 20.5036 29.5864Z" fill="#F1F2F2"/>
<path d="M49.693 28.4453H48.9848L48.3036 30.0496C47.3972 32.1846 46.9302 34.4804 46.9302 36.7996V50.3665C46.9302 54.4495 43.6202 57.7597 39.537 57.7597C39.2701 57.7597 39.0152 57.7111 38.7773 57.626C39.0896 58.5002 39.9228 59.1269 40.9041 59.1269C44.9871 59.1269 48.2973 55.817 48.2973 51.7337V38.1668C48.2973 35.8473 48.7644 33.5518 49.6708 31.4168L50.4479 29.5861C50.6779 29.045 50.2809 28.4453 49.693 28.4453Z" fill="#D1D3D4"/>
<path d="M45.8672 28.448L44.9328 23.1537C44.8407 22.6312 44.3865 22.25 43.8558 22.25H27.0973C26.5666 22.25 26.1124 22.6309 26.0203 23.1537L25.0859 28.448H45.8672Z" fill="#D1D3D4"/>
<path d="M44.9328 23.1537C44.8407 22.6312 44.3865 22.25 43.8558 22.25H43.6474L44.3865 26.4388C44.4456 26.7738 44.188 27.0808 43.8479 27.0808H25.3271L25.0859 28.448H45.8672L44.9328 23.1537Z" fill="#939598"/>
<path d="M9.90684 12.141L10.2041 13.5252C10.5163 14.9796 11.6525 16.1154 13.1066 16.4277L14.4907 16.7249C14.8243 16.7966 14.8243 17.2729 14.4907 17.3445L13.1066 17.6418C11.6522 17.954 10.5163 19.0902 10.2041 20.5443L9.90684 21.9284C9.8352 22.262 9.35887 22.262 9.28723 21.9284L8.99 20.5443C8.67773 19.0899 7.5416 17.954 6.08746 17.6418L4.70332 17.3445C4.36973 17.2729 4.36973 16.7966 4.70332 16.7249L6.08746 16.4277C7.54187 16.1154 8.67773 14.9793 8.99 13.5252L9.28723 12.141C9.35887 11.8072 9.83492 11.8072 9.90684 12.141Z" fill="#FFC91D"/>
<path d="M15.871 3.1712L16.0927 4.20425C16.3257 5.28952 17.1736 6.13718 18.2589 6.37042L19.2919 6.59218C19.541 6.64577 19.541 7.00097 19.2919 7.05456L18.2589 7.27632C17.1736 7.50929 16.326 8.35722 16.0927 9.44249L15.871 10.4755C15.8174 10.7246 15.4622 10.7246 15.4086 10.4755L15.1868 9.44249C14.9539 8.35722 14.1059 7.50956 13.0207 7.27632L11.9876 7.05456C11.7385 7.00097 11.7385 6.64577 11.9876 6.59218L13.0207 6.37042C14.1059 6.13745 14.9536 5.28952 15.1868 4.20425L15.4086 3.1712C15.4622 2.9221 15.8176 2.9221 15.871 3.1712Z" fill="#FFC91D"/>
<path d="M61.9452 15.3157L62.1669 16.3488C62.3999 17.4341 63.2478 18.2817 64.3331 18.515L65.3662 18.7367C65.6153 18.7903 65.6153 19.1455 65.3662 19.1991L64.3331 19.4209C63.2478 19.6538 62.4002 20.5017 62.1669 21.587L61.9452 22.6201C61.8916 22.8692 61.5364 22.8692 61.4828 22.6201L61.261 21.587C61.0281 20.5017 60.1801 19.6541 59.0949 19.4209L58.0618 19.1991C57.8127 19.1455 57.8127 18.7903 58.0618 18.7367L59.0949 18.515C60.1801 18.282 61.0278 17.4341 61.261 16.3488L61.4828 15.3157C61.5364 15.0666 61.8916 15.0666 61.9452 15.3157Z" fill="#FFC91D"/>
<path d="M56.6808 9.40941L56.8378 10.1403C57.0027 10.9084 57.6026 11.508 58.3707 11.6732L59.1016 11.8302C59.2779 11.8679 59.2779 12.1195 59.1016 12.1572L58.3707 12.3141C57.6026 12.479 57.0029 13.0789 56.8378 13.847L56.6808 14.5779C56.6431 14.754 56.3915 14.754 56.3538 14.5779L56.1968 13.847C56.032 13.0789 55.432 12.4793 54.664 12.3141L53.9331 12.1572C53.7567 12.1195 53.7567 11.8679 53.9331 11.8302L54.664 11.6732C55.432 11.5083 56.0317 10.9084 56.1968 10.1403L56.3538 9.40941C56.3915 9.23332 56.6428 9.23332 56.6808 9.40941Z" fill="#FFC91D"/>
</svg>
