<svg width="50" height="50" viewBox="0 0 50 50" fill="none" xmlns="http://www.w3.org/2000/svg">
<path d="M24.6679 11.5625C17.4415 11.5625 11.5625 17.4416 11.5625 24.6679C11.5625 31.8942 17.4415 37.7734 24.6679 37.7734C31.8943 37.7734 37.7734 31.8942 37.7734 24.6679C37.7734 17.4416 31.8943 11.5625 24.6679 11.5625ZM22.6238 31.056L17.0023 25.4345L19.0465 23.3903L22.6238 26.9676L30.2895 19.3019L32.3336 21.3461L22.6238 31.056Z" fill="#0267AC"/>
<path d="M46.643 18.1731C45.4539 16.984 44.799 15.403 44.799 13.7214C44.799 8.65584 40.6779 4.53467 35.6124 4.53467C33.9307 4.53467 32.3498 3.87978 31.1606 2.69076C29.4255 0.955636 27.1185 0 24.6647 0C22.2109 0 19.9038 0.955636 18.1687 2.69076C16.9797 3.87978 15.3987 4.53467 13.7169 4.53467C8.65139 4.53467 4.53031 8.65584 4.53031 13.7214C4.53031 15.403 3.87542 16.984 2.6863 18.1731C-0.895433 21.755 -0.895433 27.5831 2.6863 31.165C3.87542 32.3541 4.53031 33.9351 4.53031 35.6167C4.53031 40.6822 8.65148 44.8034 13.7169 44.8034C15.3987 44.8034 16.9796 45.4583 18.1687 46.6473C19.9038 48.3824 22.2109 49.3381 24.6647 49.3381C27.1185 49.3381 29.4255 48.3824 31.1606 46.6473C32.3497 45.4583 33.9307 44.8034 35.6124 44.8034C40.678 44.8034 44.799 40.6822 44.799 35.6167C44.799 33.9351 45.4539 32.3541 46.643 31.165C50.2249 27.5831 50.2249 21.755 46.643 18.1731ZM40.661 24.669C40.661 33.4894 33.4851 40.6654 24.6647 40.6654C15.8442 40.6654 8.66835 33.4894 8.66835 24.669C8.66835 15.8487 15.8442 8.67271 24.6647 8.67271C33.4851 8.67271 40.661 15.8487 40.661 24.669Z" fill="#0267AC"/>
</svg>
