<svg width="70" height="70" viewBox="0 0 70 70" fill="none" xmlns="http://www.w3.org/2000/svg">
<g clip-path="url(#clip0_2576_1261)">
<path d="M45.3766 5.87855C42.2736 5.76165 39.3637 6.55235 36.8887 8.00629C33.3563 9.93812 29.8239 9.93812 26.2915 8.00629C23.8164 6.55235 20.9066 5.76165 17.8036 5.87855C9.60403 6.18728 2.96248 12.9523 2.77882 21.1731C2.49121 34.0549 13.8247 52.3404 15.6839 64.4901C16.2143 67.9561 17.2418 70.0004 19.9459 70.0004C21.7673 70.0004 23.3235 67.8038 24.4905 64.3215C25.3919 61.6316 26.8226 56.3266 27.6016 53.6621C28.9597 49.0164 34.2206 49.0166 35.5787 53.6621C36.3576 56.3266 37.7884 61.6316 38.6898 64.3215C39.8568 67.8036 41.4129 70.0004 43.2345 70.0004C45.9385 70.0004 46.9661 67.9563 47.4964 64.4901C49.3557 52.3402 60.6891 34.0549 60.4015 21.1731C60.2178 12.9523 53.5763 6.18728 45.3766 5.87855Z" fill="white"/>
<path d="M60.4036 21.173C60.2201 12.9523 53.5785 6.18725 45.3788 5.87852C44.2054 5.83429 43.0599 5.92035 41.9548 6.12246C49.1068 7.43908 54.603 13.7051 54.7698 21.173C55.0574 34.0549 43.724 52.3403 41.8647 64.4901C41.6143 66.1268 41.2526 67.446 40.6562 68.3832C41.4353 69.4192 42.3008 70.0003 43.2365 70.0003C45.9406 70.0003 46.9682 67.9563 47.4985 64.4901C49.3578 52.3403 60.6912 34.0549 60.4036 21.173Z" fill="#E9E9E9"/>
<path d="M8.54853 22.7739C7.96515 22.7739 7.49219 22.3011 7.49219 21.7176C7.49219 15.6141 12.4661 10.6484 18.5799 10.6484C19.1633 10.6484 19.6363 11.1213 19.6363 11.7048C19.6363 12.2883 19.1633 12.7611 18.5799 12.7611C13.6311 12.7611 9.60486 16.7789 9.60486 21.7176C9.60486 22.301 9.13191 22.7739 8.54853 22.7739Z" fill="#E9E9E9"/>
<path d="M53.3762 0L56.1194 7.7031L61.1352 10.4411L56.1194 13.1793L53.3762 20.8824L50.633 13.1793L45.6172 10.4411L50.633 7.7031L53.3762 0Z" fill="#FED23A"/>
<path d="M64.129 15.9141L65.9824 21.1184L69.3711 22.9684L65.9824 24.8184L64.129 30.0228L62.2755 24.8184L58.8867 22.9684L62.2755 21.1184L64.129 15.9141Z" fill="#FED23A"/>
<path d="M9.28366 37.1992L12.3422 45.7878L17.9345 48.8406L12.3422 51.8934L9.28366 60.482L6.22507 51.8934L0.632812 48.8406L6.22507 45.7878L9.28366 37.1992Z" fill="#FED23A"/>
<path d="M56.1221 7.7031L53.3789 0V20.8824L56.1221 13.1793L61.1379 10.4411L56.1221 7.7031Z" fill="#F7C61B"/>
<path d="M12.3398 45.7878L9.28125 37.1992V60.482L12.3398 51.8934L17.9321 48.8406L12.3398 45.7878Z" fill="#F7C61B"/>
</g>
<defs>
<clipPath id="clip0_2576_1261">
<rect width="70" height="70" fill="white"/>
</clipPath>
</defs>
</svg>
