<svg width="57" height="57" viewBox="0 0 57 57" fill="none" xmlns="http://www.w3.org/2000/svg">
<path d="M49.9194 5.90619H44.6565V3.55601C44.6565 2.35934 43.3966 1.42188 41.7894 1.42188C40.1799 1.42188 38.9191 2.35934 38.9191 3.55601V5.90619H30.9152V3.55601C30.9152 2.35934 29.6542 1.42188 28.0448 1.42188C26.4354 1.42188 25.1745 2.35934 25.1745 3.55601V5.90619H17.1734V3.55601C17.1734 2.35934 15.9128 1.42188 14.3031 1.42188C12.6934 1.42188 11.4327 2.35934 11.4327 3.55601V5.90619H6.17329C5.25017 5.90721 4.36514 6.27436 3.71239 6.9271C3.05963 7.57983 2.69245 8.46485 2.69141 9.38797V51.1839C2.69248 52.107 3.05966 52.992 3.71241 53.6448C4.36516 54.2975 5.25017 54.6647 6.17329 54.6658H49.9194C50.8422 54.6644 51.7267 54.2971 52.3789 53.6443C53.0311 52.9915 53.3977 52.1066 53.3982 51.1839V9.38797C53.3977 8.46523 53.0311 7.58039 52.3789 6.92764C51.7267 6.27488 50.8421 5.90753 49.9194 5.90619ZM40.6722 3.56916C40.7258 3.45413 41.129 3.17476 41.7896 3.17476C42.4483 3.17476 42.8503 3.45456 42.9038 3.56916V5.90619H40.6722V3.56916ZM26.9273 3.57015C26.9821 3.45478 27.3857 3.17476 28.0448 3.17476C28.7039 3.17476 29.1075 3.45478 29.1623 3.57015V5.90619H26.9273V3.57015ZM13.1858 3.57015C13.2406 3.45478 13.6441 3.17476 14.3033 3.17476C14.9625 3.17476 15.366 3.45478 15.4208 3.57015V5.90619H13.1858V3.57015Z" fill="#EAE8E8"/>
<path d="M26.0882 22.478V26.4126C26.0882 26.645 25.9959 26.8679 25.8315 27.0323C25.6672 27.1967 25.4442 27.289 25.2118 27.289H20.7529C20.5205 27.289 20.2975 27.1967 20.1332 27.0323C19.9688 26.8679 19.8765 26.645 19.8765 26.4126V22.478C19.8765 22.2456 19.9688 22.0226 20.1332 21.8583C20.2975 21.6939 20.5205 21.6016 20.7529 21.6016H25.2118C25.4442 21.6016 25.6672 21.6939 25.8315 21.8583C25.9959 22.0226 26.0882 22.2456 26.0882 22.478ZM35.3417 21.6016H30.8828C30.6504 21.6016 30.4275 21.6939 30.2631 21.8583C30.0987 22.0226 30.0064 22.2456 30.0064 22.478V26.4126C30.0064 26.645 30.0987 26.8679 30.2631 27.0323C30.4275 27.1967 30.6504 27.289 30.8828 27.289H35.3417C35.5742 27.289 35.7971 27.1967 35.9615 27.0323C36.1258 26.8679 36.2182 26.645 36.2182 26.4126V22.478C36.2182 22.2456 36.1258 22.0226 35.9615 21.8583C35.7971 21.6939 35.5742 21.6016 35.3417 21.6016ZM15.0849 31.2283H10.6225C10.3901 31.2283 10.1672 31.3206 10.0028 31.485C9.83843 31.6494 9.74609 31.8723 9.74609 32.1047V36.0393C9.74609 36.2718 9.83843 36.4947 10.0028 36.6591C10.1672 36.8234 10.3901 36.9158 10.6225 36.9158H15.0851C15.3175 36.9158 15.5404 36.8234 15.7048 36.6591C15.8692 36.4947 15.9615 36.2718 15.9615 36.0393V32.1047C15.9615 31.8723 15.8692 31.6494 15.7048 31.485C15.5404 31.3206 15.3174 31.2283 15.0849 31.2283ZM25.2117 31.2283H20.7528C20.5203 31.2283 20.2974 31.3206 20.1331 31.485C19.9687 31.6494 19.8763 31.8723 19.8763 32.1047V36.0393C19.8763 36.2718 19.9687 36.4947 20.1331 36.6591C20.2974 36.8234 20.5203 36.9158 20.7528 36.9158H25.2117C25.4441 36.9158 25.6671 36.8234 25.8314 36.6591C25.9958 36.4947 26.0881 36.2718 26.0881 36.0393V32.1047C26.0881 31.8723 25.9958 31.6494 25.8315 31.485C25.6671 31.3207 25.4442 31.2283 25.2118 31.2283H25.2117ZM35.3416 31.2283H30.8827C30.6503 31.2283 30.4273 31.3206 30.263 31.485C30.0986 31.6494 30.0063 31.8723 30.0063 32.1047V36.0393C30.0063 36.2718 30.0986 36.4947 30.263 36.6591C30.4273 36.8234 30.6503 36.9158 30.8827 36.9158H35.3416C35.5741 36.9158 35.797 36.8234 35.9614 36.6591C36.1257 36.4947 36.2181 36.2718 36.2181 36.0393V32.1047C36.2181 31.8723 36.1257 31.6494 35.9614 31.485C35.7971 31.3207 35.5742 31.2283 35.3417 31.2283H35.3416ZM15.0848 40.8582H10.6225C10.3901 40.8582 10.1672 40.9506 10.0028 41.1149C9.83843 41.2793 9.74609 41.5022 9.74609 41.7347V45.666C9.74609 45.8985 9.83843 46.1214 10.0028 46.2858C10.1672 46.4502 10.3901 46.5425 10.6225 46.5425H15.0851C15.3175 46.5425 15.5404 46.4502 15.7048 46.2858C15.8692 46.1214 15.9615 45.8985 15.9615 45.666V41.7348C15.9615 41.5023 15.8692 41.2794 15.7048 41.115C15.5404 40.9507 15.3175 40.8583 15.0851 40.8583L15.0848 40.8582ZM25.2116 40.8582H20.7527C20.5202 40.8582 20.2973 40.9506 20.1329 41.1149C19.9686 41.2793 19.8762 41.5022 19.8762 41.7347V45.666C19.8762 45.8985 19.9686 46.1214 20.1329 46.2858C20.2973 46.4502 20.5202 46.5425 20.7527 46.5425H25.2116C25.444 46.5425 25.667 46.4502 25.8313 46.2858C25.9957 46.1214 26.088 45.8985 26.088 45.666V41.7348C26.088 41.5024 25.9957 41.2795 25.8314 41.1151C25.6671 40.9507 25.4442 40.8584 25.2118 40.8583L25.2116 40.8582ZM15.0851 21.6016H10.6225C10.3901 21.6016 10.1672 21.6939 10.0028 21.8583C9.83843 22.0226 9.74609 22.2456 9.74609 22.478V26.4126C9.74609 26.645 9.83843 26.8679 10.0028 27.0323C10.1672 27.1967 10.3901 27.289 10.6225 27.289H15.0851C15.3175 27.289 15.5404 27.1967 15.7048 27.0323C15.8692 26.8679 15.9615 26.645 15.9615 26.4126V22.478C15.9615 22.2456 15.8692 22.0226 15.7048 21.8583C15.5404 21.6939 15.3175 21.6016 15.0851 21.6016ZM45.4717 31.2283H41.0127C40.7803 31.2283 40.5574 31.3206 40.393 31.485C40.2286 31.6494 40.1363 31.8723 40.1363 32.1047V36.0393C40.1363 36.2718 40.2286 36.4947 40.393 36.6591C40.5574 36.8234 40.7803 36.9158 41.0127 36.9158H45.4717C45.7041 36.9158 45.927 36.8234 46.0914 36.6591C46.2558 36.4947 46.3481 36.2718 46.3481 36.0393V32.1047C46.3481 31.8723 46.2558 31.6494 46.0914 31.485C45.927 31.3206 45.7041 31.2283 45.4717 31.2283ZM35.3417 40.8582H30.8828C30.6504 40.8582 30.4275 40.9506 30.2631 41.1149C30.0987 41.2793 30.0064 41.5022 30.0064 41.7347V45.666C30.0064 45.8985 30.0987 46.1214 30.2631 46.2858C30.4275 46.4502 30.6504 46.5425 30.8828 46.5425H35.3417C35.5742 46.5425 35.7971 46.4502 35.9615 46.2858C36.1258 46.1214 36.2182 45.8985 36.2182 45.666V41.7348C36.2182 41.5023 36.1258 41.2794 35.9615 41.115C35.7971 40.9507 35.5742 40.8582 35.3417 40.8582Z" fill="#484868"/>
<path d="M15.0838 21.6016H13.9883C14.2207 21.6016 14.4437 21.6939 14.608 21.8583C14.7724 22.0226 14.8647 22.2456 14.8647 22.478V26.4126C14.8647 26.645 14.7724 26.8679 14.608 27.0323C14.4437 27.1967 14.2207 27.289 13.9883 27.289H15.0838C15.3163 27.289 15.5392 27.1967 15.7036 27.0323C15.8679 26.8679 15.9603 26.645 15.9603 26.4126V22.478C15.9603 22.2456 15.8679 22.0226 15.7036 21.8583C15.5392 21.6939 15.3163 21.6016 15.0838 21.6016Z" fill="#3D3D54"/>
<path d="M25.2088 40.8594H24.1133C24.3457 40.8594 24.5687 40.9517 24.733 41.1161C24.8974 41.2804 24.9897 41.5034 24.9897 41.7358V45.6672C24.9897 45.8997 24.8974 46.1226 24.733 46.287C24.5687 46.4513 24.3457 46.5437 24.1133 46.5437H25.2088C25.4413 46.5437 25.6642 46.4513 25.8286 46.287C25.9929 46.1226 26.0853 45.8997 26.0853 45.6672V41.7358C26.0853 41.5034 25.9929 41.2804 25.8286 41.1161C25.6642 40.9517 25.4413 40.8594 25.2088 40.8594Z" fill="#3D3D54"/>
<path d="M25.2088 31.2266H24.1133C24.3457 31.2266 24.5687 31.3189 24.733 31.4833C24.8974 31.6476 24.9897 31.8706 24.9897 32.103V36.0376C24.9897 36.27 24.8974 36.493 24.733 36.6573C24.5687 36.8217 24.3457 36.914 24.1133 36.914H25.2088C25.4413 36.914 25.6642 36.8217 25.8286 36.6573C25.9929 36.493 26.0853 36.27 26.0853 36.0376V32.103C26.0853 31.8706 25.9929 31.6476 25.8286 31.4833C25.6642 31.3189 25.4413 31.2266 25.2088 31.2266Z" fill="#3D3D54"/>
<path d="M15.0838 40.8594H13.9883C14.2207 40.8594 14.4437 40.9517 14.608 41.1161C14.7724 41.2804 14.8647 41.5034 14.8647 41.7358V45.6672C14.8647 45.8997 14.7724 46.1226 14.608 46.287C14.4437 46.4513 14.2207 46.5437 13.9883 46.5437H15.0838C15.3163 46.5437 15.5392 46.4513 15.7036 46.287C15.8679 46.1226 15.9603 45.8997 15.9603 45.6672V41.7358C15.9603 41.5034 15.8679 41.2804 15.7036 41.1161C15.5392 40.9517 15.3163 40.8594 15.0838 40.8594Z" fill="#3D3D54"/>
<path d="M15.0838 31.2266H13.9883C14.2207 31.2266 14.4437 31.3189 14.608 31.4833C14.7724 31.6476 14.8647 31.8706 14.8647 32.103V36.0376C14.8647 36.27 14.7724 36.493 14.608 36.6573C14.4437 36.8217 14.2207 36.914 13.9883 36.914H15.0838C15.3163 36.914 15.5392 36.8217 15.7036 36.6573C15.8679 36.493 15.9603 36.27 15.9603 36.0376V32.103C15.9603 31.8706 15.8679 31.6476 15.7036 31.4833C15.5392 31.3189 15.3163 31.2266 15.0838 31.2266Z" fill="#3D3D54"/>
<path d="M35.3416 40.8594H34.2461C34.4785 40.8594 34.7015 40.9517 34.8658 41.1161C35.0302 41.2804 35.1225 41.5034 35.1225 41.7358V45.6672C35.1225 45.8997 35.0302 46.1226 34.8658 46.287C34.7015 46.4513 34.4785 46.5437 34.2461 46.5437H35.3416C35.5741 46.5437 35.797 46.4513 35.9614 46.287C36.1257 46.1226 36.2181 45.8997 36.2181 45.6672V41.7358C36.2181 41.5034 36.1257 41.2804 35.9614 41.1161C35.797 40.9517 35.5741 40.8594 35.3416 40.8594Z" fill="#3D3D54"/>
<path d="M35.3416 21.6016H34.2461C34.4785 21.6016 34.7015 21.6939 34.8658 21.8583C35.0302 22.0226 35.1225 22.2456 35.1225 22.478V26.4126C35.1225 26.645 35.0302 26.8679 34.8658 27.0323C34.7015 27.1967 34.4785 27.289 34.2461 27.289H35.3416C35.5741 27.289 35.797 27.1967 35.9614 27.0323C36.1257 26.8679 36.2181 26.645 36.2181 26.4126V22.478C36.2181 22.2456 36.1257 22.0226 35.9614 21.8583C35.797 21.6939 35.5741 21.6016 35.3416 21.6016Z" fill="#3D3D54"/>
<path d="M25.2088 21.6016H24.1133C24.3457 21.6016 24.5687 21.6939 24.733 21.8583C24.8974 22.0226 24.9897 22.2456 24.9897 22.478V26.4126C24.9897 26.645 24.8974 26.8679 24.733 27.0323C24.5687 27.1967 24.3457 27.289 24.1133 27.289H25.2088C25.4413 27.289 25.6642 27.1967 25.8286 27.0323C25.9929 26.8679 26.0853 26.645 26.0853 26.4126V22.478C26.0853 22.2456 25.9929 22.0226 25.8286 21.8583C25.6642 21.6939 25.4413 21.6016 25.2088 21.6016Z" fill="#3D3D54"/>
<path d="M45.4706 31.2305H44.375C44.6074 31.2305 44.8304 31.3228 44.9947 31.4872C45.1591 31.6515 45.2514 31.8745 45.2514 32.1069V36.0415C45.2514 36.2739 45.1591 36.4969 44.9947 36.6612C44.8304 36.8256 44.6074 36.9179 44.375 36.9179H45.4706C45.703 36.9179 45.9259 36.8256 46.0903 36.6612C46.2547 36.4969 46.347 36.2739 46.347 36.0415V32.1069C46.347 31.8745 46.2547 31.6515 46.0903 31.4872C45.9259 31.3228 45.703 31.2305 45.4706 31.2305Z" fill="#3D3D54"/>
<path d="M35.3416 31.2266H34.2461C34.4785 31.2266 34.7015 31.3189 34.8658 31.4833C35.0302 31.6476 35.1225 31.8706 35.1225 32.103V36.0376C35.1225 36.27 35.0302 36.493 34.8658 36.6573C34.7015 36.8217 34.4785 36.914 34.2461 36.914H35.3416C35.5741 36.914 35.797 36.8217 35.9614 36.6573C36.1257 36.493 36.2181 36.27 36.2181 36.0376V32.103C36.2181 31.8706 36.1257 31.6476 35.9614 31.4833C35.797 31.3189 35.5741 31.2266 35.3416 31.2266Z" fill="#3D3D54"/>
<path d="M42.6865 27.036C42.4554 27.036 42.2336 26.9447 42.0695 26.782L40.2684 24.9963C40.1045 24.8324 40.0122 24.6102 40.0117 24.3784C40.0112 24.1466 40.1026 23.9241 40.2658 23.7595C40.429 23.5949 40.6507 23.5016 40.8825 23.5001C41.1143 23.4986 41.3373 23.589 41.5026 23.7515L42.631 24.8698L44.925 22.1615C45.0752 21.9842 45.2898 21.8737 45.5214 21.8546C45.7531 21.8354 45.9829 21.909 46.1602 22.0593C46.3376 22.2095 46.448 22.4241 46.4672 22.6557C46.4864 22.8874 46.4128 23.1172 46.2625 23.2945L43.3558 26.726C43.2776 26.8183 43.1813 26.8933 43.0727 26.9465C42.9641 26.9997 42.8458 27.0299 42.725 27.0351C42.7119 27.0356 42.6992 27.036 42.6865 27.036Z" fill="#D22E2E"/>
<path d="M45.7321 51.8448C45.6507 51.9262 45.5541 51.9908 45.4477 52.0349C45.3414 52.079 45.2274 52.1017 45.1122 52.1017H6.17329C5.25017 52.1006 4.36516 51.7334 3.71241 51.0807C3.05966 50.4279 2.69248 49.5429 2.69141 48.6198V51.1848C2.69248 52.1079 3.05966 52.9929 3.71241 53.6457C4.36516 54.2984 5.25017 54.6656 6.17329 54.6667H49.9194C50.8422 54.6654 51.7267 54.298 52.3789 53.6452C53.0311 52.9924 53.3977 52.1076 53.3982 51.1848V43.8125C53.3982 44.0449 53.3059 44.2677 53.1416 44.432L45.7321 51.8448Z" fill="#D1C9C9"/>
<path d="M53.3983 43.8141V43.6992H46.7724C46.3075 43.6992 45.8617 43.8839 45.5329 44.2126C45.2042 44.5414 45.0195 44.9872 45.0195 45.4521V52.1033H45.1123C45.2275 52.1033 45.3415 52.0806 45.4478 52.0365C45.5542 51.9925 45.6508 51.9278 45.7322 51.8464L53.1417 44.4337C53.306 44.2693 53.3983 44.0465 53.3983 43.8141Z" fill="#BCB3B3"/>
<path d="M49.9194 5.90625H40.6722V9.2238C40.7237 9.33884 41.1255 9.62029 41.7896 9.62029C42.0221 9.62029 42.245 9.71263 42.4094 9.87699C42.5737 10.0414 42.6661 10.2643 42.6661 10.4967C42.6661 10.7292 42.5737 10.9521 42.4094 11.1165C42.245 11.2808 42.0221 11.3732 41.7896 11.3732C40.1801 11.3732 38.9193 10.4344 38.9193 9.23586V5.90625H26.9273V9.22315C26.9797 9.33862 27.3821 9.62029 28.0448 9.62029C28.2773 9.62029 28.5002 9.71263 28.6646 9.87699C28.8289 10.0414 28.9213 10.2643 28.9213 10.4967C28.9213 10.7292 28.8289 10.9521 28.6646 11.1165C28.5002 11.2808 28.2773 11.3732 28.0448 11.3732C26.4353 11.3732 25.1745 10.4344 25.1745 9.23586V5.90625H13.186V9.22315C13.2384 9.33862 13.6408 9.62029 14.3035 9.62029C14.536 9.62029 14.7589 9.71263 14.9232 9.87699C15.0876 10.0414 15.1799 10.2643 15.1799 10.4967C15.1799 10.7292 15.0876 10.9521 14.9232 11.1165C14.7589 11.2808 14.536 11.3732 14.3035 11.3732C12.6941 11.3732 11.4332 10.4344 11.4332 9.23586V5.90625H6.17329C5.25017 5.90726 4.36514 6.27442 3.71239 6.92715C3.05963 7.57989 2.69245 8.4649 2.69141 9.38803V16.8605H53.3982V9.38803C53.3977 8.46528 53.0311 7.58045 52.3789 6.92769C51.7267 6.27494 50.8421 5.90758 49.9194 5.90625Z" fill="#D22E2E"/>
<path d="M2.69141 16.8594H53.3982V18.2279H2.69141V16.8594Z" fill="#D1C9C9"/>
<path d="M28.9219 10.5006C28.9219 10.733 28.8296 10.956 28.6652 11.1203C28.5008 11.2847 28.2779 11.377 28.0455 11.377C26.436 11.377 25.1751 10.4382 25.1751 9.23971V3.55992C25.1751 2.36325 26.436 1.42578 28.0455 1.42578C29.6549 1.42578 30.9158 2.36325 30.9158 3.55992V5.9101H29.1629V3.57405C29.1082 3.45869 28.7044 3.17867 28.0455 3.17867C27.3865 3.17867 26.9828 3.45869 26.928 3.57405V9.22711C26.9804 9.34258 27.3828 9.62425 28.0455 9.62425C28.2779 9.62425 28.5008 9.71657 28.6652 9.88091C28.8295 10.0453 28.9219 10.2682 28.9219 10.5006ZM14.3039 9.62414C13.6415 9.62414 13.2391 9.34247 13.1865 9.227V3.57394C13.2413 3.45858 13.6447 3.17856 14.3039 3.17856C14.9631 3.17856 15.3666 3.45858 15.4214 3.57394V5.9101H17.1743V3.55992C17.1743 2.36325 15.9136 1.42578 14.3039 1.42578C12.6942 1.42578 11.4336 2.36325 11.4336 3.55992V9.23971C11.4336 10.4382 12.6944 11.377 14.3039 11.377C14.5364 11.377 14.7593 11.2847 14.9237 11.1203C15.088 10.956 15.1804 10.733 15.1804 10.5006C15.1804 10.2681 15.088 10.0452 14.9237 9.88084C14.7593 9.71647 14.5364 9.62414 14.3039 9.62414ZM41.7901 9.62414C41.1262 9.62414 40.7243 9.34269 40.6726 9.22765V3.57307C40.7263 3.45803 41.1294 3.17867 41.7901 3.17867C42.4487 3.17867 42.8508 3.45847 42.9042 3.57307V5.9101H44.6571V3.55992C44.6571 2.36325 43.3972 1.42578 41.7901 1.42578C40.1806 1.42578 38.9197 2.36325 38.9197 3.55992V9.23971C38.9197 10.4382 40.1804 11.377 41.7901 11.377C42.0225 11.377 42.2454 11.2847 42.4098 11.1203C42.5742 10.956 42.6665 10.733 42.6665 10.5006C42.6665 10.2681 42.5742 10.0452 42.4098 9.88084C42.2454 9.71647 42.0225 9.62414 41.7901 9.62414Z" fill="#484868"/>
<path d="M14.3116 8.85547C13.9094 8.85549 13.5214 9.0037 13.2216 9.27178C13.3386 9.40259 13.7204 9.62236 14.3062 9.62236C14.5386 9.62236 14.7616 9.7147 14.9259 9.87906C15.0903 10.0434 15.1826 10.2664 15.1826 10.4988C15.1826 10.7312 15.0903 10.9542 14.9259 11.1185C14.7616 11.2829 14.5386 11.3752 14.3062 11.3752C13.7752 11.3801 13.2495 11.2692 12.7656 11.0503C12.8668 11.3337 13.044 11.5839 13.2777 11.7734C13.5114 11.963 13.7926 12.0848 14.0908 12.1254C14.389 12.166 14.6926 12.1239 14.9685 12.0036C15.2444 11.8834 15.4819 11.6898 15.6552 11.4437C15.8285 11.1977 15.9309 10.9088 15.9511 10.6085C15.9714 10.3083 15.9088 10.0083 15.7701 9.74117C15.6315 9.47408 15.4221 9.25022 15.1649 9.09403C14.9077 8.93784 14.6125 8.85531 14.3116 8.85547Z" fill="#AD1E1E"/>
<path d="M28.0473 8.85547C27.6466 8.85536 27.2598 9.00237 26.9604 9.2686C27.0742 9.39908 27.4572 9.62225 28.0473 9.62225C28.2797 9.62225 28.5026 9.71459 28.667 9.87895C28.8314 10.0433 28.9237 10.2662 28.9237 10.4987C28.9237 10.7311 28.8314 10.9541 28.667 11.1184C28.5026 11.2828 28.2797 11.3751 28.0473 11.3751C27.5137 11.38 26.9856 11.2681 26.5 11.0471C26.6006 11.3309 26.7772 11.5816 27.0107 11.7718C27.2441 11.962 27.5253 12.0843 27.8236 12.1255C28.1219 12.1667 28.4257 12.125 28.7019 12.0052C28.9781 11.8853 29.2161 11.6918 29.3898 11.4459C29.5634 11.1999 29.6662 10.911 29.6867 10.6106C29.7073 10.3102 29.6449 10.0099 29.5063 9.74259C29.3677 9.47527 29.1583 9.25119 28.901 9.09483C28.6437 8.93847 28.3483 8.85586 28.0473 8.85602V8.85547Z" fill="#AD1E1E"/>
<path d="M41.7898 8.85558C41.3893 8.85544 41.0028 9.00229 40.7034 9.26827C40.8155 9.39821 41.1985 9.62236 41.7913 9.62236C42.0237 9.62236 42.2467 9.7147 42.411 9.87906C42.5754 10.0434 42.6677 10.2664 42.6677 10.4988C42.6677 10.7312 42.5754 10.9542 42.411 11.1185C42.2467 11.2829 42.0237 11.3752 41.7913 11.3752C41.2571 11.3802 40.7283 11.268 40.2422 11.0466C40.3428 11.3304 40.5194 11.581 40.7528 11.7712C40.9862 11.9614 41.2674 12.0838 41.5657 12.1249C41.864 12.1661 42.1678 12.1245 42.444 12.0047C42.7202 11.8848 42.9582 11.6914 43.1319 11.4455C43.3056 11.1995 43.4083 10.9106 43.4289 10.6102C43.4495 10.3098 43.3871 10.0096 43.2486 9.74226C43.1101 9.47493 42.9007 9.25083 42.6434 9.09443C42.3862 8.93804 42.0909 8.85548 41.7898 8.85558Z" fill="#AD1E1E"/>
</svg>
