<svg width="26" height="26" viewBox="0 0 26 26" fill="none" xmlns="http://www.w3.org/2000/svg">
<path d="M10.4189 12.1328C9.98946 11.7034 9.34528 11.7034 8.91584 12.1328C8.48639 12.5623 8.48639 13.2065 8.91584 13.6359L12.1367 16.8568C12.3514 17.0715 12.5661 17.1789 12.8882 17.1789C13.2103 17.1789 13.425 17.0715 13.6398 16.8568L21.1551 8.26781C21.4772 7.731 21.4772 7.08683 20.9404 6.76474C20.5109 6.44266 19.8668 6.44266 19.5447 6.87211L12.8882 14.4948L10.4189 12.1328Z" fill="#0267AC"/>
<path d="M22.5472 11.811C21.903 11.811 21.4736 12.2405 21.4736 12.8846C21.4736 17.6086 17.6086 21.4736 12.8846 21.4736C8.16071 21.4736 4.29568 17.6086 4.29568 12.8846C4.29568 10.63 5.15457 8.4828 6.765 6.87237C8.37543 5.15457 10.5227 4.29568 12.8846 4.29568C13.5288 4.29568 14.2803 4.40304 14.9245 4.5104C15.4613 4.72513 16.1055 4.40304 16.3202 3.75887C16.5349 3.1147 16.1055 2.68525 15.5687 2.47052H15.4613C14.6024 2.2558 13.7435 2.14844 12.8846 2.14844C6.97973 2.14844 2.14844 6.97973 2.14844 12.992C2.14844 15.7834 3.32942 18.5748 5.26194 20.5073C7.30181 22.5472 9.98586 23.6208 12.7773 23.6208C18.6822 23.6208 23.5135 18.7896 23.5135 12.8846C23.6208 12.2405 23.084 11.811 22.5472 11.811Z" fill="#0267AC"/>
</svg>
