<svg width="57" height="57" viewBox="0 0 57 57" fill="none" xmlns="http://www.w3.org/2000/svg">
<g clip-path="url(#clip0_2576_1316)">
<path d="M29.4271 27.4405L27.0686 25.082L24.1698 27.9809L26.004 29.815C26.8658 30.6769 26.2554 32.1505 25.0366 32.1505H15.1353C14.3064 32.1505 13.55 31.6283 13.3045 30.8366C13.0877 30.1375 13.3366 29.5207 13.7751 29.0961C13.945 28.9316 13.777 28.6521 13.5504 28.7196C11.3571 29.3725 9.76512 31.4217 9.80544 33.8364C9.85342 36.7119 12.2595 38.9912 15.1354 38.9912H24.6405C28.3782 38.9912 31.4082 35.9612 31.4082 32.2235C31.4082 30.4295 30.6957 28.7091 29.4271 27.4405Z" fill="#97E4F9"/>
<path d="M29.4283 27.4401L27.4179 25.4297C28.6865 26.6983 29.3994 28.419 29.3996 30.2132C29.4002 33.9507 26.3705 36.9809 22.633 36.9809H13.0405C12.1089 36.9809 11.2348 36.7369 10.4766 36.3111C11.3749 37.9103 13.0863 38.9915 15.0512 38.9915H24.6437C28.3812 38.9915 31.4109 35.9614 31.4103 32.2239C31.41 30.4296 30.6971 28.7089 29.4283 27.4401Z" fill="#62D8F9"/>
<path d="M32.6052 50.3931H9.80345L8.7378 39.7367C8.69793 39.3381 9.01103 38.9922 9.41157 38.9922H32.997C33.3976 38.9922 33.7106 39.3381 33.6707 39.7367L32.6052 50.3931Z" fill="#FCEED9"/>
<path d="M33.6713 39.7367L32.6059 50.3924H9.80323L8.7378 39.7367C8.69793 39.3381 9.01103 38.9922 9.41157 38.9922H32.9975C33.3981 38.9922 33.7112 39.3381 33.6713 39.7367Z" fill="#FCEED9"/>
<path d="M54.9626 45.7188H41.2209C40.0114 45.7188 38.8514 46.1993 37.9963 47.0545L34.9882 50.0625C34.7765 50.2742 34.4895 50.393 34.1902 50.393H8.66358C8.03397 50.393 7.52344 50.9035 7.52344 51.5332V54.9534C7.52344 55.583 8.03386 56.0935 8.66358 56.0935H36.6982C36.9975 56.0935 37.2847 55.9747 37.4962 55.763L41.84 51.4192H54.9624C55.5858 51.4192 56.0911 50.914 56.0911 50.2906V46.8474C56.0913 46.224 55.586 45.7188 54.9626 45.7188Z" fill="#FB636F"/>
<path d="M35.3301 53.811H7.52344V54.951C7.52344 55.5807 8.03386 56.0912 8.66358 56.0912H36.6982C36.9975 56.0912 37.2847 55.9723 37.4962 55.7607L41.84 51.4169H54.9624C55.5858 51.4169 56.0911 50.9116 56.0911 50.2883V49.1367H41.4165C40.8117 49.1367 40.2317 49.377 39.8041 49.8046L36.1282 53.4805C35.9166 53.6921 35.6294 53.811 35.3301 53.811Z" fill="#FA4954"/>
<path d="M23.92 11.4801L10.5685 24.8305C10.3913 24.7786 10.2276 24.6826 10.0933 24.5495L10.0922 24.5484L0.330528 14.7857C0.118868 14.574 0 14.287 0 13.9877V1.12864C0 0.50516 0.505379 -0.000109538 1.12886 1.78124e-08L12.1664 0.00197201C12.4658 0.00197201 12.7527 0.120949 12.9643 0.3325L23.6368 11.0049C23.771 11.1393 23.8669 11.3029 23.92 11.4801Z" fill="#97E4F9"/>
<path d="M23.6373 11.0062L21.8343 9.20312L11.4025 19.6994C10.9573 20.1446 10.2354 20.1446 9.79019 19.6994L0 9.90932V13.9884C0.000109555 14.2876 0.118977 14.5745 0.330528 14.7862L3.24711 17.7031L10.0995 24.5554C10.2327 24.6856 10.3938 24.7799 10.5685 24.8311L12.967 22.4328L23.9198 11.48C23.8667 11.3033 23.7711 11.1402 23.6373 11.0062Z" fill="#62D8F9"/>
<path d="M23.9626 11.9134L23.2109 19.281L20.7923 21.6984L18.3736 24.1171L11.0071 24.8687C10.8581 24.8845 10.7103 24.8698 10.5703 24.827L23.9218 11.4766C23.9638 11.6166 23.9785 11.7644 23.9626 11.9134Z" fill="#D5CED5"/>
<path d="M18.3711 24.1182L23.2081 19.2812L27.2704 23.3436C27.6982 23.7714 27.6982 24.4651 27.2704 24.8929L23.9827 28.1805C23.5549 28.6084 22.8612 28.6084 22.4334 28.1805L18.3711 24.1182Z" fill="#E3DFE2"/>
<path d="M27.2729 24.8954C27.7004 24.4679 27.7007 23.7749 27.2738 23.347L26.3604 22.4336L21.5234 27.2706L22.4358 28.183C22.8636 28.6108 23.5573 28.6108 23.9851 28.183L27.2729 24.8954Z" fill="#D5CED5"/>
<path d="M31.5285 38.9922L30.6736 47.5423C30.6153 48.1252 30.1248 48.569 29.5391 48.569H28.8913V45.8333C28.8913 45.3649 28.5122 44.9868 28.0449 44.9868C27.5777 44.9868 27.1985 45.3649 27.1985 45.8333V48.569H24.3306V45.8685C24.3306 45.4053 23.9739 45.0015 23.511 44.9873C23.0314 44.9725 22.6377 45.356 22.6377 45.8334V48.5691H19.771V45.868C19.771 45.404 19.4125 45.0001 18.9487 44.9873C18.4692 44.974 18.0781 45.357 18.0781 45.8334V48.5691H15.2103V45.8334C15.2103 45.365 14.831 44.9869 14.3639 44.9869C13.8966 44.9869 13.5174 45.365 13.5174 45.8334V48.5691H9.62109L9.8035 50.3932H32.6053L33.6709 39.7368C33.7108 39.3382 33.3977 38.9923 32.9971 38.9923H31.5285V38.9922Z" fill="#FCDDAF"/>
</g>
<defs>
<clipPath id="clip0_2576_1316">
<rect width="56.0923" height="56.0923" fill="white"/>
</clipPath>
</defs>
</svg>
