<svg width="60" height="60" viewBox="0 0 60 60" fill="none" xmlns="http://www.w3.org/2000/svg">
<path d="M20.0001 13.7481V11.2481C19.9274 10.7387 19.9743 10.2194 20.137 9.73127C20.2998 9.24315 20.5739 8.79962 20.9378 8.43578C21.3016 8.07195 21.7451 7.79781 22.2333 7.63505C22.7214 7.4723 23.2407 7.4254 23.7501 7.49808H36.2501C36.7594 7.4254 37.2788 7.4723 37.7669 7.63505C38.255 7.79781 38.6985 8.07195 39.0624 8.43578C39.4262 8.79962 39.7003 9.24315 39.8631 9.73127C40.0258 10.2194 40.0727 10.7387 40.0001 11.2481V13.7481C40.0727 14.2575 40.0258 14.7768 39.8631 15.2649C39.7003 15.753 39.4262 16.1965 39.0624 16.5604C38.6985 16.9242 38.255 17.1984 37.7669 17.3611C37.2788 17.5239 36.7594 17.5708 36.2501 17.4981H23.7501C23.2407 17.5708 22.7214 17.5239 22.2333 17.3611C21.7451 17.1984 21.3016 16.9242 20.9378 16.5604C20.5739 16.1965 20.2998 15.753 20.137 15.2649C19.9743 14.7768 19.9274 14.2575 20.0001 13.7481ZM50.0001 19.9981V44.9981C50.1454 46.0168 50.0516 47.0555 49.7261 48.0317C49.4006 49.0079 48.8523 49.895 48.1247 50.6227C47.397 51.3503 46.5099 51.8986 45.5337 52.2241C44.5574 52.5496 43.5188 52.6434 42.5001 52.4981H17.5001C16.4813 52.6434 15.4427 52.5496 14.4665 52.2241C13.4902 51.8986 12.6031 51.3503 11.8755 50.6227C11.1478 49.895 10.5995 49.0079 10.274 48.0317C9.9485 47.0555 9.85471 46.0168 10.0001 44.9981V19.9981C10.0001 15.6431 11.8801 13.1906 15.6626 12.6406C15.7344 12.6323 15.8073 12.6388 15.8765 12.6599C15.9457 12.6809 16.0099 12.716 16.065 12.7629C16.1201 12.8098 16.165 12.8675 16.1968 12.9325C16.2286 12.9975 16.2468 13.0683 16.2501 13.1406V13.7481C16.1813 14.7507 16.3281 15.7565 16.6807 16.6976C17.0333 17.6388 17.5834 18.4934 18.2941 19.2041C19.0047 19.9147 19.8594 20.4649 20.8005 20.8174C21.7417 21.17 22.7474 21.3169 23.7501 21.2481H36.2501C37.2527 21.3169 38.2585 21.17 39.1996 20.8174C40.1407 20.4649 40.9954 19.9147 41.7061 19.2041C42.4167 18.4934 42.9668 17.6388 43.3194 16.6976C43.672 15.7565 43.8189 14.7507 43.7501 13.7481V13.1531C43.7534 13.0808 43.7715 13.01 43.8033 12.945C43.8352 12.88 43.88 12.8223 43.9351 12.7754C43.9902 12.7285 44.0544 12.6934 44.1236 12.6724C44.1929 12.6513 44.2657 12.6448 44.3376 12.6531C48.1201 13.1906 50.0001 15.6431 50.0001 19.9981ZM37.5751 27.8381C37.2232 27.4876 36.7467 27.2908 36.2501 27.2908C35.7534 27.2908 35.277 27.4876 34.9251 27.8381L27.9251 34.8381L25.0751 31.9981C24.902 31.8191 24.6951 31.6763 24.4663 31.5782C24.2374 31.48 23.9914 31.4284 23.7424 31.4264C23.4935 31.4243 23.2466 31.4719 23.0162 31.5663C22.7858 31.6607 22.5765 31.8 22.4006 31.9761C22.2246 32.1522 22.0855 32.3617 21.9913 32.5921C21.8971 32.8226 21.8498 33.0695 21.8521 33.3185C21.8544 33.5674 21.9062 33.8135 22.0046 34.0422C22.103 34.2709 22.2459 34.4777 22.4251 34.6506L26.5926 38.8156C26.7663 38.99 26.9728 39.1285 27.2002 39.2229C27.4276 39.3174 27.6713 39.366 27.9176 39.366C28.1638 39.366 28.4076 39.3174 28.635 39.2229C28.8623 39.1285 29.0688 38.99 29.2426 38.8156L37.5751 30.4981C37.7504 30.3238 37.8896 30.1166 37.9846 29.8883C38.0795 29.6601 38.1284 29.4153 38.1284 29.1681C38.1284 28.9209 38.0795 28.6761 37.9846 28.4478C37.8896 28.2196 37.7504 28.0123 37.5751 27.8381Z" fill="#0267AC"/>
</svg>
