<svg width="77" height="77" viewBox="0 0 77 77" fill="none" xmlns="http://www.w3.org/2000/svg">
<rect width="76.6895" height="76.6895" rx="38.3448" fill="#F1F9FD"/>
<g clip-path="url(#clip0_2576_1931)">
<path d="M41.8984 36.8324C41.8053 36.8324 41.7144 36.8047 41.6372 36.7528C41.56 36.701 41.4999 36.6273 41.4646 36.5413C41.4294 36.4552 41.4206 36.3606 41.4392 36.2694C41.4579 36.1783 41.5033 36.0948 41.5696 36.0296C42.1896 35.4199 43.2259 35.3692 44.149 35.9046C44.2023 35.9355 44.2491 35.9766 44.2865 36.0255C44.324 36.0745 44.3515 36.1304 44.3673 36.1899C44.3832 36.2495 44.3872 36.3116 44.379 36.3727C44.3709 36.4339 44.3508 36.4928 44.3199 36.5461C44.289 36.5995 44.2479 36.6462 44.1989 36.6837C44.15 36.7211 44.0941 36.7486 44.0345 36.7645C43.975 36.7803 43.9128 36.7843 43.8517 36.7762C43.7906 36.768 43.7317 36.748 43.6784 36.7171C43.2334 36.4586 42.589 36.3421 42.2274 36.6996C42.1394 36.7852 42.0212 36.8329 41.8984 36.8324Z" fill="#0267AC"/>
<path d="M32.4061 33.2832C32.8424 33.0113 33.3289 32.8299 33.8367 32.7499C34.3446 32.6698 34.8633 32.6927 35.3621 32.8172C35.4624 32.8465 35.5486 32.9114 35.6044 32.9997C35.6603 33.088 35.682 33.1937 35.6655 33.2969C35.6497 33.4049 35.5935 33.5029 35.5082 33.571C35.4229 33.6391 35.3149 33.6723 35.2061 33.6638C34.4963 33.5893 33.7791 33.6321 33.0833 33.7907C32.5933 33.9407 32.3839 33.8354 32.2961 33.6969C32.2577 33.627 32.2477 33.5451 32.2682 33.468C32.2887 33.391 32.3381 33.3248 32.4061 33.2832Z" fill="#0267AC"/>
<path d="M44.827 33.2832C44.3907 33.0113 43.9042 32.8299 43.3964 32.7499C42.8886 32.6698 42.3698 32.6927 41.8711 32.8173C41.7708 32.8465 41.6846 32.9114 41.6288 32.9998C41.573 33.0881 41.5513 33.1938 41.5679 33.2969C41.5836 33.4048 41.6397 33.5027 41.7248 33.5708C41.8099 33.6389 41.9177 33.6722 42.0264 33.6638C42.7361 33.5893 43.4531 33.6322 44.1489 33.7907C44.6389 33.9407 44.8486 33.8354 44.9361 33.6969C44.9745 33.6272 44.9847 33.5453 44.9644 33.4682C44.9441 33.3912 44.8949 33.3249 44.827 33.2832Z" fill="#0267AC"/>
<path d="M35.1478 36.83C35.0247 36.8302 34.9065 36.7818 34.819 36.6953C34.4571 36.3394 33.8131 36.4544 33.3674 36.7128C33.2597 36.775 33.1317 36.7918 33.0115 36.7595C32.8914 36.7273 32.789 36.6487 32.7268 36.5409C32.6647 36.4332 32.6479 36.3052 32.6801 36.185C32.7123 36.0649 32.791 35.9625 32.8987 35.9003C33.8212 35.3653 34.8581 35.4162 35.4778 36.0253C35.5441 36.0906 35.5894 36.1741 35.6081 36.2652C35.6268 36.3563 35.618 36.4509 35.5827 36.537C35.5475 36.6231 35.4874 36.6967 35.4102 36.7486C35.3329 36.8004 35.242 36.8281 35.149 36.8281L35.1478 36.83Z" fill="#0267AC"/>
<path d="M41.6313 39.8078C41.4597 39.6207 41.2503 39.4722 41.017 39.372C40.7837 39.2719 40.5318 39.2224 40.2779 39.2268H36.6142C36.3603 39.2224 36.1084 39.2719 35.8751 39.372C35.6418 39.4722 35.4324 39.6207 35.2607 39.8078C35.1387 39.9442 35.048 40.1056 34.995 40.2808C34.9421 40.456 34.9281 40.6407 34.9542 40.8218C35.2648 42.9087 36.5376 44.1056 38.446 44.1056C40.3545 44.1056 41.6273 42.9087 41.937 40.8225C41.9632 40.6413 41.9494 40.4565 41.8966 40.2813C41.8438 40.106 41.7533 39.9443 41.6313 39.8078ZM38.446 43.1681C38.0287 43.1963 37.6116 43.109 37.2407 42.9157C36.8697 42.7225 36.5592 42.4307 36.3432 42.0725H40.5501C40.3341 42.4309 40.0234 42.7229 39.6521 42.9162C39.2809 43.1095 38.8636 43.1966 38.446 43.1681ZM40.921 41.135H35.971C35.936 40.9912 35.9048 40.8425 35.881 40.6834C35.8755 40.6356 35.8807 40.5871 35.8963 40.5415C35.9118 40.4959 35.9374 40.4544 35.971 40.42C36.0547 40.3352 36.1551 40.2688 36.2658 40.2248C36.3765 40.1808 36.4951 40.1602 36.6142 40.1643H40.2779C40.3969 40.1602 40.5156 40.1808 40.6262 40.2248C40.7369 40.2688 40.8373 40.3352 40.921 40.42C40.9547 40.4545 40.9803 40.496 40.9958 40.5417C41.0114 40.5873 41.0166 40.6358 41.011 40.6837C40.9873 40.8425 40.956 40.9912 40.921 41.135Z" fill="#0267AC"/>
<path d="M29.2468 49.7799C29.1211 49.7799 28.9977 49.746 28.8896 49.6819C28.7814 49.6178 28.6925 49.5258 28.6322 49.4155L28.1968 48.6195C28.0751 48.3962 27.8915 48.2127 27.6681 48.0911L26.8725 47.6558C26.7621 47.5954 26.67 47.5065 26.6058 47.3983C26.5417 47.2901 26.5078 47.1666 26.5078 47.0408C26.5078 46.915 26.5417 46.7915 26.6058 46.6833C26.67 46.5751 26.7621 46.4862 26.8725 46.4258L27.6681 45.9905C27.8915 45.8687 28.075 45.6851 28.1968 45.4617L28.6318 44.6655C28.6921 44.5551 28.7811 44.463 28.8892 44.3988C28.9974 44.3346 29.1209 44.3008 29.2467 44.3008C29.3725 44.3008 29.4959 44.3346 29.6041 44.3988C29.7123 44.463 29.8012 44.5551 29.8615 44.6655L30.2968 45.4608C30.4187 45.6842 30.6022 45.8677 30.8256 45.9895L31.6212 46.4245C31.7317 46.4849 31.8238 46.5738 31.8881 46.6821C31.9523 46.7903 31.9862 46.9139 31.9862 47.0397C31.9862 47.1656 31.9523 47.2891 31.8881 47.3973C31.8238 47.5056 31.7317 47.5945 31.6212 47.6549L30.8259 48.0902C30.6025 48.2118 30.4189 48.3953 30.2972 48.6186L29.8622 49.4155C29.8017 49.5258 29.7127 49.6178 29.6044 49.682C29.4962 49.7461 29.3727 49.7799 29.2468 49.7799ZM27.7018 47.0405L28.1181 47.2683C28.4985 47.4764 28.8113 47.7891 29.0193 48.1695L29.2468 48.5861L29.4747 48.1695C29.6826 47.7893 29.995 47.4766 30.375 47.2683L30.7912 47.0405L30.375 46.8133C29.9945 46.6051 29.6818 46.2922 29.4737 45.9117L29.2462 45.4955L29.0184 45.9117C28.8104 46.2923 28.4976 46.6052 28.1172 46.8133L27.7018 47.0405Z" fill="#0267AC"/>
<path d="M51.7931 55.4961C51.7222 55.4959 51.6516 55.4897 51.5818 55.4777C50.8615 55.3558 50.7596 54.3796 50.6412 53.2493C50.6099 52.9483 50.5655 52.5227 50.5034 52.2024C50.4409 52.5227 50.3971 52.9483 50.3656 53.2489C50.2471 54.3796 50.1449 55.3558 49.4249 55.4777C48.3543 55.6577 48.1165 54.4874 47.9249 53.5471C47.8397 52.9831 47.6736 52.4343 47.4318 51.9177C46.6374 50.5058 45.8674 48.5196 46.7093 47.0739C47.3921 45.9024 48.9574 45.7708 50.0762 46.3196C50.2091 46.3842 50.3549 46.4178 50.5027 46.4178C50.6505 46.4178 50.7964 46.3842 50.9293 46.3196C52.0484 45.7705 53.614 45.9021 54.2965 47.0733C55.1402 48.518 54.3684 50.5043 53.5743 51.9171C53.3322 52.4337 53.1661 52.9826 53.0812 53.5468C52.903 54.4221 52.6843 55.4961 51.7931 55.4961ZM50.5034 50.8968C51.3377 50.8968 51.4524 51.9905 51.5737 53.1518C51.6026 53.6213 51.6803 54.0865 51.8055 54.5399C51.9484 54.4124 52.0868 53.7333 52.1627 53.3602C52.263 52.6998 52.4633 52.0585 52.7565 51.4583C53.3087 50.4768 54.1371 48.6636 53.4862 47.5471C53.084 46.8568 52.0599 46.8102 51.3424 47.1624C51.0808 47.2898 50.7936 47.356 50.5026 47.356C50.2116 47.356 49.9244 47.2898 49.6627 47.1624C48.944 46.8099 47.9215 46.8568 47.519 47.5471C46.8681 48.6639 47.6968 50.4771 48.249 51.4583C48.5421 52.0584 48.7423 52.6996 48.8427 53.3599C48.9187 53.7349 49.0571 54.4118 49.2002 54.5399C49.3254 54.0863 49.4033 53.621 49.4324 53.1514C49.5543 51.9921 49.6693 50.8968 50.5034 50.8968Z" fill="#0267AC"/>
<path d="M56.3887 45.0914C55.693 44.308 54.8448 43.6748 53.896 43.2303C52.9473 42.7858 51.9178 42.5395 50.8706 42.5064C49.1485 42.4467 47.4575 42.9758 46.0765 44.0064C46.5273 43.3519 46.8933 42.6429 47.1659 41.8964C47.3078 41.9205 47.4514 41.9328 47.5953 41.933C48.0098 41.9303 48.4189 41.8391 48.7953 41.6655C49.6623 41.2642 50.3389 40.5412 50.6819 39.6495C51.1603 38.3773 50.9384 37.1717 50.1356 36.4673C50.3824 35.6579 50.5764 34.8332 50.7162 33.9986C51.0856 33.9086 51.4193 33.7095 51.674 33.4273C51.9597 33.0882 52.1742 32.6951 52.3048 32.2715C52.4355 31.8478 52.4797 31.4022 52.4347 30.9611C52.0247 25.1827 45.8172 18.4648 38.43 18.4648C31.059 18.4648 24.8647 25.1836 24.4547 30.9611C24.4096 31.4022 24.4536 31.8479 24.5841 32.2717C24.7146 32.6954 24.9289 33.0887 25.2144 33.428C25.4702 33.7114 25.8057 33.9108 26.1769 34.0002C26.3192 34.8335 26.5131 35.6571 26.7575 36.4664C25.9503 37.1755 25.7294 38.3795 26.2072 39.6495C26.5502 40.5412 27.227 41.2643 28.094 41.6655C28.4704 41.8392 28.8795 41.9307 29.294 41.9336C29.4395 41.9335 29.5847 41.9211 29.7281 41.8964C31.0294 45.4486 33.9356 47.0364 35.4619 47.6452C35.3225 49.0083 34.9231 49.1092 34.2897 49.2661C34.0863 49.3122 33.8862 49.372 33.6909 49.4452C32.742 49.814 31.817 50.2419 30.9215 50.7264C29.8589 51.3016 28.8499 51.971 27.9069 52.7264C27.6736 52.9167 27.4901 53.1608 27.3722 53.4377C27.2542 53.7146 27.2052 54.016 27.2296 54.316C27.2539 54.616 27.3507 54.9056 27.5118 55.1599C27.6728 55.4142 27.8932 55.6256 28.154 55.7758C29.9756 56.8186 33.239 58.062 38.4431 58.062C42.0612 58.062 44.7387 57.4602 46.6512 56.7433C47.8534 57.4763 49.2351 57.8618 50.6431 57.857C50.7278 57.857 50.8131 57.857 50.8984 57.853C52.3544 57.804 53.7665 57.3418 54.9696 56.5203C56.1728 55.6989 57.1173 54.552 57.693 53.2138C58.2688 51.8755 58.4518 50.4011 58.2209 48.9627C57.9899 47.5242 57.3545 46.1812 56.3887 45.0905V45.0914ZM49.8037 39.3217C49.5467 39.9793 49.0472 40.5132 48.4081 40.8133C48.1091 40.9538 47.7789 41.0153 47.4494 40.9917C47.5912 40.4248 47.7222 39.7202 47.7931 39.2452C48.1058 38.955 48.5122 38.7867 48.9384 38.7708C49.0627 38.7755 49.1838 38.7306 49.275 38.646C49.3663 38.5614 49.4201 38.444 49.4248 38.3197C49.4295 38.1954 49.3846 38.0743 49.3 37.9831C49.2154 37.8918 49.0981 37.838 48.9737 37.8333C48.6136 37.8348 48.2577 37.9101 47.9278 38.0545C47.9656 37.6483 47.9987 37.2127 48.0265 36.7642C48.4772 36.6976 48.937 36.7912 49.3256 37.0289C49.9981 37.4423 50.1803 38.3217 49.8037 39.3217ZM48.1028 33.4958C48.6154 33.7766 49.1797 33.9502 49.7615 34.0058C49.6522 34.592 49.4828 35.4086 49.3087 35.9808C48.9132 35.8407 48.4925 35.7862 48.0744 35.8208C48.1075 35.0277 48.1197 34.228 48.1028 33.4958ZM26.5403 33.1039C26.4178 33.0982 26.2979 33.0675 26.1878 33.0136C26.0777 32.9597 25.9798 32.8837 25.9003 32.7905C25.5039 32.294 25.3203 31.6607 25.3897 31.0292C25.7715 25.6542 31.5509 19.4042 38.43 19.4042C45.3256 19.4042 51.1175 25.6542 51.4997 31.0292C51.5687 31.6606 51.3846 32.2936 50.9878 32.7895C50.9083 32.8828 50.8105 32.9587 50.7005 33.0126C50.5904 33.0665 50.4705 33.0973 50.3481 33.103H50.3169C49.295 33.0948 48.4106 32.7473 47.9503 32.168C47.7606 31.9407 47.6338 31.6677 47.5825 31.3761C47.5603 31.2583 47.494 31.1535 47.397 31.0832C47.3 31.0129 47.1797 30.9824 47.0609 30.9979C46.9421 31.0135 46.8338 31.0739 46.7582 31.1669C46.6826 31.2598 46.6454 31.3782 46.6544 31.4977C46.6559 31.6233 46.632 31.748 46.5839 31.864C46.5358 31.9801 46.4646 32.0852 46.3747 32.173C46.0537 32.4608 45.4475 32.5314 44.6165 32.3755C44.1218 32.31 43.6605 32.0896 43.2986 31.746C42.9367 31.4023 42.6928 30.953 42.6019 30.4623C42.5928 30.4111 42.5784 30.3152 42.5731 30.2945C42.5421 30.1873 42.4738 30.0947 42.3805 30.0334C42.2873 29.972 42.1752 29.9459 42.0645 29.9598C41.9537 29.9737 41.8516 30.0267 41.7764 30.1092C41.7012 30.1917 41.658 30.2983 41.6544 30.4098C41.6329 30.6302 41.525 30.8331 41.3544 30.9742C40.6853 31.638 39.1669 32.1114 38.4525 32.1114H38.44C37.7444 32.1183 36.2097 31.6427 35.5372 30.9745C35.3663 30.8334 35.2584 30.6304 35.2369 30.4098C35.2356 30.3016 35.1969 30.1971 35.1273 30.1141C35.0577 30.0312 34.9616 29.9748 34.8552 29.9547C34.7488 29.9346 34.6387 29.952 34.5436 30.0038C34.4486 30.0557 34.3744 30.1389 34.3337 30.2392C34.319 30.2767 34.2947 30.4308 34.2781 30.5108C34.1786 30.9913 33.932 31.429 33.5726 31.7631C33.2131 32.0972 32.7587 32.3112 32.2722 32.3755C31.4487 32.5317 30.8434 32.462 30.5197 32.1789C30.4267 32.0915 30.3531 31.9857 30.3033 31.8683C30.2536 31.7508 30.2289 31.6243 30.2309 31.4967C30.2398 31.3771 30.2025 31.2587 30.1267 31.1658C30.0509 31.0728 29.9423 31.0125 29.8234 30.9972C29.7044 30.9819 29.5842 31.0127 29.4873 31.0833C29.3904 31.154 29.3242 31.2591 29.3025 31.377C29.2495 31.6703 29.1233 31.9453 28.9356 32.1767C28.4731 32.7492 27.5878 33.0955 26.5415 33.103L26.5403 33.1039ZM28.8144 35.8217C28.3978 35.7863 27.9785 35.8396 27.584 35.978C27.4109 35.4058 27.2403 34.5908 27.1309 34.0055C27.7117 33.9489 28.2751 33.7754 28.7872 33.4955C28.7694 34.228 28.7812 35.0273 28.8144 35.8217ZM28.4812 40.8127C27.8422 40.5127 27.3426 39.9791 27.0853 39.3217C26.7103 38.3217 26.8928 37.4439 27.574 37.0248C27.9604 36.7901 28.417 36.6985 28.864 36.7661C28.8903 37.1883 28.9209 37.6008 28.9559 37.9848C28.6771 37.884 28.3827 37.8328 28.0862 37.8336C27.9619 37.8359 27.8436 37.8875 27.7573 37.9771C27.6711 38.0666 27.6239 38.1868 27.6262 38.3111C27.6286 38.4354 27.6802 38.5537 27.7697 38.64C27.8593 38.7263 27.9794 38.7734 28.1037 38.7711H28.1231C28.4642 38.7817 28.7951 38.8902 29.0762 39.0836C29.1387 39.548 29.2831 40.3577 29.4422 40.9917C29.1118 41.0154 28.7809 40.9537 28.4812 40.8127ZM30.469 41.1902C30.2589 40.4487 30.1022 39.6931 30.0003 38.9292C29.7522 36.8749 29.6706 34.8039 29.7565 32.7364C29.7972 32.7836 29.8406 32.8284 29.8865 32.8705C30.4412 33.368 31.3025 33.5111 32.4431 33.2973C32.9465 33.2194 33.4254 33.0278 33.8436 32.737C34.2618 32.4462 34.6082 32.064 34.8565 31.6192C34.8634 31.6261 34.869 31.6333 34.8762 31.6402C35.7606 32.5177 37.5325 33.0489 38.4219 33.0489H38.4572C39.3553 33.0489 41.1294 32.5177 42.014 31.6398C42.0209 31.633 42.0269 31.6261 42.0334 31.6192C42.2817 32.0639 42.628 32.4461 43.0461 32.7369C43.4641 33.0277 43.943 33.2193 44.4462 33.2973C45.5894 33.5111 46.4484 33.368 47.0022 32.8705C47.0485 32.8278 47.0922 32.7824 47.1331 32.7345C47.2192 34.8027 47.1378 36.8745 46.8897 38.9295C46.788 39.6947 46.6313 40.4515 46.4209 41.1942C46.0065 42.5203 45.2708 43.7234 44.2794 44.6967L43.5069 44.4636C43.3485 44.4154 43.1793 44.4166 43.0217 44.4672C42.8641 44.5178 42.7258 44.6153 42.6251 44.7467C42.5244 44.878 42.4663 45.037 42.4585 45.2023C42.4506 45.3676 42.4935 45.5314 42.5812 45.6717L42.7356 45.9198C42.1159 46.3173 41.4538 46.6444 40.7615 46.8952C40.0194 47.1719 39.2365 47.3233 38.4447 47.343C37.6524 47.3232 36.869 47.1716 36.1265 46.8945C34.8209 46.4323 31.6562 44.9502 30.469 41.1902ZM43.0062 49.3777C42.869 49.3336 42.7344 49.2958 42.6125 49.2655C41.9781 49.1092 41.5784 49.0077 41.4397 47.6405C42.0633 47.3872 42.6626 47.0776 43.23 46.7155L43.4028 46.9927C43.4477 47.0642 43.4754 47.1451 43.4838 47.2292C43.4922 47.3132 43.4811 47.398 43.4512 47.477C43.2221 48.0891 43.0726 48.7281 43.0062 49.3783V49.3777ZM34.035 50.3167C34.1915 50.259 34.3518 50.2118 34.5147 50.1755C35.4156 49.9523 36.1325 49.6298 36.3659 47.9523C37.0405 48.1565 37.74 48.2668 38.4447 48.2802C39.1537 48.2666 39.8575 48.155 40.5359 47.9486C40.7684 49.6292 41.4859 49.9523 42.3875 50.1755C42.5503 50.2118 42.7106 50.259 42.8672 50.3167C42.9015 50.3302 42.934 50.3439 42.9672 50.3577C42.9722 50.5358 42.9815 50.7136 42.9984 50.8905C40.4822 53.6717 35.8531 54.148 33.2919 53.1592C32.6525 52.9123 31.63 52.3623 31.6787 51.3883C32.4442 50.989 33.2308 50.6315 34.035 50.3173V50.3167ZM38.4431 57.1248C33.445 57.1248 30.3425 55.9489 28.62 54.9627C28.4911 54.8881 28.3822 54.7833 28.3027 54.6574C28.2232 54.5314 28.1755 54.3881 28.1636 54.2396C28.1518 54.0912 28.1761 53.942 28.2346 53.8051C28.2931 53.6681 28.3839 53.5474 28.4994 53.4533C29.2187 52.8741 29.9806 52.3499 30.7787 51.8852C30.9553 52.7939 31.7103 53.5536 32.954 54.0339C33.9644 54.3958 35.0319 54.5724 36.105 54.5552C38.5112 54.5552 41.2612 53.7886 43.1915 52.0258C43.5281 53.384 44.2283 54.6248 45.2169 55.6152C45.3806 55.7783 45.5509 55.932 45.7256 56.0783C43.3696 56.8141 40.911 57.1677 38.4431 57.1255V57.1248ZM57.3494 50.8123C57.2591 51.7684 56.9655 52.6942 56.4884 53.5276C56.0113 54.361 55.3616 55.0829 54.5829 55.6449C53.8041 56.2069 52.9143 56.596 51.973 56.7862C51.0317 56.9764 50.0606 56.9632 49.1248 56.7477C48.1889 56.5321 47.31 56.1191 46.5467 55.5362C45.7835 54.9534 45.1535 54.2142 44.6991 53.3682C44.2447 52.5222 43.9763 51.5888 43.9119 50.6306C43.8475 49.6725 43.9885 48.7116 44.3256 47.8123C44.4072 47.6037 44.4396 47.379 44.4203 47.1558C44.401 46.9325 44.3305 46.7167 44.2144 46.5252L43.6378 45.5986C43.6308 45.5878 43.6273 45.5751 43.6277 45.5623C43.6282 45.5495 43.6326 45.5371 43.6404 45.5268C43.6481 45.5166 43.6588 45.509 43.6711 45.505C43.6833 45.5011 43.6965 45.501 43.7087 45.5048L44.4509 45.728C44.7089 45.8046 44.9828 45.8106 45.244 45.7454C45.5051 45.6801 45.7439 45.546 45.9356 45.357C46.9231 44.3934 48.1827 43.7561 49.544 43.5312C50.9053 43.3064 52.3029 43.5048 53.5479 44.0997C54.7928 44.6947 55.8251 45.6574 56.5054 46.8578C57.1856 48.0583 57.481 49.4386 57.3515 50.8123H57.3494Z" fill="#0267AC"/>
<path d="M39.1334 38.1003C39.0531 38.1003 38.9742 38.0797 38.9041 38.0404C38.8341 38.0011 38.7753 37.9445 38.7334 37.8759C38.6722 37.8445 38.6043 37.8281 38.5355 37.8281C38.4666 37.8281 38.3988 37.8445 38.3375 37.8759C38.2842 37.9631 38.2039 38.0305 38.1088 38.0679C38.0137 38.1052 37.9089 38.1105 37.8106 38.0828C37.7122 38.0551 37.6256 37.9961 37.5639 37.9146C37.5022 37.8331 37.4688 37.7338 37.4688 37.6316C37.4688 37.0225 38.3237 36.8906 38.5353 36.8906C38.8694 36.8906 39.6022 37.0781 39.6022 37.6316C39.6022 37.7559 39.5528 37.8751 39.4649 37.963C39.377 38.0509 39.2578 38.1003 39.1334 38.1003Z" fill="#0267AC"/>
<path d="M50.2874 50.3123C50.0164 50.3126 49.756 50.2072 49.5615 50.0185L49.3196 49.7841C49.2314 49.6974 49.1812 49.5793 49.1797 49.4556C49.1783 49.3319 49.2258 49.2127 49.3119 49.1238C49.398 49.035 49.5157 48.9838 49.6393 48.9814C49.763 48.979 49.8826 49.0256 49.9721 49.111L50.214 49.3454C50.2332 49.3642 50.259 49.3749 50.2859 49.3753C50.3128 49.3757 50.3388 49.3658 50.3586 49.3476L51.404 48.3923C51.4957 48.3084 51.6171 48.2644 51.7413 48.27C51.8655 48.2756 51.9824 48.3303 52.0663 48.4221C52.1502 48.5139 52.1942 48.6352 52.1886 48.7595C52.183 48.8837 52.1282 49.0006 52.0365 49.0844L50.9908 50.0398C50.7987 50.2154 50.5477 50.3127 50.2874 50.3123Z" fill="#0267AC"/>
</g>
<defs>
<clipPath id="clip0_2576_1931">
<rect width="40" height="40" fill="white" transform="translate(18.5312 18.2266)"/>
</clipPath>
</defs>
</svg>
