<svg width="60" height="60" viewBox="0 0 60 60" fill="none" xmlns="http://www.w3.org/2000/svg">
<path d="M30.1054 17C22.879 17 17 22.8791 17 30.1054C17 37.3317 22.879 43.2109 30.1054 43.2109C37.3318 43.2109 43.2109 37.3317 43.2109 30.1054C43.2109 22.8791 37.3318 17 30.1054 17ZM28.0613 36.4935L22.4398 30.872L24.484 28.8278L28.0613 32.4051L35.727 24.7394L37.7711 26.7836L28.0613 36.4935Z" fill="#0267AC"/>
<path d="M51.979 23.5012C50.7899 22.3121 50.135 20.7311 50.135 19.0495C50.135 13.984 46.0138 9.86279 40.9484 9.86279C39.2666 9.86279 37.6857 9.20791 36.4966 8.01888C34.7614 6.28376 32.4544 5.32812 30.0006 5.32812C27.5468 5.32812 25.2398 6.28376 23.5047 8.01888C22.3156 9.20791 20.7346 9.86279 19.0529 9.86279C13.9873 9.86279 9.86625 13.984 9.86625 19.0495C9.86625 20.7311 9.21136 22.3121 8.02224 23.5012C4.4405 27.0831 4.4405 32.9112 8.02224 36.4931C9.21136 37.6822 9.86625 39.2632 9.86625 40.9448C9.86625 46.0104 13.9874 50.1315 19.0529 50.1315C20.7346 50.1315 22.3155 50.7864 23.5047 51.9754C25.2398 53.7106 27.5468 54.6662 30.0006 54.6662C32.4544 54.6662 34.7614 53.7106 36.4966 51.9754C37.6856 50.7864 39.2666 50.1315 40.9484 50.1315C46.0139 50.1315 50.135 46.0104 50.135 40.9448C50.135 39.2632 50.7899 37.6822 51.979 36.4931C55.5608 32.9112 55.5608 27.0831 51.979 23.5012ZM45.9969 29.9972C45.9969 38.8175 38.821 45.9935 30.0006 45.9935C21.1802 45.9935 14.0043 38.8175 14.0043 29.9972C14.0043 21.1768 21.1802 14.0008 30.0006 14.0008C38.821 14.0008 45.9969 21.1768 45.9969 29.9972Z" fill="#0267AC"/>
</svg>
