<svg width="60" height="60" viewBox="0 0 60 60" fill="none" xmlns="http://www.w3.org/2000/svg">
<path fill-rule="evenodd" clip-rule="evenodd" d="M30.0021 1.875C31.7816 1.875 33.5436 2.22549 35.1876 2.90645C36.8316 3.58742 38.3253 4.58552 39.5836 5.84378C40.8419 7.10204 41.84 8.59581 42.5209 10.2398C43.2019 11.8838 43.5524 13.6458 43.5524 15.4253C43.5524 15.4566 43.5514 15.4877 43.5512 15.519L30.0959 28.9744C30.0646 28.9744 30.0335 28.9755 30.0021 28.9755C26.4084 28.9755 22.9618 27.5479 20.4206 25.0068C17.8794 22.4656 16.4518 19.019 16.4518 15.4253C16.4518 11.8315 17.8794 8.38495 20.4206 5.84378C22.9618 3.30261 26.4084 1.875 30.0021 1.875ZM23.6345 37.7558L25.7329 35.6582L30.9557 40.881L28.8573 42.9786C28.7473 43.0882 28.5983 43.1498 28.443 43.1498C28.2877 43.1498 28.1387 43.0882 28.0287 42.9786L23.6341 38.5841C23.5245 38.4741 23.463 38.3251 23.463 38.1698C23.463 38.0145 23.5245 37.8655 23.6341 37.7555L23.6345 37.7558ZM26.8923 34.498L32.1151 39.7208L52.1537 19.6822C52.845 18.9894 53.2331 18.0504 53.2325 17.0717C53.232 16.0929 52.8429 15.1544 52.1508 14.4623C51.4587 13.7702 50.5202 13.3812 49.5414 13.3807C48.5627 13.3801 47.6237 13.7682 46.9309 14.4595L26.8928 34.4975L26.8923 34.498ZM48.829 16.6243L40.5945 24.8589C40.4406 25.0127 40.3542 25.2214 40.3542 25.4389C40.3542 25.6565 40.4406 25.8652 40.5945 26.019C40.7483 26.1729 40.957 26.2593 41.1745 26.2593C41.3921 26.2593 41.6008 26.1729 41.7546 26.019L49.9891 17.7845C50.0653 17.7083 50.1257 17.6179 50.167 17.5183C50.2082 17.4188 50.2294 17.3121 50.2294 17.2044C50.2294 17.0967 50.2082 16.99 50.167 16.8905C50.1257 16.7909 50.0653 16.7005 49.9891 16.6243C49.913 16.5482 49.8225 16.4877 49.723 16.4465C49.6235 16.4053 49.5168 16.3841 49.4091 16.3841C49.3013 16.3841 49.1947 16.4053 49.0951 16.4465C48.9956 16.4877 48.9052 16.5482 48.829 16.6243ZM26.2044 43.4745L23.1387 40.4087L6.77344 56.7739C8.6025 58.603 14.2287 58.7725 16.9529 56.0482L22.6345 50.3672C22.7564 50.2453 22.7655 47.5334 22.8656 46.8138L26.2044 43.475V43.4745ZM26.9996 7.66676V12.4228H22.2443V18.4277H27.0002V23.1838H33.0052V18.4277H37.7612V12.4228H33.0046V7.66676H26.9996Z" fill="#0267AC"/>
</svg>
