<svg width="77" height="77" viewBox="0 0 77 77" fill="none" xmlns="http://www.w3.org/2000/svg">
<rect width="76.6895" height="76.6895" rx="38.3448" fill="#F1F9FD"/>
<g clip-path="url(#clip0_2576_1927)">
<path d="M54.7003 57.977H22.5391C21.5863 57.9759 20.6728 57.597 19.9991 56.9232C19.3254 56.2495 18.9464 55.336 18.9453 54.3833V39.7329C18.947 39.0611 19.1656 38.4078 19.5687 37.8703C19.9718 37.3328 20.5377 36.9399 21.1822 36.7501C22.1004 36.456 23.0622 36.3214 24.0259 36.352C27.695 36.4695 29.5809 39.4689 30.0812 42.0014C31.3478 48.4133 32.9906 51.5301 35.1047 51.5301H35.1069C36.3716 51.5301 36.7528 50.8289 37.1562 50.0876C37.4687 49.5151 37.8244 48.8751 38.6203 48.8876C39.4303 48.8733 39.7725 49.5151 40.0844 50.0876C40.4878 50.8289 40.8691 51.5289 42.1337 51.5301H42.1359C44.25 51.5301 45.8928 48.4136 47.1594 42.0014C47.6594 39.4701 49.5456 36.4701 53.2147 36.352C54.1778 36.321 55.139 36.4556 56.0566 36.7498C56.7013 36.9394 57.2675 37.3322 57.6708 37.8697C58.0741 38.4072 58.2929 39.0606 58.2947 39.7326V54.3833C58.2936 55.3362 57.9146 56.2497 57.2407 56.9235C56.5668 57.5972 55.6532 57.9761 54.7003 57.977ZM23.7291 37.2848C22.953 37.2903 22.1824 37.4136 21.4434 37.6508C20.9937 37.7833 20.5987 38.0576 20.3175 38.4328C20.0363 38.808 19.8838 39.264 19.8828 39.7329V54.3833C19.8836 55.0875 20.1638 55.7626 20.6617 56.2606C21.1597 56.7586 21.8348 57.0387 22.5391 57.0395H54.7003C55.4045 57.0387 56.0797 56.7586 56.5776 56.2606C57.0756 55.7626 57.3557 55.0875 57.3566 54.3833V39.7329C57.3555 39.264 57.2031 38.808 56.9218 38.4328C56.6406 38.0576 56.2457 37.7833 55.7959 37.6508C54.9725 37.3851 54.1095 37.2629 53.2447 37.2895C50.1256 37.3895 48.5125 39.9886 48.0794 42.1836C47.2072 46.5989 45.6419 52.4676 42.1359 52.4683H42.1331C40.3119 52.4664 39.6794 51.3051 39.2609 50.5367C38.9622 49.9876 38.8406 49.8179 38.6387 49.8258C38.6266 49.8258 38.6141 49.8258 38.6019 49.8258C38.4091 49.8217 38.2787 49.9876 37.9797 50.5367C37.5612 51.3051 36.9287 52.4664 35.1075 52.4683H35.1041C31.5975 52.4683 30.0328 46.5992 29.1606 42.1836C28.7275 39.9883 27.1144 37.3892 23.9947 37.2895C23.9041 37.2864 23.8156 37.2848 23.7291 37.2848Z" fill="#0267AC"/>
<path d="M51.0977 18.5408C50.9741 18.5347 50.8529 18.5769 50.7599 18.6586C50.6669 18.7403 50.6094 18.8549 50.5996 18.9783C50.5918 19.0961 49.829 30.8015 49.4058 32.794C49.1573 34.0403 48.6654 35.2254 47.9583 36.2815C46.7643 38.0193 45.484 39.1877 44.2552 39.6633L43.9652 39.7755C43.9158 39.795 43.8624 39.8019 43.8097 39.7956C43.757 39.7893 43.7067 39.7701 43.6633 39.7396C43.6201 39.7101 43.5849 39.6705 43.5607 39.6242C43.5366 39.5778 43.5243 39.5262 43.5249 39.4739C43.5262 39.4135 43.5445 39.3546 43.5776 39.3041C43.6108 39.2535 43.6575 39.2133 43.7124 39.188C44.957 38.6074 46.0043 37.675 46.7249 36.5058C47.6009 35.1488 48.1122 33.5888 48.2093 31.9765C48.4024 28.7421 48.7158 19.0265 48.7158 19.0265C48.7182 18.9649 48.7085 18.9035 48.6871 18.8457C48.6658 18.7879 48.6333 18.7349 48.5915 18.6896C48.507 18.5983 48.3897 18.5443 48.2654 18.5394C48.141 18.5346 48.0199 18.5793 47.9285 18.6638C47.8372 18.7483 47.7832 18.8656 47.7783 18.9899C47.7783 18.9899 47.4843 28.1299 47.2902 31.6196C47.171 31.1117 46.9778 30.6241 46.7168 30.1724C45.3418 27.8124 42.144 27.5674 39.848 28.6949C39.4652 28.8833 39.0442 28.9813 38.6175 28.9813C38.1909 28.9813 37.7699 28.8833 37.3871 28.6949C35.0905 27.5674 31.894 27.8121 30.518 30.1724C30.257 30.6239 30.0638 31.1113 29.9446 31.619C29.7499 28.1093 29.4565 18.9899 29.4565 18.9899C29.4516 18.8656 29.3976 18.7483 29.3062 18.6638C29.2149 18.5793 29.0937 18.5346 28.9694 18.5394C28.8451 18.5443 28.7278 18.5983 28.6433 18.6896C28.5588 18.781 28.5141 18.9021 28.519 19.0265C28.519 19.0265 28.8315 28.7565 29.0268 31.9952C29.1258 33.601 29.6366 35.1543 30.5099 36.5055C31.2305 37.6747 32.2778 38.6071 33.5224 39.1877C33.5773 39.213 33.624 39.2532 33.6572 39.3038C33.6903 39.3543 33.7086 39.4132 33.7099 39.4736C33.7105 39.5259 33.6982 39.5775 33.674 39.6238C33.6499 39.6702 33.6146 39.7098 33.5715 39.7393C33.5281 39.7697 33.4778 39.7889 33.4252 39.7952C33.3726 39.8015 33.3192 39.7946 33.2699 39.7752L32.9796 39.663C31.7508 39.1883 30.4705 38.019 29.2765 36.2811C28.5692 35.225 28.0773 34.0396 27.829 32.793C27.4058 30.8005 26.6415 19.0952 26.6352 18.9774C26.6251 18.8543 26.5675 18.74 26.4747 18.6586C26.3819 18.5771 26.261 18.5349 26.1377 18.5408C26.0763 18.5448 26.0162 18.5608 25.961 18.588C25.9057 18.6152 25.8564 18.653 25.8158 18.6993C25.7751 18.7455 25.744 18.7993 25.7242 18.8576C25.7044 18.9159 25.6962 18.9775 25.7002 19.039C25.7315 19.5236 26.4755 30.9305 26.9127 32.9886C27.1864 34.3557 27.7274 35.6552 28.5046 36.8127C29.6158 38.4308 30.779 39.569 31.9699 40.219C32.0346 40.3386 32.0983 40.4621 32.1636 40.578C32.7821 41.6777 33.0824 43.1508 33.3474 44.4505C33.7427 46.3924 34.1511 48.3958 35.7199 48.3955C35.8372 48.3948 35.9543 48.3844 36.0699 48.3643C37.2574 48.1636 37.469 46.1552 37.7127 43.8296C37.8399 42.6136 38.1046 40.0836 38.619 40.0836C39.1333 40.0836 39.3968 42.6149 39.5252 43.8296C39.7686 46.1552 39.979 48.1636 41.1674 48.3643C43.0315 48.6768 43.4668 46.5286 43.8902 44.4499C44.1552 43.1502 44.4555 41.6771 45.074 40.5774C45.1396 40.4608 45.204 40.3377 45.2693 40.2177C46.4593 39.5677 47.6221 38.4299 48.733 36.8115C49.5102 35.654 50.0512 34.3544 50.3249 32.9874C50.7624 30.9293 51.5058 19.5224 51.5374 19.0377C51.5412 18.9762 51.5328 18.9145 51.5128 18.8563C51.4928 18.798 51.4614 18.7442 51.4206 18.6981C51.3797 18.6519 51.3302 18.6143 51.2748 18.5873C51.2194 18.5603 51.1592 18.5445 51.0977 18.5408ZM42.9696 44.2627C42.5068 46.5324 42.1961 47.5874 41.3211 47.4396C40.8349 47.3574 40.5883 44.9989 40.4555 43.7318C40.1983 41.2708 39.9758 39.1458 38.618 39.1458C37.2602 39.1458 37.0377 41.2708 36.7802 43.7318C36.6474 44.9989 36.4005 47.3568 35.914 47.4396C35.0424 47.5852 34.7286 46.5333 34.2658 44.2627C34.0613 43.0522 33.7305 41.8665 33.279 40.7249C33.3152 40.728 33.3515 40.7349 33.3877 40.7349C33.5992 40.7349 33.8073 40.6818 33.9929 40.5804C34.1785 40.4789 34.3357 40.3325 34.4499 40.1545C34.5641 39.9765 34.6317 39.7726 34.6466 39.5616C34.6615 39.3507 34.623 39.1393 34.5349 38.9471C34.4015 38.671 34.1748 38.451 33.8949 38.3258C33.3707 38.023 32.894 37.6448 32.4799 37.2033C31.8363 36.5829 31.3455 35.8215 31.0463 34.9791C30.7471 34.1367 30.6477 33.2363 30.7558 32.349C30.8329 31.7485 31.0274 31.1692 31.3283 30.644C31.9986 29.4936 33.2805 28.9915 34.603 28.9915C35.4172 28.9923 36.2209 29.1752 36.9552 29.5268C36.9611 29.5296 37.0149 29.5555 37.0324 29.5646C37.3529 29.7287 37.6405 29.9505 37.8808 30.2186C38.041 30.4183 38.2393 30.5841 38.4641 30.7065C38.689 30.8289 38.9359 30.9053 39.1905 30.9315C39.2061 30.9315 39.2218 30.934 39.2368 30.934C39.3572 30.934 39.473 30.8877 39.5602 30.8046C39.6473 30.7216 39.6992 30.6081 39.705 30.4879C39.7109 30.3676 39.6702 30.2497 39.5914 30.1586C39.5127 30.0675 39.4019 30.0103 39.2821 29.9986C39.161 29.9901 39.0431 29.9553 38.9368 29.8968C39.3972 29.8597 39.8468 29.7372 40.2624 29.5355C42.1318 28.6177 44.8211 28.7808 45.9071 30.644C46.2086 31.1705 46.4033 31.7514 46.4799 32.3533C46.5884 33.2315 46.4925 34.1229 46.1998 34.9579C45.9071 35.793 45.4254 36.5491 44.7924 37.1674C44.3624 37.6317 43.8636 38.0271 43.3133 38.3396C43.0541 38.4607 42.8439 38.6666 42.7175 38.9234C42.5912 39.1802 42.5563 39.4723 42.6185 39.7517C42.6807 40.031 42.8364 40.2807 43.0598 40.4595C43.2832 40.6384 43.5609 40.7356 43.8471 40.7352C43.8833 40.7352 43.9196 40.7283 43.9558 40.7252C43.5045 41.8667 43.1739 43.0523 42.9696 44.2627Z" fill="#0267AC"/>
</g>
<defs>
<clipPath id="clip0_2576_1927">
<rect width="40" height="40" fill="white" transform="translate(18.6172 18.2266)"/>
</clipPath>
</defs>
</svg>
