<svg width="77" height="77" viewBox="0 0 77 77" fill="none" xmlns="http://www.w3.org/2000/svg">
<rect width="76.6895" height="76.6895" rx="38.3448" fill="#F1F9FD"/>
<path d="M53.7673 27.4434C52.8617 24.6222 50.9311 22.5516 48.4706 21.7626C43.9342 20.3079 40.204 22.1783 38.7799 23.0737C37.3556 22.1782 33.6253 20.3079 29.0893 21.7626C26.628 22.5518 24.6972 24.6232 23.7919 27.4455C22.6014 31.1568 23.3702 35.361 25.8486 38.6917C26.9261 40.14 27.6547 41.7365 28.0139 43.4371C28.1735 44.1927 28.3122 45.024 28.4262 45.908C28.7684 48.5627 29.2723 50.6934 29.9242 52.2408C30.705 54.0946 31.7123 55.0957 32.9181 55.2162C32.9868 55.2231 33.0546 55.2265 33.122 55.2265C34.3088 55.2264 35.3007 54.1613 36.0723 52.056C36.6428 50.4996 37.0925 48.4141 37.3387 46.1835C37.4763 44.9363 37.7982 43.9264 38.2694 43.263C38.4381 43.0255 38.6827 42.9999 38.78 42.9999C38.8773 42.9999 39.1219 43.0255 39.2906 43.2631C39.7618 43.9264 40.0837 44.9363 40.2213 46.1836C40.4674 48.4141 40.9171 50.4997 41.4876 52.056C42.2593 54.1614 43.2511 55.2266 44.438 55.2265C44.5053 55.2265 44.5733 55.2231 44.6419 55.2163C45.8477 55.0957 46.855 54.0946 47.6358 52.2409C48.2876 50.6935 48.7916 48.5627 49.1338 45.908C49.2477 45.0239 49.3865 44.1927 49.546 43.4376C49.905 41.7383 50.6346 40.1402 51.7145 38.6875C54.1908 35.3569 54.9581 31.1534 53.7673 27.4434ZM50.1198 37.5019C48.8676 39.1863 48.0204 41.0452 47.6017 43.0268C47.4312 43.8336 47.2836 44.7175 47.1629 45.654C46.4663 51.0577 45.1684 53.1436 44.4566 53.2375C44.3071 53.1845 43.7958 52.693 43.2461 51.0668C42.7802 49.6887 42.4075 47.8771 42.1965 45.9656C42.0194 44.3604 41.5868 43.0639 40.9106 42.1122C40.4216 41.4237 39.625 41.0126 38.7799 41.0126C37.9348 41.0126 37.1383 41.4236 36.6491 42.1122C35.973 43.064 35.5404 44.3605 35.3633 45.9657C35.1523 47.8772 34.7796 49.6888 34.3138 51.0669C33.7641 52.6931 33.2527 53.1846 33.1032 53.2375C32.3914 53.1436 31.0935 51.0578 30.3969 45.6541C30.2762 44.7178 30.1286 43.8337 29.9581 43.0265C29.5391 41.0432 28.6928 39.1858 27.4428 37.5056C25.3465 34.6884 24.6892 31.1545 25.6842 28.0526C26.391 25.8488 27.8533 24.2459 29.696 23.655C31.6413 23.0311 33.6473 23.0711 35.658 23.7737C37.1939 24.3104 38.1576 25.0527 38.1648 25.0583L38.7785 25.5381L39.3926 25.0602C39.4022 25.0527 40.3659 24.3104 41.9017 23.7737C43.9125 23.071 45.9184 23.0311 47.8638 23.655H47.8638C49.7059 24.2457 51.1681 25.848 51.8752 28.0508C52.8704 31.1516 52.2142 34.6847 50.1198 37.5019Z" fill="#0267AC"/>
</svg>
