<svg width="50" height="50" viewBox="0 0 50 50" fill="none" xmlns="http://www.w3.org/2000/svg">
<path d="M37.7539 28.563C38.1819 29.551 38.4309 30.76 38.4859 32.158C39.9304 32.489 41.0114 33.781 41.0114 35.324C41.0114 37.116 39.5534 38.574 37.7614 38.574C35.9694 38.574 34.5114 37.116 34.5114 35.324C34.5114 33.7985 35.5689 32.52 36.9879 32.1705C36.9254 30.782 36.5934 28.6695 35.2344 27.6265C34.5409 27.447 33.8279 27.317 33.0964 27.25C33.0424 29.6825 25.0024 35.6855 25.0024 35.6855C25.0024 35.6855 16.9599 29.6835 16.9054 27.251C16.0929 27.325 15.3024 27.4735 14.5389 27.6875C13.5474 28.4725 13.0344 29.935 13.0079 32.061C13.2994 32.2285 13.5349 32.49 13.6794 32.8065C14.7474 33.311 15.6909 34.372 16.4134 35.8825C16.5344 36.1365 16.5504 36.4235 16.4614 36.6855C16.8944 37.8 17.1419 39.018 17.1419 40.041C17.1419 41.4745 17.1419 42.83 15.5794 43.178C15.4104 43.3185 15.1984 43.396 14.9759 43.396H13.9319C13.4084 43.396 12.9824 42.969 12.9824 42.447L12.9834 42.41C13.0034 41.905 13.4259 41.4975 13.9319 41.4975H14.9759C15.0829 41.4975 15.1874 41.5155 15.2884 41.5505C15.3514 41.533 15.3714 41.5185 15.3719 41.518C15.4879 41.312 15.4879 40.454 15.4879 40.042C15.4879 39.211 15.2799 38.2075 14.9154 37.275C14.7264 37.1675 14.5734 37.005 14.4794 36.8085C13.8464 35.483 12.9854 34.627 12.2864 34.627C11.5714 34.627 10.6674 35.553 10.0369 36.929C9.93387 37.1535 9.75337 37.336 9.53137 37.4455C9.20187 38.3375 9.02087 39.256 9.02087 40.0415C9.02087 40.3875 9.02087 41.3055 9.15287 41.5215C9.15437 41.5215 9.18387 41.5395 9.26687 41.56C9.37487 41.5185 9.49087 41.497 9.60687 41.497H10.6529C11.1404 41.497 11.5479 41.868 11.5969 42.3505L11.6019 42.409C11.6019 42.9695 11.1759 43.3965 10.6529 43.3965H9.60687C9.39937 43.3965 9.19887 43.327 9.03387 43.201C8.43637 43.0885 8.01537 42.825 7.74887 42.396C7.42587 41.8775 7.36687 41.1965 7.36687 40.0415C7.36687 39.0285 7.60087 37.8615 8.02587 36.747C7.96337 36.5085 7.98437 36.2595 8.08837 36.035C8.53087 35.067 9.09387 34.238 9.71587 33.6385C10.0579 33.309 10.4254 33.044 10.8099 32.8505C10.9539 32.5135 11.2039 32.237 11.5094 32.0625C11.5254 30.73 11.7304 29.5795 12.1094 28.631C7.77037 30.832 4.79688 35.3335 4.79688 40.532C4.79688 47.175 9.65037 47.5 16.0039 47.5C16.6974 47.5 17.4074 47.496 18.1329 47.496H31.8664C32.5909 47.496 33.3009 47.5 33.9944 47.5C40.3489 47.5 45.2044 47.175 45.2044 40.532C45.2039 35.2785 42.1669 30.7375 37.7539 28.563Z" fill="#0267AC"/>
<path d="M25.0023 28.996C31.1443 28.996 36.1228 19.7605 36.1228 13.619C36.1228 7.4785 31.1443 2.5 25.0023 2.5C18.8613 2.5 13.8828 7.4785 13.8828 13.619C13.8828 19.7605 18.8613 28.996 25.0023 28.996Z" fill="#0267AC"/>
<path d="M37.7617 36.8203C38.5901 36.8203 39.2617 36.1487 39.2617 35.3203C39.2617 34.4919 38.5901 33.8203 37.7617 33.8203C36.9333 33.8203 36.2617 34.4919 36.2617 35.3203C36.2617 36.1487 36.9333 36.8203 37.7617 36.8203Z" fill="#0267AC"/>
</svg>
