<svg width="77" height="77" viewBox="0 0 77 77" fill="none" xmlns="http://www.w3.org/2000/svg">
<rect width="76.6895" height="76.6895" rx="38.3448" fill="#F1F9FD"/>
<path fill-rule="evenodd" clip-rule="evenodd" d="M30.5637 48.3007L30.5633 48.2913C30.4898 46.314 29.5608 44.7194 28.8356 42.9622C28.0257 40.9988 27.429 38.8609 28.1555 35.9578C28.7527 33.571 30.5558 31.8502 32.4815 30.0049C34.2208 28.338 36.0579 26.5486 36.9135 23.8492C36.9843 23.6262 37.1584 23.451 37.3811 23.379C37.6037 23.3069 37.8474 23.3468 38.0353 23.4862C39.8774 24.8522 41.0567 27.9629 40.4972 30.92C40.2686 32.1278 40.1861 32.7019 40.2431 33.125C40.2982 33.5317 40.4871 33.7844 40.7344 34.3569C40.8916 34.7207 41.2766 35.2213 41.6602 35.7768C42.1166 36.4376 42.5718 37.1624 42.7894 37.8323C42.9794 38.4172 42.9959 38.9732 42.8004 39.4571C42.649 39.8311 42.3705 40.1817 41.8948 40.4598C41.904 40.7682 41.9045 41.17 41.8672 41.5222C41.8241 41.9282 41.7134 42.2786 41.5793 42.4774C41.5793 42.4774 41.5022 42.6008 41.502 42.6007C41.8269 43.3274 41.7565 44.2837 41.1704 44.9476C41.191 45.0645 41.2355 45.3135 41.2675 45.4861C41.355 45.9575 41.3909 46.4937 41.1832 47.0509C40.9833 47.5868 40.5563 48.1647 39.6377 48.6957C38.8043 49.1774 37.6562 49.2962 36.3845 49.2436C34.7428 49.1756 32.8726 48.833 31.3592 48.9849L31.3585 48.9851C31.3349 48.9874 31.3109 48.9886 31.2869 48.9886C31.2749 48.9886 31.2627 48.9883 31.2507 48.9877L31.2148 48.9851L31.1795 48.9806L31.1445 48.9747L31.1103 48.9669L31.0785 48.9582L31.0458 48.9474L31.0439 48.9467L31.0138 48.9352L31.0116 48.9344L30.9826 48.9217L30.9801 48.9206L30.9521 48.9067L30.9494 48.9053L30.9224 48.8902L30.9196 48.8887L30.9059 48.8801L30.8936 48.8725L30.8906 48.8706L30.8777 48.8617L30.8658 48.8535L30.8626 48.8513L30.8506 48.8421L30.8388 48.8332L30.8355 48.8308L30.8242 48.8212L30.8127 48.8118L30.8094 48.8089L30.7988 48.7991L30.7879 48.7891L30.7844 48.7859L30.7747 48.776L30.7639 48.7654L30.7606 48.7618L30.7514 48.7515L30.7411 48.7406L30.7378 48.7366L30.7291 48.726L30.7196 48.7147L30.7163 48.7103L30.7081 48.6994L30.6992 48.6877L30.6959 48.683L30.6883 48.6717L30.6801 48.6597L30.6768 48.6547L30.6697 48.6431L30.6622 48.6309L30.6591 48.6255L30.6525 48.6133L30.6457 48.6013L30.6426 48.5954L30.6367 48.5829L30.6306 48.5708L30.6276 48.5645L30.6221 48.5515L30.6169 48.5393L30.6141 48.5327L30.6092 48.5193L30.6045 48.5071L30.6021 48.5002L30.5977 48.4865L30.5937 48.4743L30.5915 48.467L30.5878 48.4529L30.5845 48.4407L30.5824 48.4329L30.5795 48.4188L30.5767 48.4067L30.5751 48.3985L30.5729 48.3843L30.5708 48.3719L30.5694 48.3632L30.5678 48.3493L30.5663 48.3365L30.5654 48.3276L30.5647 48.314L30.5637 48.3007ZM31.9489 47.5039C31.7626 46.0625 31.2109 44.7829 30.6368 43.4809C29.745 41.4586 28.7944 39.3709 29.5606 36.3094C30.093 34.1814 31.7668 32.696 33.4837 31.0505C35.148 29.4556 36.8642 27.7368 37.8949 25.3552C38.9192 26.6336 39.4446 28.6926 39.074 30.6508C38.798 32.1099 38.7387 32.8078 38.8077 33.3188C38.879 33.8461 39.0841 34.189 39.4046 34.931C39.6924 35.5978 40.647 36.7003 41.1916 37.7644C41.4055 38.1827 41.5932 38.5785 41.4575 38.9139C41.3822 39.0999 41.1874 39.2247 40.8883 39.3393C40.5872 39.4543 40.3986 39.7545 40.4252 40.0757C40.4252 40.0757 40.4704 40.6154 40.4447 41.1327C40.4343 41.3437 40.3663 41.6876 40.3663 41.6876C40.3663 41.6876 40.3785 41.6675 40.3844 41.6593L40.0375 42.2112C39.8682 42.4816 39.896 42.831 40.1056 43.0714C40.3203 43.3175 40.3255 43.7586 40.0526 44.023C39.73 44.3355 39.6533 44.811 39.7774 45.4244C39.8431 45.7498 39.9942 46.1619 39.8066 46.593C39.6811 46.881 39.4044 47.1577 38.9127 47.4417C38.2828 47.8058 37.4058 47.8362 36.4442 47.7964C34.9933 47.7363 33.3699 47.482 31.9489 47.5039Z" fill="#0267AC"/>
<path fill-rule="evenodd" clip-rule="evenodd" d="M51.204 35.3941L50.8397 36.3787L49.8548 36.7432C49.367 36.9238 49.043 37.3889 49.043 37.9093C49.043 38.4295 49.367 38.8948 49.8548 39.0754L50.8397 39.4399L51.204 40.4245C51.3846 40.9126 51.8499 41.2364 52.3702 41.2364C52.8905 41.2364 53.3558 40.9126 53.5364 40.4245L53.9007 39.4399L54.8855 39.0754C55.3734 38.8948 55.6974 38.4295 55.6974 37.9093C55.6974 37.3889 55.3734 36.9238 54.8855 36.7432L53.9007 36.3787L53.5364 35.3941C53.3558 34.906 52.8905 34.582 52.3702 34.582C51.8499 34.582 51.3846 34.906 51.204 35.3941ZM52.3702 36.4163L52.6579 37.1937C52.7313 37.3919 52.8875 37.5483 53.0857 37.6217L53.8633 37.9093L53.0857 38.197C52.8875 38.2703 52.7313 38.4266 52.6579 38.6249L52.3702 39.4024L52.0824 38.6249C52.0091 38.4266 51.8528 38.2703 51.6547 38.197L50.8772 37.9093L51.6547 37.6217C51.8528 37.5483 52.0091 37.3919 52.0824 37.1937L52.3702 36.4163Z" fill="#0267AC"/>
<path fill-rule="evenodd" clip-rule="evenodd" d="M45.7897 40.7689L45.4222 41.7621L44.4291 42.1295C43.9412 42.3101 43.6172 42.7754 43.6172 43.2956C43.6172 43.816 43.9412 44.2813 44.4291 44.4617L45.4222 44.8291L45.7897 45.8223C45.9701 46.3102 46.4354 46.6342 46.9558 46.6342C47.476 46.6342 47.9413 46.3102 48.1219 45.8223L48.4893 44.8291L49.4825 44.4617C49.9704 44.2813 50.2943 43.816 50.2943 43.2956C50.2943 42.7754 49.9704 42.3101 49.4823 42.1295C49.4825 42.1295 48.4893 41.7621 48.4893 41.7621L48.1219 40.7689C47.9413 40.281 47.476 39.957 46.9558 39.957C46.4354 39.957 45.9701 40.2808 45.7897 40.7689ZM46.9558 41.7913L47.2466 42.5769C47.3199 42.7752 47.4762 42.9315 47.6745 43.0048L48.4601 43.2956L47.6745 43.5864C47.4762 43.6597 47.3199 43.816 47.2466 44.0143L46.9558 44.7999L46.665 44.0143C46.5916 43.816 46.4354 43.6597 46.2371 43.5864L45.4514 43.2956L46.2371 43.0048C46.4354 42.9315 46.5916 42.7752 46.665 42.5769L46.9558 41.7913Z" fill="#0267AC"/>
<path fill-rule="evenodd" clip-rule="evenodd" d="M46.054 26.3822L45.4949 27.8933L43.9838 28.4523C43.4959 28.6329 43.1719 29.0982 43.1719 29.6186C43.1719 30.1388 43.4959 30.6041 43.9838 30.7847L45.4949 31.3438L46.054 32.8549C46.2346 33.3428 46.6999 33.6668 47.2201 33.6668C47.7405 33.6668 48.2058 33.3428 48.3864 32.8549L48.9456 31.3438C48.9454 31.3438 50.4565 30.7847 50.4565 30.7847C50.9446 30.6041 51.2684 30.1388 51.2684 29.6186C51.2684 29.0982 50.9446 28.6329 50.4565 28.4523L48.9454 27.8933C48.9456 27.8933 48.3864 26.3822 48.3864 26.3822C48.2058 25.8941 47.7405 25.5703 47.2201 25.5703C46.6999 25.5703 46.2346 25.8941 46.054 26.3822ZM47.2201 27.4044L47.7026 28.7081C47.776 28.9065 47.9322 29.0627 48.1306 29.1361L49.4343 29.6186L48.1306 30.1009C47.9322 30.1742 47.776 30.3307 47.7026 30.5288L47.2201 31.8326L46.7378 30.5288C46.6645 30.3307 46.508 30.1742 46.3099 30.1009L45.0061 29.6186L46.3099 29.1361C46.508 29.0627 46.6645 28.9065 46.7378 28.7081L47.2201 27.4044Z" fill="#0267AC"/>
<path fill-rule="evenodd" clip-rule="evenodd" d="M40.4321 41.6015C40.3602 41.6342 39.7162 41.9234 39.2782 42.0187C39.002 42.0788 38.7335 42.1226 38.5461 42.0873C38.1533 42.0133 37.7742 42.2721 37.7001 42.6647C37.6261 43.0576 37.8849 43.4366 38.2775 43.5107C38.8871 43.6256 40.025 43.3774 40.7429 43.0678C41.1604 42.8879 41.4489 42.6613 41.5602 42.5069C41.7938 42.1828 41.7202 41.7296 41.3961 41.496C41.0923 41.277 40.6756 41.3278 40.4321 41.6015Z" fill="#0267AC"/>
<path fill-rule="evenodd" clip-rule="evenodd" d="M36.9401 33.9717C35.4551 35.0381 33.7333 34.5022 33.7333 34.5022C33.3518 34.383 32.9452 34.5961 32.826 34.9776C32.7069 35.3591 32.9199 35.7655 33.3014 35.8847C33.3014 35.8847 35.709 36.6389 37.7849 35.1485C38.1095 34.9154 38.1839 34.4624 37.9508 34.1377C37.7178 33.8131 37.2648 33.7387 36.9401 33.9717Z" fill="#0267AC"/>
<path fill-rule="evenodd" clip-rule="evenodd" d="M37.3723 29.7498C35.8803 29.7332 34.1213 29.6448 31.7156 30.9272C31.3629 31.1152 31.2292 31.5543 31.4171 31.9069C31.6052 32.2598 32.0442 32.3934 32.3969 32.2054C34.5039 31.0822 36.0496 31.1835 37.3563 31.1981C37.7559 31.2025 38.084 30.8816 38.0885 30.4819C38.0929 30.0823 37.772 29.7541 37.3723 29.7498Z" fill="#0267AC"/>
<path fill-rule="evenodd" clip-rule="evenodd" d="M37.2919 22.1742C36.7194 26.2433 34.0745 28.4657 31.825 30.6361C30.1526 32.2499 28.6846 33.8448 28.1555 35.9594C27.41 38.9384 28.0577 41.111 28.8993 43.1165C29.6493 44.9036 30.5875 46.5347 30.5675 48.598C30.5395 51.4834 28.1279 53.5839 28.1279 53.5839C27.8275 53.8476 27.7978 54.3056 28.0615 54.606C28.3252 54.9063 28.7832 54.9362 29.0835 54.6724C29.0835 54.6724 31.9818 52.1118 32.0159 48.6121C32.0336 46.7679 31.4028 45.2224 30.7139 43.6574C29.7996 41.5803 28.7726 39.4603 29.5606 36.3111C30.1497 33.9564 32.1245 32.3829 34.0302 30.5249C36.1429 28.465 38.2008 26.1107 38.7262 22.376C38.7819 21.9803 38.5058 21.6137 38.1099 21.5579C37.7141 21.5023 37.3476 21.7785 37.2919 22.1742Z" fill="#0267AC"/>
<path fill-rule="evenodd" clip-rule="evenodd" d="M31.6005 26.2703C28.3164 28.9255 24.208 31.7984 23.6824 37.9216C23.5148 39.8732 23.629 41.4707 23.583 42.8979C23.5207 44.832 23.13 46.4203 21.0538 48.2235C20.7521 48.4856 20.7199 48.9434 20.982 49.2451C21.2441 49.5469 21.702 49.579 22.0037 49.3169C24.488 47.1592 24.9561 45.2589 25.0306 42.9446C25.076 41.5395 24.9606 39.9669 25.1255 38.0456C25.6091 32.4125 29.4899 29.8392 32.5111 27.3966C32.8219 27.1453 32.8702 26.689 32.6189 26.3781C32.3677 26.0673 31.9113 26.019 31.6005 26.2703Z" fill="#0267AC"/>
</svg>
