<svg width="50" height="50" viewBox="0 0 50 50" fill="none" xmlns="http://www.w3.org/2000/svg">
<path d="M40.9391 5.47672L26.3558 2.22672C25.4627 2.03901 24.5404 2.03901 23.6474 2.22672L9.06409 5.47672C7.67511 5.78498 6.43289 6.55793 5.5427 7.66782C4.65252 8.77771 4.16766 10.1581 4.16826 11.5809V20.0601C4.14203 25.9732 5.90481 31.7561 9.22509 36.6491C12.5454 41.5421 17.2679 45.3166 22.7724 47.4767C23.4796 47.7672 24.237 47.9159 25.0016 47.9142C25.7638 47.9124 26.5193 47.7712 27.2308 47.4976C32.7336 45.3288 37.4536 41.5494 40.773 36.6539C44.0925 31.7584 45.8567 25.9748 45.8349 20.0601V11.5809C45.8355 10.1581 45.3507 8.77771 44.4605 7.66782C43.5703 6.55793 42.3281 5.78498 40.9391 5.47672ZM34.8974 20.3309L24.8766 30.1851C24.4863 30.5731 23.9582 30.7909 23.4078 30.7909C22.8575 30.7909 22.3294 30.5731 21.9391 30.1851L17.1891 25.5184C16.9938 25.3247 16.8388 25.0943 16.7331 24.8404C16.6273 24.5865 16.5728 24.3142 16.5728 24.0392C16.5728 23.7642 16.6273 23.4919 16.7331 23.238C16.8388 22.9841 16.9938 22.7537 17.1891 22.5601C17.5794 22.172 18.1075 21.9542 18.6578 21.9542C19.2082 21.9542 19.7363 22.172 20.1266 22.5601L23.4183 25.7892L31.9808 17.4559C32.1764 17.263 32.4081 17.1105 32.6626 17.0072C32.9171 16.9039 33.1895 16.8517 33.4642 16.8536C33.7389 16.8555 34.0106 16.9116 34.2636 17.0185C34.5167 17.1254 34.7462 17.2811 34.9391 17.4767C35.132 17.6723 35.2844 17.904 35.3878 18.1586C35.4911 18.4131 35.5433 18.6855 35.5414 18.9602C35.5394 19.2349 35.4834 19.5065 35.3765 19.7596C35.2696 20.0127 35.1139 20.2422 34.9183 20.4351L34.8974 20.3309Z" fill="#0267AC"/>
</svg>
