<svg width="94" height="16" viewBox="0 0 94 16" fill="none" xmlns="http://www.w3.org/2000/svg">
<path d="M15.093 5.32632L10.4173 4.63622L8.32714 0.332901C8.27005 0.215079 8.17613 0.119699 8.06011 0.0617233C7.76915 -0.0841518 7.41557 0.0374108 7.27008 0.332901L5.17991 4.63622L0.504191 5.32632C0.375281 5.34502 0.257421 5.40674 0.167185 5.50025C0.058094 5.61411 -0.00202002 5.76731 5.18324e-05 5.92617C0.00212369 6.08502 0.0662119 6.23655 0.178234 6.34744L3.56118 9.69696L2.76194 14.4267C2.7432 14.5367 2.75519 14.6499 2.79655 14.7533C2.83791 14.8568 2.90699 14.9464 2.99595 15.012C3.08491 15.0776 3.19019 15.1166 3.29986 15.1245C3.40953 15.1325 3.5192 15.1091 3.61643 15.0569L7.79861 12.8239L11.9808 15.0569C12.095 15.1186 12.2276 15.1392 12.3546 15.1168C12.6751 15.0607 12.8905 14.7521 12.8353 14.4267L12.036 9.69696L15.419 6.34744C15.5111 6.2558 15.5718 6.13611 15.5903 6.0052C15.64 5.67791 15.4153 5.37494 15.093 5.32632V5.32632Z" fill="#F3B81F"/>
<path d="M34.5891 5.32632L29.9134 4.63622L27.8232 0.332901C27.7661 0.215079 27.6722 0.119699 27.5562 0.0617233C27.2652 -0.0841518 26.9117 0.0374108 26.7662 0.332901L24.676 4.63622L20.0003 5.32632C19.8714 5.34502 19.7535 5.40674 19.6633 5.50025C19.5542 5.61411 19.4941 5.76731 19.4961 5.92617C19.4982 6.08502 19.5623 6.23655 19.6743 6.34744L23.0573 9.69696L22.258 14.4267C22.2393 14.5367 22.2513 14.6499 22.2926 14.7533C22.334 14.8568 22.4031 14.9464 22.492 15.012C22.581 15.0776 22.6863 15.1166 22.796 15.1245C22.9056 15.1325 23.0153 15.1091 23.1125 15.0569L27.2947 12.8239L31.4769 15.0569C31.5911 15.1186 31.7237 15.1392 31.8507 15.1168C32.1712 15.0607 32.3866 14.7521 32.3314 14.4267L31.5321 9.69696L34.9151 6.34744C35.0072 6.2558 35.0679 6.13611 35.0863 6.0052C35.1361 5.67791 34.9114 5.37494 34.5891 5.32632V5.32632Z" fill="#F3B81F"/>
<path d="M54.0852 5.32632L49.4095 4.63622L47.3193 0.332901C47.2622 0.215079 47.1683 0.119699 47.0523 0.0617233C46.7613 -0.0841518 46.4078 0.0374108 46.2623 0.332901L44.1721 4.63622L39.4964 5.32632C39.3675 5.34502 39.2496 5.40674 39.1594 5.50025C39.0503 5.61411 38.9902 5.76731 38.9922 5.92617C38.9943 6.08502 39.0584 6.23655 39.1704 6.34744L42.5534 9.69696L41.7541 14.4267C41.7354 14.5367 41.7474 14.6499 41.7887 14.7533C41.8301 14.8568 41.8992 14.9464 41.9881 15.012C42.0771 15.0776 42.1824 15.1166 42.2921 15.1245C42.4017 15.1325 42.5114 15.1091 42.6086 15.0569L46.7908 12.8239L50.973 15.0569C51.0872 15.1186 51.2198 15.1392 51.3468 15.1168C51.6673 15.0607 51.8827 14.7521 51.8275 14.4267L51.0282 9.69696L54.4112 6.34744C54.5033 6.2558 54.564 6.13611 54.5824 6.0052C54.6322 5.67791 54.4075 5.37494 54.0852 5.32632V5.32632Z" fill="#F3B81F"/>
<path d="M73.5813 5.32632L68.9056 4.63622L66.8154 0.332901C66.7583 0.215079 66.6644 0.119699 66.5484 0.0617233C66.2574 -0.0841518 65.9038 0.0374108 65.7584 0.332901L63.6682 4.63622L58.9925 5.32632C58.8636 5.34502 58.7457 5.40674 58.6555 5.50025C58.5464 5.61411 58.4863 5.76731 58.4883 5.92617C58.4904 6.08502 58.5545 6.23655 58.6665 6.34744L62.0495 9.69696L61.2502 14.4267C61.2315 14.5367 61.2435 14.6499 61.2848 14.7533C61.3262 14.8568 61.3953 14.9464 61.4842 15.012C61.5732 15.0776 61.6785 15.1166 61.7881 15.1245C61.8978 15.1325 62.0075 15.1091 62.1047 15.0569L66.2869 12.8239L70.4691 15.0569C70.5833 15.1186 70.7158 15.1392 70.8429 15.1168C71.1633 15.0607 71.3788 14.7521 71.3236 14.4267L70.5243 9.69696L73.9073 6.34744C73.9993 6.2558 74.0601 6.13611 74.0785 6.0052C74.1283 5.67791 73.9036 5.37494 73.5813 5.32632V5.32632Z" fill="#F3B81F"/>
<path d="M93.0813 5.32632L88.4056 4.63622L86.3154 0.332901C86.2583 0.215079 86.1644 0.119699 86.0484 0.0617233C85.7574 -0.0841518 85.4038 0.0374108 85.2584 0.332901L83.1682 4.63622L78.4925 5.32632C78.3636 5.34502 78.2457 5.40674 78.1555 5.50025C78.0464 5.61411 77.9863 5.76731 77.9883 5.92617C77.9904 6.08502 78.0545 6.23655 78.1665 6.34744L81.5495 9.69696L80.7502 14.4267C80.7315 14.5367 80.7435 14.6499 80.7848 14.7533C80.8262 14.8568 80.8953 14.9464 80.9842 15.012C81.0732 15.0776 81.1785 15.1166 81.2881 15.1245C81.3978 15.1325 81.5075 15.1091 81.6047 15.0569L85.7869 12.8239L89.9691 15.0569C90.0833 15.1186 90.2158 15.1392 90.3429 15.1168C90.6633 15.0607 90.8788 14.7521 90.8236 14.4267L90.0243 9.69696L93.4073 6.34744C93.4993 6.2558 93.5601 6.13611 93.5785 6.0052C93.6283 5.67791 93.4036 5.37494 93.0813 5.32632V5.32632Z" fill="#F3B81F"/>
</svg>
