<svg width="84" height="84" viewBox="0 0 84 84" fill="none" xmlns="http://www.w3.org/2000/svg">
<g clip-path="url(#clip0_2755_503)">
<path d="M53.6965 54.5588C51.6524 53.8703 49.1149 53.264 46.4534 52.7414C46.4159 52.2873 46.3788 51.8334 46.3395 51.3799C46.3056 50.9898 46.4186 50.6092 46.654 50.3125C46.6549 50.3113 46.6635 50.3005 46.6644 50.2994C52.2867 43.2177 54.196 36.8432 52.6729 30.2387C52.3848 28.9898 52.0111 27.7878 51.5617 26.6661C49.317 21.0628 44.5383 17.582 39.0905 17.582C36.3294 17.582 33.6943 18.4395 31.4698 20.0618C29.4541 21.5315 26.7457 21.5316 24.7301 20.0618C22.5055 18.4395 19.8703 17.582 17.1091 17.582C14.7253 17.582 12.5005 18.2108 10.4965 19.451C9.92123 19.8069 9.74345 20.5619 10.0995 21.1371C10.4552 21.7124 11.21 21.8901 11.7856 21.5341C13.3964 20.5373 15.1875 20.0318 17.1091 20.0318C19.3479 20.0318 21.484 20.7266 23.2864 22.0411C26.1657 24.1409 30.0341 24.1407 32.9131 22.0411C34.7155 20.7266 36.8516 20.0318 39.0903 20.0318C43.5828 20.0318 47.3947 22.8525 49.2874 27.5771C49.6899 28.582 50.0259 29.663 50.2857 30.7894C51.6278 36.6094 49.8674 42.3249 44.7485 48.7727C44.7473 48.774 44.7388 48.785 44.7377 48.7863C44.1086 49.5794 43.8106 50.5755 43.8987 51.5914C43.9491 52.1732 43.9971 52.7555 44.0449 53.338C44.2166 55.4268 44.3944 57.5866 44.6891 59.7028C45.0373 62.205 45.3065 65.4397 44.2887 68.2663C43.5911 70.2029 41.7248 72.6908 39.9257 73.3335C39.2031 73.5915 38.5716 73.5355 37.9385 73.157C36.2621 72.1545 36.4058 69.2005 36.5212 66.8269C36.5478 66.2814 36.5728 65.7664 36.5754 65.2923C36.5857 63.3885 36.3264 61.6315 35.8046 60.0705C34.6716 56.6809 31.6472 54.4909 28.0993 54.4911C24.5515 54.4911 21.5269 56.6817 20.3943 60.0716C19.8729 61.6323 19.6136 63.3888 19.6237 65.2925C19.6264 65.7666 19.6514 66.2816 19.6779 66.8272C19.7933 69.2007 19.9371 72.1547 18.2606 73.1572C17.6276 73.5358 16.996 73.5918 16.2735 73.3336C14.4744 72.691 12.608 70.203 11.9107 68.2665C10.8926 65.4397 11.1619 62.2051 11.5103 59.703C11.8049 57.586 11.9827 55.425 12.1546 53.3352C12.2024 52.7537 12.2502 52.1723 12.3004 51.5916C12.3884 50.5757 12.0904 49.5794 11.47 48.7972C11.467 48.7935 11.4566 48.7801 11.4536 48.7763C6.33177 42.325 4.5715 36.6096 5.91368 30.7894C6.34323 28.927 7.09117 26.8228 8.13034 25.2018C8.49589 24.632 8.33022 23.8743 7.76087 23.5091C7.1912 23.1438 6.43359 23.3094 6.06854 23.8788C5.51327 24.7446 5.03182 25.6824 4.6378 26.6663C4.18827 27.7881 3.81455 28.99 3.5266 30.2389C2.00353 36.8433 3.9126 43.2178 9.5421 50.3085C9.78077 50.6094 9.89356 50.99 9.85968 51.3801C9.82039 51.8344 9.78306 52.2893 9.74558 52.7441C7.08315 53.2663 4.54629 53.8715 2.5038 54.559C1.00627 55.0629 0 56.4628 0 58.0426V80.0874C0 82.1137 1.64846 83.762 3.67458 83.762H52.5249C54.5512 83.762 56.1995 82.1135 56.1995 80.0874V73.3453C56.1995 72.6689 55.6511 72.1205 54.9747 72.1205C54.2983 72.1205 53.7499 72.6689 53.7499 73.3453V80.0874C53.7499 80.7629 53.2003 81.3122 52.5251 81.3122H3.67458C2.99916 81.3122 2.44978 80.7629 2.44978 80.0874V58.0426C2.44978 57.5158 2.78553 57.0489 3.28547 56.8806C5.05245 56.2859 7.22361 55.7529 9.53146 55.2832C9.40999 56.6493 9.27084 58.0236 9.08423 59.3648C8.69707 62.1459 8.40651 65.7651 9.6061 69.0961C10.3182 71.0736 12.5344 74.5989 15.4497 75.6402C16.8554 76.1423 18.2621 76.0105 19.5182 75.2592C22.4556 73.5026 22.2646 69.5752 22.1251 66.7075C22.0999 66.1894 22.076 65.6998 22.0739 65.2788C22.065 63.6441 22.2818 62.1531 22.718 60.8474C23.6806 57.9669 26.129 56.9405 28.0998 56.9404C30.0703 56.9402 32.5188 57.9664 33.4815 60.8466C33.9181 62.1526 34.1348 63.6437 34.126 65.2788C34.1237 65.6998 34.0999 66.1893 34.0747 66.7075C33.9353 69.5752 33.7442 73.5026 36.6817 75.2592C37.438 75.7116 38.2491 75.9393 39.0815 75.9393C39.6314 75.9393 40.1909 75.8399 40.7499 75.6402C43.6651 74.5987 45.8816 71.0736 46.5937 69.0961C47.7933 65.7651 47.5027 62.1457 47.1156 59.3648C46.9288 58.0227 46.7897 56.6478 46.668 55.2809C48.9749 55.7511 51.1464 56.2849 52.9145 56.8804C53.4141 57.0487 53.7499 57.5158 53.7499 58.0424V67.5771C53.7499 68.2535 54.2983 68.8019 54.9747 68.8019C55.6511 68.8019 56.1995 68.2535 56.1995 67.5771V58.0424C56.1997 56.4632 55.1937 55.0632 53.6965 54.5588Z" fill="#0267AC"/>
<path d="M79.7521 1.13691H33.934C33.5007 0.485383 32.7606 0.0546875 31.9212 0.0546875H24.5689C23.2364 0.0546875 22.1523 1.13871 22.1523 2.47123V7.91362C22.1523 9.11469 22.7535 10.2228 23.7604 10.8776L27.0201 12.9977V15.4569C27.0201 16.1333 27.5685 16.6817 28.2449 16.6817C28.9214 16.6817 29.4698 16.1333 29.4698 15.4569V12.9977L32.7295 10.8776C33.3421 10.4791 33.8034 9.9124 34.0715 9.25956H79.7521C81.9916 9.25956 83.8135 7.43758 83.8135 5.19815C83.8135 2.9589 81.9916 1.13691 79.7521 1.13691ZM31.8879 7.91362C31.8879 8.28243 31.7033 8.62293 31.394 8.82395L28.2449 10.872L25.0958 8.82395C24.7866 8.62277 24.6021 8.28243 24.6021 7.91362V2.50446H31.8879V7.91362ZM39.0551 6.80995H34.3377V3.58669H39.0551V6.80995ZM47.5627 6.80995H41.5047V3.58669H47.5627V6.80995ZM79.7521 6.80995H50.0125V3.58669H79.7521C80.6409 3.58669 81.3638 4.30959 81.3638 5.19832C81.3638 6.08688 80.6409 6.80995 79.7521 6.80995Z" fill="#0267AC"/>
</g>
<defs>
<clipPath id="clip0_2755_503">
<rect width="83.8146" height="83.8146" fill="white"/>
</clipPath>
</defs>
</svg>
