<svg width="81" height="81" viewBox="0 0 81 81" fill="none" xmlns="http://www.w3.org/2000/svg">
<path d="M79.0783 54.7481L76.2428 56.3851L73.9882 52.48L80.295 48.8386C80.8431 48.522 81.0309 47.8212 80.7144 47.2733L76.5661 40.0882C75.2622 37.8299 73.1769 36.256 70.6943 35.6567C68.2672 35.0706 65.6907 35.4637 63.4391 36.7638C62.2084 37.4742 61.2001 38.423 60.4346 39.517H59.1084V36.1489C59.1084 35.516 58.5954 35.003 57.9625 35.003H56.2155V11.3972L64.1291 1.87856C64.5338 1.39188 64.467 0.669466 63.9805 0.264798C63.4937 -0.139869 62.7714 -0.0732429 62.3669 0.413438L54.1884 10.2505C54.0174 10.4563 53.9237 10.7154 53.9237 10.9831V35.0028H52.1767C51.8729 35.0028 51.5813 35.1237 51.3664 35.3384C51.1516 35.5534 51.0308 35.8448 51.0308 36.1487L51.031 39.5169H49.3516C48.7187 39.5169 48.2057 40.0299 48.2057 40.6628V52.3263L39.7614 57.2016L39.4809 56.7161V40.6628C39.4809 40.0299 38.9679 39.5169 38.335 39.5169H36.6558V36.1487C36.6558 35.5159 36.1428 35.0028 35.5099 35.0028H33.7629V22.8816C33.7629 19.8769 32.1516 17.2939 29.4528 15.9722C26.9601 14.7515 25.4117 12.2704 25.4117 9.49701C25.4117 5.524 28.644 2.2919 32.617 2.2919C36.59 2.2919 39.8221 5.52417 39.8221 9.49701C39.8221 10.1299 40.3351 10.6429 40.968 10.6429C41.6009 10.6429 42.1139 10.1299 42.1139 9.49701C42.1139 4.2604 37.8536 9.49413e-05 32.617 9.49413e-05C27.3804 9.49413e-05 23.1199 4.2604 23.1199 9.49701C23.1199 13.1521 25.1603 16.4219 28.4446 18.0304C30.3396 18.9584 31.4709 20.772 31.4709 22.8816V35.0028H29.7239C29.091 35.0028 28.578 35.5159 28.578 36.1487V39.5169H26.8988C26.2659 39.5169 25.7529 40.0299 25.7529 40.6628V62.543L16.3604 67.9657V40.6629C16.3604 40.0301 15.8473 39.517 15.2145 39.517H13.5356V36.1489C13.5356 35.516 13.0225 35.003 12.3897 35.003H10.6427V18.9224C15.3405 18.3545 18.9937 14.3457 18.9937 9.49701C18.9937 4.2604 14.7335 9.49413e-05 9.49675 9.49413e-05C4.25998 9.49413e-05 0 4.2604 0 9.49701C0 14.3457 3.65297 18.3545 8.35101 18.9224V35.003H6.60384C5.97097 35.003 5.45794 35.516 5.45794 36.1489V39.517H3.7787C3.14583 39.517 2.63279 40.0301 2.63279 40.6629V74.0041C2.63279 77.7889 5.712 80.8681 9.49675 80.8681C10.726 80.8681 11.9395 80.5292 12.9942 79.9029C13.9659 80.5345 15.1043 80.8707 16.2599 80.8707C17.2702 80.8707 18.2937 80.6139 19.2299 80.0735L26.0858 76.1152C26.9796 78.8845 29.5771 80.8683 32.617 80.8683C36.4017 80.8683 39.4809 77.7891 39.4809 74.0043V68.3817L43.5397 66.0383C43.8028 65.8862 43.995 65.6359 44.0737 65.3424C44.1525 65.0489 44.1112 64.7361 43.9593 64.4728L43.343 63.4052L48.2058 60.5976V74.0041C48.2058 77.7889 51.285 80.8681 55.0698 80.8681C58.8546 80.8681 61.9338 77.7889 61.9338 74.0041V53.0412L64.1316 56.8477C64.3438 57.2153 64.7288 57.4208 65.1249 57.4208C65.3194 57.4208 65.5163 57.3712 65.6967 57.2672L72.0035 53.6261L74.2581 57.5311L71.4226 59.1681C70.8746 59.4847 70.6868 60.1855 71.0033 60.7334C71.2156 61.1011 71.6006 61.3065 71.9967 61.3065C72.1912 61.3065 72.3882 61.2569 72.5686 61.153L80.2243 56.7331C80.7724 56.4165 80.9602 55.7157 80.6437 55.1678C80.3271 54.6194 79.6265 54.4318 79.0783 54.7481ZM2.29181 9.49701C2.29181 5.524 5.52391 2.2919 9.49692 2.2919C13.4699 2.2919 16.702 5.52417 16.702 9.49701C16.702 13.4699 13.4699 16.7021 9.49692 16.7021C5.52391 16.7021 2.29181 13.4699 2.29181 9.49701ZM64.585 38.7483C66.3247 37.7438 68.3033 37.4369 70.1564 37.8843C72.0229 38.335 73.5945 39.5247 74.5812 41.2341L76.3666 44.3264L63.7528 51.6089L61.9675 48.5165C59.9962 45.1018 61.1703 40.7199 64.585 38.7483ZM53.3226 37.2948H56.8166V39.517H53.3228L53.3226 37.2948ZM59.2595 41.8088C58.7773 43.1821 58.6093 44.661 58.7925 46.1255H50.4975V41.8088H59.2595ZM50.4975 48.4173H54.9763L50.4975 51.0032V48.4173ZM30.8701 37.2948H34.3642V39.517H30.8701V37.2948ZM37.1891 41.8088V46.1255H28.045V41.8088H37.1891ZM28.045 48.4173H37.1891V55.9405L28.045 61.2198V48.4173ZM7.74974 37.2948H11.2438V39.517H7.74974V37.2948ZM14.0689 41.8088V46.1255H4.9246V41.8088H14.0689ZM4.9246 74.004V48.4173H14.0687V69.2889L13.2697 69.7502C11.8956 70.5437 10.9115 71.8294 10.4984 73.3708C10.0854 74.912 10.2948 76.5178 11.0882 77.8917C11.1509 78.0002 11.2174 78.1053 11.2858 78.2085C10.7255 78.4496 10.1218 78.5763 9.49675 78.5763C6.97577 78.5761 4.9246 76.5251 4.9246 74.004ZM18.084 78.0885C16.3324 79.0998 14.0845 78.4975 13.073 76.7458C12.5858 75.9019 12.4576 74.914 12.7123 73.9639C12.9669 73.0137 13.5719 72.2221 14.4158 71.7351L32.9147 61.0546L36.5831 67.4083L18.084 78.0885ZM37.1891 74.004C37.1891 76.525 35.1381 78.5761 32.617 78.5761C30.42 78.5761 28.5688 77.0213 28.139 74.9295L37.1891 69.7044V74.004ZM38.5678 66.2622L34.8996 59.9085L37.7333 58.2725L37.7767 58.3477L37.7622 58.356L38.9081 60.3409L38.9227 60.3325L41.4018 64.6262L38.5678 66.2622ZM40.9073 59.1866L59.416 48.5006C59.5768 48.8949 59.7637 49.2836 59.9826 49.6625L60.6274 50.7795L42.1967 61.4203L40.9073 59.1866ZM55.0696 78.5761C52.5486 78.5761 50.4975 76.5251 50.4975 74.004V59.2742L59.6416 53.9949V74.004C59.6416 76.5251 57.5906 78.5761 55.0696 78.5761ZM65.543 54.7094L64.8989 53.5936L77.5126 46.3111L78.1568 47.4267L65.543 54.7094Z" fill="#0267AC"/>
</svg>
