<svg width="75" height="75" viewBox="0 0 75 75" fill="none" xmlns="http://www.w3.org/2000/svg">
<path d="M56.2666 17.6822C56.0245 17.6007 55.7628 17.6007 55.5207 17.6822L43.2611 21.808C42.7853 21.9681 42.4648 22.4141 42.4648 22.9161V38.4755C42.4648 45.3523 53.3092 49.767 55.4832 50.5822C55.6155 50.6318 55.7545 50.6566 55.8937 50.6566C56.0328 50.6566 56.1718 50.6318 56.3041 50.5822C58.4781 49.767 69.3225 45.3523 69.3225 38.4755V22.9161C69.3225 22.4141 69.002 21.9681 68.5262 21.808L56.2666 17.6822ZM66.984 38.4755C66.984 42.7609 60.2013 46.5462 55.8937 48.2352C51.586 46.5462 44.8033 42.7609 44.8033 38.4755V23.7563L55.8937 20.024L66.984 23.7563V38.4755Z" fill="#0267AC"/>
<path d="M52.8398 34.0192C52.3832 33.5626 51.6431 33.5625 51.1862 34.0192C50.7296 34.4758 50.7296 35.2161 51.1862 35.6727L53.3008 37.7874C53.5202 38.0067 53.8175 38.1298 54.1276 38.1298C54.4378 38.1298 54.7351 38.0067 54.9544 37.7874L60.5935 32.1483C61.0501 31.6917 61.0501 30.9514 60.5935 30.4948C60.1368 30.0382 59.3966 30.0382 58.9399 30.4948L54.1276 35.3071L52.8398 34.0192Z" fill="#0267AC"/>
<path d="M72.7139 17.9723L59.5722 13.5496C57.5567 5.65962 51.7596 0 45.5935 0C42.3789 0 39.9119 0.484055 37.5944 1.56949C36.7783 1.95164 35.9559 2.44418 35.0806 3.07503C34.4293 3.54446 32.9271 4.33202 30.1859 4.33202C27.7493 4.33202 26.4501 3.58985 24.8053 2.65028C22.6306 1.40799 20.1659 0 14.7785 0C10.5199 0 6.12889 2.86408 3.3189 7.47464C1.11264 11.0947 -0.0347376 15.5488 0.000801201 20.3552C0.0417636 25.8995 1.61489 31.7212 4.67665 37.6583C9.8666 47.7226 10.5688 56.3682 11.0816 62.6809C11.3589 66.0942 11.5779 68.7902 12.4247 70.7642C13.4295 73.1064 15.2863 74.245 18.1016 74.245C24.8805 74.245 26.4952 64.5656 27.7926 56.7882C28.2127 54.2692 28.6097 51.8898 29.1218 50.2212C29.7129 48.2947 30.1815 48.2082 30.1859 48.2082C30.1904 48.2082 30.6591 48.2947 31.2502 50.2212C31.7622 51.8899 32.1591 54.2692 32.5795 56.7883C33.8768 64.5657 35.4915 74.245 42.2704 74.245C45.0858 74.245 46.9431 73.1061 47.9481 70.7632C48.795 68.7888 49.0142 66.092 49.2918 62.6779C49.507 60.0314 49.7475 57.0774 50.3219 53.7626C53.1922 55.1398 55.4357 55.8179 55.5656 55.8567C55.784 55.9218 56.0161 55.9218 56.2344 55.8567C56.4164 55.8024 60.7419 54.4954 65.1313 51.769C71.1282 48.0442 74.298 43.4475 74.298 38.4757V20.1768C74.298 19.1771 73.6614 18.2912 72.7139 17.9723ZM46.9611 62.4884C46.3921 69.4864 46.0053 71.9065 42.2704 71.9065C37.4721 71.9065 36.0381 63.3106 34.8859 56.4036C34.4526 53.8058 34.0432 51.3522 33.4858 49.5352C33.1782 48.5327 32.3609 45.8698 30.1859 45.8698C28.0109 45.8698 27.1938 48.5327 26.8863 49.5351C26.3286 51.3521 25.9194 53.8057 25.4861 56.4034C24.3339 63.3105 22.8999 71.9065 18.1016 71.9065C14.3673 71.9065 13.9807 69.4873 13.4125 62.4916C12.8837 55.982 12.1595 47.0668 6.75503 36.5866C-0.872968 21.7946 3.20743 12.1511 5.31578 8.69159C7.70401 4.77283 11.33 2.33842 14.7785 2.33842C19.545 2.33842 21.6295 3.52919 23.6454 4.68077C25.0745 5.49713 26.5471 6.33443 28.7715 6.58988C27.9649 6.88957 27.0922 7.16663 26.1563 7.39756C25.5295 7.55228 25.1467 8.18591 25.3014 8.81283C25.4329 9.3457 25.9103 9.70223 26.4357 9.70223C26.5283 9.70223 26.6226 9.6911 26.7167 9.66791C32.4396 8.2557 36.012 5.3468 36.4835 4.94696C37.2256 4.41466 37.9141 4.0019 38.5862 3.68718C39.9268 3.05926 41.935 2.33842 45.5935 2.33842C49.6965 2.33842 54.641 5.86897 56.874 12.6416L56.6419 12.5635C56.1635 12.4025 55.6366 12.4025 55.1581 12.5635L39.0862 17.9723C38.1386 18.2912 37.5021 19.1771 37.5021 20.1768V38.4757C37.5021 43.4475 40.6719 48.0442 46.6688 51.769C47.1648 52.0771 47.6596 52.366 48.148 52.6381C47.4589 56.371 47.1844 59.7422 46.9611 62.4884ZM71.9596 38.4757C71.9596 47.7766 58.2337 52.7336 55.8995 53.5086C53.564 52.7354 39.8405 47.7917 39.8405 38.4757L39.8321 20.1885L55.896 14.7797L58.1626 15.5413C58.1978 15.555 58.2336 15.5671 58.2701 15.5774L71.9596 20.1768V38.4757Z" fill="#0267AC"/>
</svg>
