<svg width="74" height="84" viewBox="0 0 74 84" fill="none" xmlns="http://www.w3.org/2000/svg">
<path d="M24.5734 7.32858C24.813 7.56824 25.1273 7.68807 25.4415 7.68807C25.7556 7.68807 26.0699 7.56824 26.3096 7.32858C26.789 6.84894 26.789 6.07169 26.3096 5.59221C19.1552 -1.56199 7.51413 -1.56199 0.359609 5.59221C-0.11987 6.07185 -0.11987 6.8491 0.359609 7.32858C0.839087 7.8079 1.6165 7.8079 2.09582 7.32858C8.29319 1.13121 18.3761 1.13121 24.5734 7.32858Z" fill="#0267AC"/>
<path d="M21.3244 10.5778C21.5641 10.8175 21.8784 10.9373 22.1925 10.9373C22.5067 10.9373 22.821 10.8175 23.0606 10.5778C23.5401 10.0982 23.5401 9.32093 23.0606 8.84145C17.6991 3.47993 8.97503 3.47993 3.61352 8.84145C3.13404 9.32109 3.13404 10.0983 3.61352 10.5778C4.09299 11.0571 4.87041 11.0571 5.34972 10.5778C9.75408 6.17362 16.9202 6.17362 21.3244 10.5778Z" fill="#0267AC"/>
<path d="M8.59989 13.8312C9.86496 12.5661 11.5467 11.8696 13.3357 11.8696C15.1248 11.8696 16.8067 12.5663 18.0716 13.8312C18.3112 14.071 18.6256 14.1908 18.9397 14.1908C19.2538 14.1908 19.5681 14.071 19.8078 13.8314C20.2873 13.3519 20.2873 12.5745 19.8078 12.0951C18.0791 10.3661 15.7806 9.41406 13.3356 9.41406C10.8907 9.41406 8.59219 10.3661 6.86352 12.0951C6.38404 12.5746 6.38404 13.352 6.86352 13.8314C7.34299 14.3107 8.12041 14.3108 8.59989 13.8312Z" fill="#0267AC"/>
<path d="M73.5625 37.4548C73.5145 37.2117 73.4554 36.9262 73.1118 36.6417L62.4816 28.1224C61.3732 27.2339 59.9806 26.7447 58.56 26.7447H50.2014V20.6983C50.2014 20.0201 49.6517 19.4705 48.9737 19.4705H32.1173C31.9249 19.4705 31.7684 19.314 31.7684 19.1217V2.80435C31.7684 2.612 31.9249 2.45551 32.1173 2.45551H60.6039C60.7963 2.45551 60.9528 2.612 60.9528 2.80435V19.1218C60.9528 19.3142 60.7963 19.4707 60.6039 19.4707H54.7258C54.0477 19.4707 53.498 20.0202 53.498 20.6984C53.498 21.3767 54.0477 21.9262 54.7258 21.9262H60.6039C62.1502 21.9262 63.4083 20.6682 63.4083 19.1218V2.80435C63.4083 1.25804 62.1502 0 60.6039 0H32.1173C30.571 0 29.3129 1.25804 29.3129 2.80435V19.1218C29.3129 20.6682 30.571 21.9262 32.1173 21.9262H42.5195V26.7449H34.1609C32.7403 26.7449 31.3477 27.234 30.2395 28.1224L19.6093 36.6419C19.4105 36.8205 19.1445 37.1243 19.1493 37.6V62.1025C19.1493 62.7807 19.699 63.3303 20.377 63.3303C21.0551 63.3303 21.6048 62.7807 21.6048 62.1025V38.8276H71.1161V75.2691C71.1161 75.9684 70.5469 76.5376 69.8474 76.5376H22.8734C22.174 76.5376 21.6048 75.9684 21.6048 75.2691V69.0858H24.6033C26.7728 69.0858 28.5378 67.3208 28.5378 65.1513V46.7283C28.5378 46.0501 27.9881 45.5005 27.3101 45.5005C26.632 45.5005 26.0823 46.0501 26.0823 46.7283V65.1511C26.0823 65.9667 25.4188 66.6302 24.6033 66.6302H16.0434C15.2278 66.6302 14.5643 65.9667 14.5643 65.1511V37.3258C15.9887 36.8193 17.0115 35.4585 17.0115 33.8627V31.6891L19.0229 29.9907C19.2992 29.7575 19.4587 29.4143 19.4587 29.0527V20.1175C19.4587 17.6258 17.4315 15.5987 14.9399 15.5987H11.7336C9.24195 15.5987 7.21484 17.6259 7.21484 20.1175V29.0527C7.21484 29.4143 7.37429 29.7576 7.65061 29.9907L9.66184 31.6891V33.8626C9.66184 35.4583 10.6846 36.8193 12.109 37.3257V65.1511C12.109 67.3206 13.874 69.0857 16.0435 69.0857H19.1494V75.269C19.1494 77.3224 20.8201 78.993 22.8736 78.993H25.5904V81.164C25.5904 82.6255 26.7795 83.8144 28.241 83.8144H30.9668C32.4283 83.8144 33.6174 82.6253 33.6174 81.164V78.993H59.1038V81.164C59.1038 82.6255 60.2929 83.8144 61.7544 83.8144H64.4802C65.9417 83.8144 67.1308 82.6253 67.1308 81.164V78.993H69.8476C71.9011 78.993 73.5718 77.3224 73.5718 75.269V37.5999C73.5718 37.5506 73.5682 37.5025 73.5625 37.4548ZM11.6817 30.1808L9.67035 28.4824V20.1173C9.67035 18.9796 10.5959 18.054 11.7336 18.054H14.9399C16.0776 18.054 17.0031 18.9796 17.0031 20.1173V28.4824L14.9918 30.1808C14.7154 30.4141 14.556 30.7572 14.556 31.1188V33.8626C14.556 34.5349 14.0091 35.0818 13.3366 35.0818C12.6641 35.0818 12.1172 34.5349 12.1172 33.8626V31.1188C12.1173 30.7573 11.9581 30.4141 11.6817 30.1808ZM31.1619 81.1641C31.1619 81.2717 31.0743 81.3591 30.9668 81.3591H28.241C28.1335 81.3591 28.0459 81.2717 28.0459 81.1641V78.9931H31.1619V81.1641ZM64.6753 81.1641C64.6753 81.2717 64.5877 81.3591 64.4802 81.3591H61.7544C61.6469 81.3591 61.5593 81.2717 61.5593 81.1641V78.9931H64.6753V81.1641ZM44.975 21.926H47.7462V26.7447H44.975V21.926ZM23.8723 36.3721L31.7753 30.0384C32.4496 29.498 33.2967 29.2004 34.1611 29.2004H58.5603C59.4245 29.2004 60.2718 29.498 60.9461 30.0385L68.8489 36.3721H23.8723Z" fill="#0267AC"/>
<path d="M35.69 50.1923H57.0293C58.939 50.1923 60.4927 48.6388 60.4927 46.729C60.4927 44.8193 58.939 43.2656 57.0293 43.2656H35.69C33.7802 43.2656 32.2266 44.8193 32.2266 46.729C32.2266 48.6388 33.7802 50.1923 35.69 50.1923ZM35.69 45.7211H57.0293C57.5851 45.7211 58.0372 46.1733 58.0372 46.729C58.0372 47.2848 57.5851 47.7368 57.0293 47.7368H35.69C35.1342 47.7368 34.6821 47.2846 34.6821 46.729C34.6822 46.1733 35.1342 45.7211 35.69 45.7211Z" fill="#0267AC"/>
<path d="M58.9784 16.269V5.65744C58.9784 4.97923 58.4287 4.42969 57.7507 4.42969H34.9699C34.2919 4.42969 33.7422 4.97923 33.7422 5.65744V16.269C33.7422 16.9472 34.2919 17.4967 34.9699 17.4967H57.7507C58.4287 17.4967 58.9784 16.947 58.9784 16.269ZM56.5229 15.0412H36.1977V6.88519H56.5229V15.0412Z" fill="#0267AC"/>
</svg>
