<svg width="66" height="50" viewBox="0 0 66 50" fill="none" xmlns="http://www.w3.org/2000/svg">
<path d="M4.39956 5.01224C7.3602 1.6864 10.9533 0 15.0792 0C18.7873 0 21.9308 1.32043 24.4231 3.92444C26.8995 6.51182 28.1552 9.72557 28.1552 13.4766C28.1552 17.0214 26.8868 20.1801 24.3853 22.8653C22.1788 25.2341 19.399 26.7408 16.1084 27.3549C16.6838 31.7178 20.5407 35.6668 27.595 39.1076L28.8652 39.7274L23.6571 49.3424L22.4814 48.7465C7.56353 41.1847 -0.000387772 30.498 -0.000387772 16.9831C-0.000387772 12.3205 1.47987 8.29304 4.39956 5.01224ZM22.5368 45.7222L25.1462 40.9055C17.2992 36.7937 13.3236 31.851 13.3236 26.1997V24.9897L14.5258 24.8535C17.7638 24.4871 20.3405 23.2326 22.4028 21.0185C24.4503 18.8205 25.4457 16.3537 25.4457 13.4766C25.4457 10.4045 24.4708 7.89291 22.4656 5.79767C20.4767 3.71945 18.0604 2.7092 15.0791 2.7092C11.7131 2.7092 8.88178 4.05177 6.42352 6.81342C3.92393 9.62192 2.70881 12.9484 2.70881 16.983C2.70881 23.1772 4.45305 28.7694 7.89277 33.6042C11.175 38.2172 16.0978 42.2898 22.5368 45.7222Z" fill="#0267AC"/>
<path d="M41.1233 5.0061C44.1167 1.68435 47.7248 0 51.8476 0C55.5592 0 58.6885 1.32286 61.1481 3.93174C63.5865 6.51809 64.823 9.7294 64.823 13.4766C64.823 17.0213 63.5547 20.18 61.0534 22.8653C58.8514 25.229 56.1051 26.7343 52.8756 27.3512C53.4442 31.7174 57.2689 35.6683 64.2666 39.1098L65.5176 39.7248L60.4391 49.3467L59.2517 48.7476C44.2662 41.1862 36.6678 30.4991 36.6678 16.983C36.6679 12.3168 38.1671 8.28715 41.1233 5.0061ZM59.2911 45.7176L61.8294 40.9083C54.0393 36.795 50.0921 31.8511 50.0921 26.1996V24.9922L51.2916 24.8538C54.4633 24.4878 57.0082 23.2333 59.0711 21.0184C61.1187 18.8205 62.1138 16.3536 62.1138 13.4766C62.1138 10.4006 61.1531 7.88625 59.177 5.79037C57.2224 3.71715 54.8248 2.7092 51.8476 2.7092C48.4783 2.7092 45.6284 4.05368 43.1361 6.81969C40.6067 9.62665 39.3771 12.9512 39.3771 16.983C39.3771 23.1762 41.1289 28.7676 44.5843 33.6019C47.8807 38.2136 52.8246 42.2856 59.2911 45.7176Z" fill="#0267AC"/>
</svg>
