<svg width="61" height="61" viewBox="0 0 61 61" fill="none" xmlns="http://www.w3.org/2000/svg">
<rect width="60.76" height="60.76" rx="17.36" fill="#0267AC"/>
<path d="M45.6738 21.5008H44.0235C45.985 20.6531 47.0138 19.6161 47.0138 18.469C47.0138 16.9512 45.2526 15.6499 41.9208 14.7028C40.4826 12.4918 38.0728 11.0391 35.3475 11.0391C34.4067 11.0391 33.4837 11.2105 32.6018 11.5495C31.8669 11.8355 29.5893 11.8354 28.851 11.5488C27.9737 11.2106 27.0513 11.0391 26.1095 11.0391C23.4847 11.0391 21.1524 12.3866 19.6991 14.4612C16.881 15.15 13.6923 16.3893 13.6923 18.469C13.6923 19.9501 15.3752 21.2272 18.5629 22.1704C18.8666 23.1172 19.327 24.0062 19.9305 24.7865C21.1026 26.3056 22.0741 31.0447 22.7169 34.1809C22.8863 35.0074 23.0326 35.7212 23.1637 36.2918C23.3796 37.2354 24.0774 37.8694 24.9001 37.8694C25.6627 37.8694 26.2887 37.3156 26.6173 36.3509L29.711 27.3053C30.3068 27.1124 31.1493 27.1124 31.7436 27.305L34.8377 36.3519C35.1697 37.3163 35.7963 37.8693 36.5569 37.8693C37.3762 37.8693 38.0738 37.2361 38.2932 36.2916C38.422 35.728 38.566 35.0251 38.7326 34.2111C39.0587 32.6191 39.4586 30.6678 39.924 28.9116H42.7202C43.0443 28.9116 43.3071 28.6488 43.3071 28.3247V25.9607H45.6736C45.9977 25.9607 46.2605 25.6979 46.2605 25.3738V22.0877C46.2606 21.7635 45.9979 21.5008 45.6738 21.5008ZM45.8401 18.469C45.8401 19.132 44.9079 19.8807 43.3072 20.5287V19.9011C43.3151 19.7405 43.319 19.5966 43.319 19.4622C43.319 18.2962 43.0935 17.1849 42.6864 16.1741C44.9868 16.9795 45.8401 17.8617 45.8401 18.469ZM26.1095 12.2128C26.9064 12.2128 27.6868 12.358 28.4276 12.6435C29.4391 13.0361 32.0185 13.036 33.0252 12.6443C33.7699 12.358 34.5512 12.2128 35.3475 12.2128C38.806 12.2128 41.6696 14.9816 42.0916 18.5497H39.4366C39.1125 18.5497 38.8497 18.8125 38.8497 19.1366V21.5008H36.4831C36.159 21.5008 35.8962 21.7636 35.8962 22.0877V22.1435C34.1195 22.3313 32.2581 22.4274 30.3529 22.4274C26.2845 22.4274 22.4566 21.9991 19.5155 21.2185C19.3819 20.6474 19.3115 20.0577 19.3115 19.4622C19.3116 15.4649 22.3612 12.2128 26.1095 12.2128ZM14.8661 18.469C14.8661 17.7912 15.9499 16.7629 18.8896 15.8939C18.4078 16.978 18.1378 18.1873 18.1378 19.4621C18.1378 19.926 18.1753 20.3869 18.2466 20.8405C15.7745 20.0129 14.8661 19.0934 14.8661 18.469ZM37.5828 33.9756C37.4175 34.7826 37.2748 35.4796 37.1495 36.028C37.0567 36.4273 36.8186 36.6954 36.5569 36.6954C36.2234 36.6954 36.0062 36.1401 35.948 35.9709L32.7665 26.6687C32.7148 26.5177 32.604 26.3943 32.4593 26.3268C31.4895 25.8742 29.9681 25.8741 28.9959 26.3266C28.851 26.3939 28.7399 26.5176 28.6882 26.6687L25.5065 35.9716C25.4487 36.1414 25.234 36.6954 24.9002 36.6954C24.637 36.6954 24.3991 36.428 24.3079 36.0295C24.1798 35.472 24.0348 34.7644 23.8668 33.945C23.1625 30.5092 22.198 25.8036 20.8594 24.069C20.4964 23.5996 20.1936 23.084 19.9541 22.5377C22.8782 23.2262 26.5172 23.6011 30.3532 23.6011C32.2552 23.6011 34.1163 23.5076 35.8965 23.324V25.3736C35.8965 25.6978 36.1593 25.9605 36.4834 25.9605H38.85V28.3246C38.85 28.342 38.8511 28.3592 38.8526 28.3764C38.3512 30.2258 37.9264 32.2981 37.5828 33.9756ZM45.0869 24.7868H42.7204C42.3963 24.7868 42.1335 25.0496 42.1335 25.3737V27.7378H40.0236V25.3737C40.0236 25.0495 39.7608 24.7868 39.4367 24.7868H37.0701V22.6746H39.4367C39.7608 22.6746 40.0236 22.4118 40.0236 22.0877V19.7235H42.1335V22.0877C42.1335 22.4119 42.3963 22.6746 42.7204 22.6746H45.0869V24.7868ZM41.8975 39.9176L36.5721 43.3322C36.3162 42.568 35.7147 41.9438 34.9116 41.6768L25.593 38.5952C24.3665 38.1889 23.1347 38.33 22.0314 39.0025L17.9745 41.4697L17.6563 40.9705C17.4821 40.6971 17.1192 40.6168 16.8459 40.7911L12.2577 43.716C12.1265 43.7998 12.0338 43.9321 12.0002 44.0841C11.9666 44.2362 11.9947 44.3953 12.0784 44.5265L17.9186 53.6837C18.0024 53.815 18.1347 53.9076 18.2867 53.9411C18.3287 53.9505 18.3711 53.9551 18.4135 53.9551C18.5244 53.9551 18.6341 53.9236 18.7291 53.863L23.3148 50.9381C23.588 50.7638 23.6683 50.401 23.4941 50.1278L22.8182 49.0676L24.5552 48.0111L31.9699 50.4635C32.4689 50.6285 32.9677 50.7106 33.4594 50.7106C34.3186 50.7106 35.1558 50.4599 35.9328 49.9632L44.7248 44.3268C45.9386 43.5463 46.2928 41.9239 45.5144 40.7102C44.7349 39.495 43.1126 39.1391 41.8975 39.9176ZM18.5927 52.5577L13.3836 44.3903L16.9819 42.0964L22.1888 50.264L18.5927 52.5577ZM44.0906 43.3391L35.3 48.9746C34.3868 49.5583 33.3627 49.6878 32.3385 49.3491L24.6663 46.8115C24.5028 46.7575 24.324 46.7778 24.177 46.8672L22.1871 48.0775L18.6056 42.4598L22.6418 40.0052C23.4535 39.5105 24.3224 39.4109 25.2243 39.7096L34.5423 42.791C35.1523 42.9938 35.5506 43.571 35.5322 44.2095C35.5271 44.2312 35.5229 44.2532 35.5203 44.2758C35.4645 44.7537 35.2002 45.1969 34.8306 45.4323C34.4883 45.6505 34.0856 45.6851 33.6335 45.5355L29.3899 44.1313C29.082 44.0296 28.7502 44.1964 28.6483 44.5041C28.5465 44.8119 28.7134 45.1439 29.0211 45.2456L33.2646 46.6498C33.5645 46.7491 33.8642 46.7983 34.1558 46.7983C34.6232 46.7983 35.0697 46.6718 35.4613 46.4222C36.0574 46.0423 36.485 45.4049 36.6404 44.6827L42.5309 40.9057C43.201 40.4765 44.0963 40.6729 44.5265 41.3437C44.9558 42.0134 44.76 42.9086 44.0906 43.3391ZM43.7943 33.868V34.6877H44.6141C44.9382 34.6877 45.201 34.9505 45.201 35.2746C45.201 35.5987 44.9382 35.8615 44.6141 35.8615H43.7943V36.6836C43.7943 37.0078 43.5315 37.2705 43.2074 37.2705C42.8833 37.2705 42.6205 37.0077 42.6205 36.6836V35.8615H41.7984C41.4743 35.8615 41.2115 35.5987 41.2115 35.2746C41.2115 34.9505 41.4743 34.6877 41.7984 34.6877H42.6205V33.868C42.6205 33.5439 42.8833 33.2811 43.2074 33.2811C43.5315 33.2811 43.7943 33.5439 43.7943 33.868ZM18.7985 27.0773V27.8994H19.6206C19.9447 27.8994 20.2075 28.1622 20.2075 28.4863C20.2075 28.8104 19.9447 29.0732 19.6206 29.0732H18.7985V29.8953C18.7985 30.2195 18.5357 30.4822 18.2116 30.4822C17.8875 30.4822 17.6247 30.2194 17.6247 29.8953V29.0732H16.8026C16.4785 29.0732 16.2157 28.8104 16.2157 28.4863C16.2157 28.1622 16.4785 27.8994 16.8026 27.8994H17.6247V27.0773C17.6247 26.7531 17.8875 26.4904 18.2116 26.4904C18.5357 26.4904 18.7985 26.7532 18.7985 27.0773Z" fill="white"/>
</svg>
