<svg width="150" height="150" viewBox="0 0 150 150" fill="none" xmlns="http://www.w3.org/2000/svg">
<g opacity="0.8">
<path d="M105.455 87.7344H91.8184C91.1366 87.7344 90.2275 88.1889 89.7729 88.8707L75.0002 113.189L60.2275 88.8707C59.7729 88.1889 59.0911 87.7344 58.182 87.7344H44.3184C30.4547 87.7344 19.3184 98.8707 19.3184 112.734V145.462C19.3184 146.825 20.2275 147.734 21.5911 147.734H128.182C129.546 147.734 130.455 146.825 130.455 145.462V112.962C130.455 99.098 119.318 87.7344 105.455 87.7344ZM125.909 143.189H24.0911V112.962C24.0911 101.598 33.182 92.5071 44.5456 92.5071H57.2729L73.4093 118.871C74.3184 120.234 76.3638 120.234 77.2729 118.871L93.182 92.2798H105.455C116.818 92.2798 125.909 101.371 125.909 112.734V143.189Z" fill="white"/>
<path d="M40.0002 54.5472C40.9093 57.7291 37.2729 64.0927 40.4548 68.4109C43.4093 72.7291 50.9093 71.1381 53.4093 72.9563C55.9093 74.7745 56.8184 82.2745 61.8184 83.8654C66.5911 85.4563 71.8184 80.0018 75.0002 80.0018C78.4093 80.0018 83.4093 85.4563 88.182 83.8654C93.182 82.2745 94.0911 74.7745 96.5911 72.9563C99.0911 71.1381 106.591 72.5018 109.546 68.4109C112.5 64.32 108.864 57.7291 110 54.5472C110.909 51.5927 117.727 48.4109 117.727 43.1836C117.727 40.0018 115.227 37.5018 112.955 35.4563C111.591 34.0927 110.227 32.9563 110 31.82C109.091 28.8654 112.727 22.2745 109.546 17.9563C106.364 13.6381 99.0911 15.229 96.5911 13.4109C94.0911 11.5927 93.182 4.09268 88.182 2.50177C83.4093 0.910862 78.182 6.36541 75.0002 6.36541C71.5911 6.36541 66.5911 0.910862 61.8184 2.50177C56.8184 4.09268 55.9093 11.5927 53.4093 13.4109C50.9093 15.229 43.4093 13.8654 40.4548 17.9563C37.5002 22.0472 41.1366 28.6381 40.0002 31.82C39.0911 34.7745 32.2729 37.9563 32.2729 43.1836C32.2729 48.6381 39.0911 51.5927 40.0002 54.5472ZM44.3184 33.4109C45.682 29.32 42.7275 22.729 44.0911 20.9109C45.4548 18.8654 52.5002 20.0018 56.1366 17.2745C59.773 14.5472 60.9093 6.81995 63.6366 6.81995C66.1366 6.81995 70.682 11.1381 75.0002 11.1381C79.5457 11.1381 84.5457 6.36541 86.8184 7.04723C89.0911 7.72904 90.4548 14.7745 93.8639 17.2745C97.5002 20.0018 104.318 18.8654 105.909 20.9109C107.273 22.729 104.318 29.0927 105.682 33.4109C107.046 37.729 113.182 40.6836 113.182 43.4109C113.182 45.9109 107.046 49.0927 105.682 53.4109C104.318 57.5018 107.273 64.0927 105.909 65.9109C104.546 67.9563 97.5002 66.82 93.8639 69.5472C90.2275 72.0472 89.0911 79.0927 86.8184 79.7745C84.7729 80.4563 79.5457 75.6836 75.0002 75.6836C70.4548 75.6836 65.4548 80.4563 63.182 79.7745C60.9093 79.0927 59.5457 72.0472 56.1366 69.5472C52.5002 66.82 45.682 67.9563 44.0911 65.9109C42.7275 64.0927 45.682 57.5018 44.3184 53.4109C42.9548 49.0927 36.8184 46.1381 36.8184 43.4109C36.8184 40.6836 42.9548 37.5018 44.3184 33.4109Z" fill="white"/>
<path d="M75 68.1797C88.8636 68.1797 100 57.0433 100 43.1797C100 29.3161 88.8636 18.1797 75 18.1797C61.1364 18.1797 50 29.5433 50 43.1797C50 56.8161 61.1364 68.1797 75 68.1797ZM75 22.7251C86.3636 22.7251 95.4545 31.8161 95.4545 43.1797C95.4545 54.5433 86.3636 63.6342 75 63.6342C63.6364 63.6342 54.5455 54.5433 54.5455 43.1797C54.5455 32.0433 63.6364 22.7251 75 22.7251Z" fill="white"/>
<path d="M70.4547 39.5517L73.8638 36.5972V52.5063H71.1365C69.7728 52.5063 68.8637 53.4154 68.8637 54.779C68.8637 56.1427 69.7728 57.0517 71.1365 57.0517H81.3637C82.7274 57.0517 83.6365 56.1427 83.6365 54.779C83.6365 53.4154 82.7274 52.5063 81.3637 52.5063H78.6365V31.8245C78.6365 30.9154 78.1819 30.2336 77.2728 29.779C76.3638 29.3245 75.4547 29.5517 74.7728 30.0063L67.7274 36.1427C66.8183 37.0517 66.591 38.4154 67.5001 39.3245C67.9547 40.2336 69.3183 40.4608 70.4547 39.5517Z" fill="white"/>
</g>
</svg>
