<svg width="61" height="61" viewBox="0 0 61 61" fill="none" xmlns="http://www.w3.org/2000/svg">
<rect width="60.76" height="60.76" rx="17.36" fill="#0267AC"/>
<mask id="path-2-inside-1_2508_94" fill="white">
<path d="M51.5432 32.9405H51.2137C51.1785 32.574 51.1371 32.224 51.0896 31.8916C51.2877 31.4792 51.4146 31.0191 51.4484 30.5311L51.9906 22.8053C52.0636 21.7554 51.7075 20.7324 51.0139 19.9986C50.405 19.3548 49.6008 19 48.749 19H11.2509C10.3992 19 9.595 19.3547 8.98613 19.9986C8.29236 20.7324 7.93635 21.7554 8.00938 22.8053L8.55161 30.5311C8.58995 31.0785 8.74331 31.59 8.98613 32.0383C8.94633 32.3264 8.91109 32.6274 8.8806 32.9406H8.45668C8.20464 32.9406 8.00025 33.1422 8.00025 33.3909C8.00025 33.6395 8.20464 33.8411 8.45668 33.8411H8.80885C8.74313 34.8939 8.72962 36.0757 8.78439 37.4023C8.78895 37.5195 8.84007 37.6301 8.92679 37.7103C9.01625 37.7949 9.88711 38.5522 12.7316 39.2095C12.7443 39.2121 12.7589 39.215 12.7726 39.2167C12.8557 39.2284 13.858 39.3616 15.0666 39.3616C16.2232 39.3616 17.5697 39.2392 18.4734 38.7682C19.0695 39.0698 20.6661 39.7065 23.9195 39.9982C23.9331 39.9991 23.9468 40 23.9614 40C24.1449 40 28.2683 39.9857 30.0766 38.7763C30.6855 39.0807 32.283 39.7092 35.5081 39.9982C35.5218 39.9991 35.5355 40 35.5492 40C35.7337 40 39.8825 39.9857 41.6826 38.7647C42.5854 39.2077 43.8953 39.3247 45.0245 39.3247C46.2322 39.3247 47.2355 39.1915 47.3185 39.1798C47.3322 39.178 47.3459 39.1753 47.3595 39.1726C50.2031 38.5143 51.0748 37.7571 51.1643 37.6734C51.251 37.5924 51.3012 37.4825 51.3068 37.3654C51.3613 36.0541 51.348 34.885 51.2841 33.8411H51.5432C51.7954 33.8411 51.9997 33.6395 51.9997 33.3909C51.9997 33.1422 51.7954 32.9405 51.5432 32.9405ZM48.5299 32.8711V32.2652C48.5299 31.9879 48.3017 31.7628 48.0205 31.7628H47.8891C47.607 31.7628 47.3788 31.9879 47.3788 32.2652V32.8226H45.1378V32.2652C45.1378 31.9879 44.9095 31.7628 44.6284 31.7628H44.497C44.2149 31.7628 43.9867 31.9879 43.9867 32.2652V32.8974V32.9405H42.3684C42.3702 32.9262 42.3719 32.9118 42.3736 32.8974C42.8109 29.4901 43.6973 27.2363 44.9415 26.3718C45.6354 25.8901 46.4451 25.8398 47.4181 26.2178C47.4227 26.2197 47.4208 26.2188 47.4254 26.2205C47.4509 26.2314 49.398 27.0499 50.143 31.733C50.2032 32.1099 50.2553 32.5122 50.2979 32.9405H48.5299V32.8711ZM38.1079 32.8973V32.2651C38.1079 31.9878 37.8797 31.7627 37.5976 31.7627H37.4671C37.185 31.7627 36.9568 31.9878 36.9568 32.2651V32.8225H34.7157V32.2651C34.7157 31.9878 34.4875 31.7627 34.2055 31.7627H34.074C33.7928 31.7627 33.5646 31.9878 33.5646 32.2651V32.8973V32.9405H30.8097C30.8116 32.9263 30.8132 32.9114 30.8151 32.8973C31.3721 28.7256 32.5687 26.6572 33.6167 25.6325C34.6199 24.6519 35.478 24.6339 35.5373 24.6339H35.5492C36.5497 24.6339 37.3996 25.0022 38.1462 25.7585C39.7054 27.3379 40.4648 30.2715 40.8336 32.8972C40.8356 32.9116 40.8373 32.9259 40.8393 32.9404H38.1079V32.8973ZM26.396 32.8973V32.2651C26.396 31.9878 26.1669 31.7627 25.8857 31.7627H25.7544C25.4732 31.7627 25.2441 31.9878 25.2441 32.2651V32.8225H23.004V32.2651C23.004 31.9878 22.7748 31.7627 22.4937 31.7627H22.3622C22.0802 31.7627 21.8519 31.9878 21.8519 32.2651V32.8973V32.9405H19.2211C19.223 32.9263 19.2247 32.9114 19.2266 32.8973C19.7843 28.7256 20.9811 26.6572 22.029 25.6325C23.0323 24.6519 23.8904 24.6339 23.9488 24.6339H23.9615C24.9611 24.6339 25.811 25.0022 26.5586 25.7585C28.1177 27.3379 28.8772 30.2715 29.2451 32.8972C29.2471 32.9116 29.2489 32.9259 29.2509 32.9404H26.396V32.8973ZM16.1045 32.8973V32.2651C16.1045 31.9878 15.8763 31.7627 15.5943 31.7627H15.4628C15.1816 31.7627 14.9525 31.9878 14.9525 32.2651V32.8225H12.7124V32.2651C12.7124 31.9878 12.4833 31.7627 12.2021 31.7627H12.0707C11.7886 31.7627 11.5604 31.9878 11.5604 32.2651V32.8837V32.9405H9.79765C9.83609 32.5582 9.88246 32.1956 9.93549 31.8545C10.6658 27.1263 12.6147 26.278 12.6649 26.2583C12.6677 26.2565 12.6704 26.2556 12.6731 26.2547C13.6462 25.8765 14.4559 25.9269 15.1497 26.4087C16.3893 27.2686 17.2739 29.5107 17.7121 32.8973C17.714 32.9115 17.7156 32.9261 17.7175 32.9405H16.1045V32.8973ZM8.9204 22.743C8.86472 21.9408 9.13127 21.1646 9.65342 20.6126C10.0879 20.1534 10.6557 19.9004 11.2509 19.9004H48.749C49.3443 19.9004 49.912 20.1535 50.3465 20.6126C50.8687 21.1646 51.1361 21.9408 51.0795 22.743L50.6003 29.5792C49.6034 26.1611 47.9347 25.448 47.7494 25.3787C46.487 24.8897 45.3661 24.9761 44.4157 25.6354C42.8319 26.7357 42.0167 29.3254 41.5995 31.8745C41.061 28.7338 40.1207 26.4692 38.8007 25.1311C37.886 24.2046 36.7925 23.7335 35.5501 23.7335C35.4059 23.7326 34.263 23.7641 33.0279 24.941C31.3903 26.5024 30.4965 29.156 30.0328 31.9996C29.497 28.794 28.5503 26.4863 27.213 25.1311C26.2974 24.2046 25.2038 23.7335 23.9624 23.7335C23.8163 23.7326 22.6743 23.7641 21.4402 24.941C19.8372 26.4682 18.9472 29.0425 18.4752 31.8159C18.0544 29.2983 17.2401 26.7591 15.6755 25.6731C14.7252 25.0131 13.6042 24.9266 12.3418 25.4156C12.1528 25.4867 10.4056 26.2323 9.41973 29.87L8.9204 22.743ZM12.9187 38.3279C10.9241 37.8642 10.004 37.3589 9.68811 37.1528C9.64329 35.9164 9.66018 34.8176 9.72326 33.841H11.5604V34.5163C11.5604 34.7936 11.7886 35.0188 12.0707 35.0188H12.2021C12.4833 35.0188 12.7124 34.7936 12.7124 34.5163V33.9589H14.9525V34.5163C14.9525 34.7936 15.1816 35.0188 15.4628 35.0188H15.5943C15.8763 35.0188 16.1045 34.7936 16.1045 34.5163V33.841H17.8184C17.9662 35.3319 17.9978 36.6761 18.0004 37.477C17.9977 37.6535 17.9959 37.8273 17.9959 37.9993C16.6824 38.6484 13.942 38.4648 12.9187 38.3279ZM18.9134 37.9785C18.9153 37.8254 18.917 37.6183 18.9153 37.3671C18.9368 36.063 19.0067 34.8926 19.1147 33.841H21.8519V34.5163C21.8519 34.7936 22.0802 35.0188 22.3622 35.0188H22.4937C22.7748 35.0188 23.004 34.7936 23.004 34.5163V33.9589H25.2441V34.5163C25.2441 34.7936 25.4732 35.0188 25.7544 35.0188H25.8857C26.1669 35.0188 26.396 34.7936 26.396 34.5163V33.841H29.3629C29.5494 35.5208 29.5837 36.9755 29.5864 37.712C29.5855 37.8146 29.5846 37.9164 29.5846 38.018C28.3258 38.8951 25.1673 39.0968 23.9815 39.0995C20.8833 38.8195 19.4063 38.2225 18.9134 37.9785ZM41.1751 38.0172C39.9163 38.8952 36.756 39.0969 35.5693 39.0996C32.4675 38.8196 30.9904 38.2207 30.5003 37.9777C30.5012 37.8822 30.5021 37.7624 30.5003 37.622V37.6184C30.5165 36.2127 30.5889 34.9595 30.7033 33.8411H33.5647V34.5164C33.5647 34.7937 33.7929 35.0188 34.0741 35.0188H34.2055C34.4876 35.0188 34.7158 34.7937 34.7158 34.5164V33.959H36.9569V34.5164C36.9569 34.7937 37.1851 35.0188 37.4672 35.0188H37.5978C37.8799 35.0188 38.1081 34.7937 38.1081 34.5164V33.8411H40.9516C41.1264 35.4212 41.167 36.8015 41.1743 37.5725C41.1743 37.6076 41.1752 37.6418 41.1752 37.6752C41.1761 37.7328 41.1761 37.7867 41.1761 37.8363V37.8552C41.176 37.9164 41.1751 37.9704 41.1751 38.0172ZM50.4031 37.115C50.0827 37.3239 49.1616 37.829 47.1725 38.291C46.1474 38.4279 43.4033 38.6115 42.0916 37.9605C42.0834 37.3556 42.0844 35.7183 42.2682 33.841H43.9867V34.5163C43.9867 34.7936 44.2149 35.0188 44.497 35.0188H44.6284C44.9095 35.0188 45.1378 34.7936 45.1378 34.5163V33.9589H47.3788V34.5163C47.3788 34.7936 47.607 35.0188 47.8891 35.0188H48.0205C48.3017 35.0188 48.5299 34.7936 48.5299 34.5163V33.841H50.3706C50.4317 34.8077 50.4474 35.8942 50.4031 37.115Z"/>
</mask>
<path d="M51.5432 32.9405H51.2137C51.1785 32.574 51.1371 32.224 51.0896 31.8916C51.2877 31.4792 51.4146 31.0191 51.4484 30.5311L51.9906 22.8053C52.0636 21.7554 51.7075 20.7324 51.0139 19.9986C50.405 19.3548 49.6008 19 48.749 19H11.2509C10.3992 19 9.595 19.3547 8.98613 19.9986C8.29236 20.7324 7.93635 21.7554 8.00938 22.8053L8.55161 30.5311C8.58995 31.0785 8.74331 31.59 8.98613 32.0383C8.94633 32.3264 8.91109 32.6274 8.8806 32.9406H8.45668C8.20464 32.9406 8.00025 33.1422 8.00025 33.3909C8.00025 33.6395 8.20464 33.8411 8.45668 33.8411H8.80885C8.74313 34.8939 8.72962 36.0757 8.78439 37.4023C8.78895 37.5195 8.84007 37.6301 8.92679 37.7103C9.01625 37.7949 9.88711 38.5522 12.7316 39.2095C12.7443 39.2121 12.7589 39.215 12.7726 39.2167C12.8557 39.2284 13.858 39.3616 15.0666 39.3616C16.2232 39.3616 17.5697 39.2392 18.4734 38.7682C19.0695 39.0698 20.6661 39.7065 23.9195 39.9982C23.9331 39.9991 23.9468 40 23.9614 40C24.1449 40 28.2683 39.9857 30.0766 38.7763C30.6855 39.0807 32.283 39.7092 35.5081 39.9982C35.5218 39.9991 35.5355 40 35.5492 40C35.7337 40 39.8825 39.9857 41.6826 38.7647C42.5854 39.2077 43.8953 39.3247 45.0245 39.3247C46.2322 39.3247 47.2355 39.1915 47.3185 39.1798C47.3322 39.178 47.3459 39.1753 47.3595 39.1726C50.2031 38.5143 51.0748 37.7571 51.1643 37.6734C51.251 37.5924 51.3012 37.4825 51.3068 37.3654C51.3613 36.0541 51.348 34.885 51.2841 33.8411H51.5432C51.7954 33.8411 51.9997 33.6395 51.9997 33.3909C51.9997 33.1422 51.7954 32.9405 51.5432 32.9405ZM48.5299 32.8711V32.2652C48.5299 31.9879 48.3017 31.7628 48.0205 31.7628H47.8891C47.607 31.7628 47.3788 31.9879 47.3788 32.2652V32.8226H45.1378V32.2652C45.1378 31.9879 44.9095 31.7628 44.6284 31.7628H44.497C44.2149 31.7628 43.9867 31.9879 43.9867 32.2652V32.8974V32.9405H42.3684C42.3702 32.9262 42.3719 32.9118 42.3736 32.8974C42.8109 29.4901 43.6973 27.2363 44.9415 26.3718C45.6354 25.8901 46.4451 25.8398 47.4181 26.2178C47.4227 26.2197 47.4208 26.2188 47.4254 26.2205C47.4509 26.2314 49.398 27.0499 50.143 31.733C50.2032 32.1099 50.2553 32.5122 50.2979 32.9405H48.5299V32.8711ZM38.1079 32.8973V32.2651C38.1079 31.9878 37.8797 31.7627 37.5976 31.7627H37.4671C37.185 31.7627 36.9568 31.9878 36.9568 32.2651V32.8225H34.7157V32.2651C34.7157 31.9878 34.4875 31.7627 34.2055 31.7627H34.074C33.7928 31.7627 33.5646 31.9878 33.5646 32.2651V32.8973V32.9405H30.8097C30.8116 32.9263 30.8132 32.9114 30.8151 32.8973C31.3721 28.7256 32.5687 26.6572 33.6167 25.6325C34.6199 24.6519 35.478 24.6339 35.5373 24.6339H35.5492C36.5497 24.6339 37.3996 25.0022 38.1462 25.7585C39.7054 27.3379 40.4648 30.2715 40.8336 32.8972C40.8356 32.9116 40.8373 32.9259 40.8393 32.9404H38.1079V32.8973ZM26.396 32.8973V32.2651C26.396 31.9878 26.1669 31.7627 25.8857 31.7627H25.7544C25.4732 31.7627 25.2441 31.9878 25.2441 32.2651V32.8225H23.004V32.2651C23.004 31.9878 22.7748 31.7627 22.4937 31.7627H22.3622C22.0802 31.7627 21.8519 31.9878 21.8519 32.2651V32.8973V32.9405H19.2211C19.223 32.9263 19.2247 32.9114 19.2266 32.8973C19.7843 28.7256 20.9811 26.6572 22.029 25.6325C23.0323 24.6519 23.8904 24.6339 23.9488 24.6339H23.9615C24.9611 24.6339 25.811 25.0022 26.5586 25.7585C28.1177 27.3379 28.8772 30.2715 29.2451 32.8972C29.2471 32.9116 29.2489 32.9259 29.2509 32.9404H26.396V32.8973ZM16.1045 32.8973V32.2651C16.1045 31.9878 15.8763 31.7627 15.5943 31.7627H15.4628C15.1816 31.7627 14.9525 31.9878 14.9525 32.2651V32.8225H12.7124V32.2651C12.7124 31.9878 12.4833 31.7627 12.2021 31.7627H12.0707C11.7886 31.7627 11.5604 31.9878 11.5604 32.2651V32.8837V32.9405H9.79765C9.83609 32.5582 9.88246 32.1956 9.93549 31.8545C10.6658 27.1263 12.6147 26.278 12.6649 26.2583C12.6677 26.2565 12.6704 26.2556 12.6731 26.2547C13.6462 25.8765 14.4559 25.9269 15.1497 26.4087C16.3893 27.2686 17.2739 29.5107 17.7121 32.8973C17.714 32.9115 17.7156 32.9261 17.7175 32.9405H16.1045V32.8973ZM8.9204 22.743C8.86472 21.9408 9.13127 21.1646 9.65342 20.6126C10.0879 20.1534 10.6557 19.9004 11.2509 19.9004H48.749C49.3443 19.9004 49.912 20.1535 50.3465 20.6126C50.8687 21.1646 51.1361 21.9408 51.0795 22.743L50.6003 29.5792C49.6034 26.1611 47.9347 25.448 47.7494 25.3787C46.487 24.8897 45.3661 24.9761 44.4157 25.6354C42.8319 26.7357 42.0167 29.3254 41.5995 31.8745C41.061 28.7338 40.1207 26.4692 38.8007 25.1311C37.886 24.2046 36.7925 23.7335 35.5501 23.7335C35.4059 23.7326 34.263 23.7641 33.0279 24.941C31.3903 26.5024 30.4965 29.156 30.0328 31.9996C29.497 28.794 28.5503 26.4863 27.213 25.1311C26.2974 24.2046 25.2038 23.7335 23.9624 23.7335C23.8163 23.7326 22.6743 23.7641 21.4402 24.941C19.8372 26.4682 18.9472 29.0425 18.4752 31.8159C18.0544 29.2983 17.2401 26.7591 15.6755 25.6731C14.7252 25.0131 13.6042 24.9266 12.3418 25.4156C12.1528 25.4867 10.4056 26.2323 9.41973 29.87L8.9204 22.743ZM12.9187 38.3279C10.9241 37.8642 10.004 37.3589 9.68811 37.1528C9.64329 35.9164 9.66018 34.8176 9.72326 33.841H11.5604V34.5163C11.5604 34.7936 11.7886 35.0188 12.0707 35.0188H12.2021C12.4833 35.0188 12.7124 34.7936 12.7124 34.5163V33.9589H14.9525V34.5163C14.9525 34.7936 15.1816 35.0188 15.4628 35.0188H15.5943C15.8763 35.0188 16.1045 34.7936 16.1045 34.5163V33.841H17.8184C17.9662 35.3319 17.9978 36.6761 18.0004 37.477C17.9977 37.6535 17.9959 37.8273 17.9959 37.9993C16.6824 38.6484 13.942 38.4648 12.9187 38.3279ZM18.9134 37.9785C18.9153 37.8254 18.917 37.6183 18.9153 37.3671C18.9368 36.063 19.0067 34.8926 19.1147 33.841H21.8519V34.5163C21.8519 34.7936 22.0802 35.0188 22.3622 35.0188H22.4937C22.7748 35.0188 23.004 34.7936 23.004 34.5163V33.9589H25.2441V34.5163C25.2441 34.7936 25.4732 35.0188 25.7544 35.0188H25.8857C26.1669 35.0188 26.396 34.7936 26.396 34.5163V33.841H29.3629C29.5494 35.5208 29.5837 36.9755 29.5864 37.712C29.5855 37.8146 29.5846 37.9164 29.5846 38.018C28.3258 38.8951 25.1673 39.0968 23.9815 39.0995C20.8833 38.8195 19.4063 38.2225 18.9134 37.9785ZM41.1751 38.0172C39.9163 38.8952 36.756 39.0969 35.5693 39.0996C32.4675 38.8196 30.9904 38.2207 30.5003 37.9777C30.5012 37.8822 30.5021 37.7624 30.5003 37.622V37.6184C30.5165 36.2127 30.5889 34.9595 30.7033 33.8411H33.5647V34.5164C33.5647 34.7937 33.7929 35.0188 34.0741 35.0188H34.2055C34.4876 35.0188 34.7158 34.7937 34.7158 34.5164V33.959H36.9569V34.5164C36.9569 34.7937 37.1851 35.0188 37.4672 35.0188H37.5978C37.8799 35.0188 38.1081 34.7937 38.1081 34.5164V33.8411H40.9516C41.1264 35.4212 41.167 36.8015 41.1743 37.5725C41.1743 37.6076 41.1752 37.6418 41.1752 37.6752C41.1761 37.7328 41.1761 37.7867 41.1761 37.8363V37.8552C41.176 37.9164 41.1751 37.9704 41.1751 38.0172ZM50.4031 37.115C50.0827 37.3239 49.1616 37.829 47.1725 38.291C46.1474 38.4279 43.4033 38.6115 42.0916 37.9605C42.0834 37.3556 42.0844 35.7183 42.2682 33.841H43.9867V34.5163C43.9867 34.7936 44.2149 35.0188 44.497 35.0188H44.6284C44.9095 35.0188 45.1378 34.7936 45.1378 34.5163V33.9589H47.3788V34.5163C47.3788 34.7936 47.607 35.0188 47.8891 35.0188H48.0205C48.3017 35.0188 48.5299 34.7936 48.5299 34.5163V33.841H50.3706C50.4317 34.8077 50.4474 35.8942 50.4031 37.115Z" fill="white" stroke="white" stroke-width="20" mask="url(#path-2-inside-1_2508_94)"/>
</svg>
