<svg width="41" height="46" viewBox="0 0 41 46" fill="none" xmlns="http://www.w3.org/2000/svg">
<path d="M10.0665 6.28324V3.78324C9.99379 3.27386 10.0407 2.75455 10.2034 2.26643C10.3662 1.77831 10.6403 1.33478 11.0042 0.970941C11.368 0.607107 11.8115 0.332962 12.2997 0.170208C12.7878 0.00745313 13.3071 -0.0394418 13.8165 0.0332355H26.3165C26.8259 -0.0394418 27.3452 0.00745313 27.8333 0.170208C28.3214 0.332962 28.7649 0.607107 29.1288 0.970941C29.4926 1.33478 29.7667 1.77831 29.9295 2.26643C30.0923 2.75455 30.1391 3.27386 30.0665 3.78324V6.28324C30.1391 6.79262 30.0923 7.31192 29.9295 7.80004C29.7667 8.28816 29.4926 8.7317 29.1288 9.09553C28.7649 9.45936 28.3214 9.73351 27.8333 9.89626C27.3452 10.059 26.8259 10.1059 26.3165 10.0332H13.8165C13.3071 10.1059 12.7878 10.059 12.2997 9.89626C11.8115 9.73351 11.368 9.45936 11.0042 9.09553C10.6403 8.7317 10.3662 8.28816 10.2034 7.80004C10.0407 7.31192 9.99379 6.79262 10.0665 6.28324ZM40.0665 12.5332V37.5332C40.2118 38.552 40.118 39.5906 39.7925 40.5668C39.467 41.5431 38.9187 42.4302 38.1911 43.1578C37.4634 43.8855 36.5763 44.4338 35.6001 44.7593C34.6238 45.0848 33.5852 45.1786 32.5665 45.0332H7.56647C6.54771 45.1786 5.5091 45.0848 4.53286 44.7593C3.55662 44.4338 2.66955 43.8855 1.94188 43.1578C1.21421 42.4302 0.665924 41.5431 0.340415 40.5668C0.0149063 39.5906 -0.0788836 38.552 0.066471 37.5332V12.5332C0.066471 8.17824 1.94647 5.72574 5.72897 5.17574C5.80085 5.16743 5.87367 5.174 5.9429 5.19504C6.01213 5.21608 6.0763 5.25114 6.1314 5.29804C6.1865 5.34493 6.23137 5.40267 6.26321 5.46764C6.29505 5.53262 6.31318 5.60345 6.31647 5.67574V6.28324C6.24769 7.28589 6.39453 8.29164 6.74711 9.23278C7.09969 10.1739 7.64983 11.0286 8.36048 11.7392C9.07113 12.4499 9.92579 13 10.8669 13.3526C11.8081 13.7052 12.8138 13.852 13.8165 13.7832H26.3165C27.3191 13.852 28.3249 13.7052 29.266 13.3526C30.2071 13 31.0618 12.4499 31.7725 11.7392C32.4831 11.0286 33.0333 10.1739 33.3858 9.23278C33.7384 8.29164 33.8853 7.28589 33.8165 6.28324V5.68824C33.8198 5.61595 33.8379 5.54512 33.8697 5.48014C33.9016 5.41517 33.9464 5.35743 34.0015 5.31054C34.0566 5.26364 34.1208 5.22858 34.19 5.20754C34.2593 5.1865 34.3321 5.17993 34.404 5.18824C38.1865 5.72574 40.0665 8.17824 40.0665 12.5332ZM27.6415 20.3732C27.2896 20.0227 26.8131 19.8259 26.3165 19.8259C25.8198 19.8259 25.3434 20.0227 24.9915 20.3732L17.9915 27.3732L15.1415 24.5332C14.9684 24.3542 14.7615 24.2115 14.5327 24.1133C14.3039 24.0152 14.0578 23.9636 13.8088 23.9615C13.5599 23.9595 13.313 24.007 13.0826 24.1014C12.8522 24.1958 12.6429 24.3351 12.467 24.5113C12.291 24.6874 12.1519 24.8968 12.0577 25.1273C11.9636 25.3578 11.9162 25.6047 11.9185 25.8536C11.9208 26.1026 11.9726 26.3486 12.071 26.5773C12.1694 26.806 12.3123 27.0129 12.4915 27.1857L16.659 31.3507C16.8327 31.5252 17.0392 31.6636 17.2666 31.7581C17.494 31.8525 17.7378 31.9012 17.984 31.9012C18.2302 31.9012 18.474 31.8525 18.7014 31.7581C18.9287 31.6636 19.1352 31.5252 19.309 31.3507L27.6415 23.0332C27.8168 22.859 27.956 22.6518 28.051 22.4235C28.1459 22.1952 28.1948 21.9505 28.1948 21.7032C28.1948 21.456 28.1459 21.2112 28.051 20.983C27.956 20.7547 27.8168 20.5475 27.6415 20.3732Z" fill="#0267AC"/>
</svg>
