<svg width="99" height="24" viewBox="0 0 99 24" fill="none" xmlns="http://www.w3.org/2000/svg">
<path d="M0 2.99687C0 1.34174 1.34175 0 2.99688 0H93.6524C95.3076 0 96.6493 1.34175 96.6493 2.99688V23.2258H2.99687C1.34174 23.2258 0 21.8841 0 20.2289V2.99687Z" fill="white"/>
<path d="M90.6562 22.1027L95.1516 15.7344L98.5231 23.9758L90.6562 22.1027Z" fill="white"/>
<path d="M11.7463 16.4961V8.1092H12.7288L16.4909 14.4473H15.9637L19.6779 8.1092H20.6604L20.6724 16.4961H19.5222L19.5102 9.91838H19.7857L16.4789 15.4777H15.9278L12.597 9.91838H12.8965V16.4961H11.7463ZM25.8492 16.568C25.1703 16.568 24.5712 16.4282 24.052 16.1486C23.5408 15.8691 23.1414 15.4857 22.8539 14.9984C22.5743 14.5112 22.4345 13.9521 22.4345 13.3211C22.4345 12.69 22.5703 12.1309 22.8419 11.6437C23.1215 11.1564 23.5009 10.777 23.9801 10.5055C24.4674 10.2259 25.0145 10.0861 25.6216 10.0861C26.2366 10.0861 26.7798 10.2219 27.251 10.4935C27.7223 10.7651 28.0897 11.1485 28.3533 11.6437C28.6249 12.1309 28.7607 12.702 28.7607 13.357C28.7607 13.4049 28.7567 13.4608 28.7487 13.5247C28.7487 13.5886 28.7447 13.6485 28.7367 13.7045H23.3331V12.8778H28.1376L27.6704 13.1653C27.6783 12.7579 27.5945 12.3945 27.4188 12.075C27.243 11.7555 26.9994 11.5079 26.6879 11.3322C26.3844 11.1485 26.0289 11.0566 25.6216 11.0566C25.2222 11.0566 24.8667 11.1485 24.5552 11.3322C24.2437 11.5079 24.0001 11.7595 23.8244 12.087C23.6486 12.4065 23.5608 12.7739 23.5608 13.1893V13.381C23.5608 13.8043 23.6566 14.1837 23.8483 14.5192C24.048 14.8467 24.3236 15.1023 24.675 15.286C25.0265 15.4697 25.4299 15.5616 25.8851 15.5616C26.2606 15.5616 26.6 15.4977 26.9036 15.3699C27.2151 15.2421 27.4866 15.0504 27.7183 14.7948L28.3533 15.5376C28.0657 15.8731 27.7063 16.1287 27.275 16.3044C26.8516 16.4801 26.3764 16.568 25.8492 16.568ZM32.179 16.568C31.6518 16.568 31.1486 16.4961 30.6693 16.3523C30.1981 16.2085 29.8266 16.0328 29.5551 15.8251L30.0343 14.9146C30.3059 15.0983 30.6414 15.254 31.0407 15.3818C31.4401 15.5096 31.8475 15.5735 32.2628 15.5735C32.798 15.5735 33.1814 15.4977 33.413 15.3459C33.6527 15.1941 33.7725 14.9825 33.7725 14.7109C33.7725 14.5112 33.7006 14.3554 33.5568 14.2436C33.413 14.1318 33.2213 14.0479 32.9817 13.992C32.7501 13.9361 32.4905 13.8882 32.2029 13.8482C31.9154 13.8003 31.6278 13.7444 31.3403 13.6805C31.0527 13.6086 30.7891 13.5128 30.5495 13.3929C30.3099 13.2651 30.1182 13.0934 29.9744 12.8778C29.8306 12.6541 29.7587 12.3586 29.7587 11.9911C29.7587 11.6077 29.8666 11.2723 30.0822 10.9847C30.2979 10.6972 30.6014 10.4775 30.9928 10.3257C31.3922 10.166 31.8635 10.0861 32.4066 10.0861C32.822 10.0861 33.2413 10.138 33.6646 10.2419C34.096 10.3377 34.4474 10.4775 34.719 10.6612L34.2278 11.5718C33.9402 11.3801 33.6407 11.2483 33.3292 11.1764C33.0177 11.1045 32.7061 11.0686 32.3946 11.0686C31.8914 11.0686 31.516 11.1524 31.2684 11.3202C31.0208 11.4799 30.897 11.6876 30.897 11.9432C30.897 12.1589 30.9689 12.3266 31.1126 12.4464C31.2644 12.5582 31.4561 12.6461 31.6877 12.71C31.9274 12.7739 32.1909 12.8298 32.4785 12.8778C32.766 12.9177 33.0536 12.9736 33.3411 13.0455C33.6287 13.1094 33.8883 13.2012 34.1199 13.3211C34.3596 13.4409 34.5513 13.6086 34.695 13.8243C34.8468 14.0399 34.9227 14.3275 34.9227 14.6869C34.9227 15.0703 34.8109 15.4018 34.5872 15.6814C34.3636 15.9609 34.048 16.1806 33.6407 16.3403C33.2333 16.4921 32.7461 16.568 32.179 16.568ZM38.1813 16.568C37.6541 16.568 37.1509 16.4961 36.6717 16.3523C36.2004 16.2085 35.829 16.0328 35.5574 15.8251L36.0367 14.9146C36.3082 15.0983 36.6437 15.254 37.0431 15.3818C37.4425 15.5096 37.8498 15.5735 38.2652 15.5735C38.8003 15.5735 39.1837 15.4977 39.4154 15.3459C39.655 15.1941 39.7748 14.9825 39.7748 14.7109C39.7748 14.5112 39.7029 14.3554 39.5591 14.2436C39.4154 14.1318 39.2237 14.0479 38.984 13.992C38.7524 13.9361 38.4928 13.8882 38.2053 13.8482C37.9177 13.8003 37.6302 13.7444 37.3426 13.6805C37.0551 13.6086 36.7915 13.5128 36.5518 13.3929C36.3122 13.2651 36.1205 13.0934 35.9767 12.8778C35.833 12.6541 35.7611 12.3586 35.7611 11.9911C35.7611 11.6077 35.8689 11.2723 36.0846 10.9847C36.3002 10.6972 36.6038 10.4775 36.9952 10.3257C37.3945 10.166 37.8658 10.0861 38.4089 10.0861C38.8243 10.0861 39.2436 10.138 39.667 10.2419C40.0983 10.3377 40.4498 10.4775 40.7213 10.6612L40.2301 11.5718C39.9425 11.3801 39.643 11.2483 39.3315 11.1764C39.02 11.1045 38.7085 11.0686 38.397 11.0686C37.8938 11.0686 37.5183 11.1524 37.2707 11.3202C37.0231 11.4799 36.8993 11.6876 36.8993 11.9432C36.8993 12.1589 36.9712 12.3266 37.115 12.4464C37.2667 12.5582 37.4584 12.6461 37.6901 12.71C37.9297 12.7739 38.1933 12.8298 38.4808 12.8778C38.7684 12.9177 39.0559 12.9736 39.3435 13.0455C39.631 13.1094 39.8906 13.2012 40.1223 13.3211C40.3619 13.4409 40.5536 13.6086 40.6974 13.8243C40.8491 14.0399 40.925 14.3275 40.925 14.6869C40.925 15.0703 40.8132 15.4018 40.5895 15.6814C40.3659 15.9609 40.0504 16.1806 39.643 16.3403C39.2357 16.4921 38.7484 16.568 38.1813 16.568ZM46.3043 16.4961V15.1542L46.2444 14.9026V12.6142C46.2444 12.1269 46.1006 11.7515 45.8131 11.4879C45.5335 11.2163 45.1102 11.0806 44.5431 11.0806C44.1677 11.0806 43.8002 11.1445 43.4408 11.2723C43.0814 11.3921 42.7778 11.5558 42.5302 11.7635L42.051 10.9008C42.3785 10.6373 42.7698 10.4376 43.2251 10.3018C43.6884 10.158 44.1717 10.0861 44.6749 10.0861C45.5455 10.0861 46.2165 10.2978 46.6877 10.7211C47.159 11.1445 47.3946 11.7914 47.3946 12.6621V16.4961H46.3043ZM44.2196 16.568C43.7483 16.568 43.333 16.4881 42.9735 16.3284C42.6221 16.1686 42.3505 15.9489 42.1588 15.6694C41.9671 15.3818 41.8713 15.0583 41.8713 14.6989C41.8713 14.3554 41.9511 14.0439 42.1109 13.7644C42.2786 13.4848 42.5462 13.2612 42.9136 13.0934C43.289 12.9257 43.7922 12.8418 44.4233 12.8418H46.4361V13.6685H44.4712C43.8961 13.6685 43.5087 13.7644 43.309 13.9561C43.1093 14.1478 43.0095 14.3794 43.0095 14.651C43.0095 14.9625 43.1333 15.2141 43.3809 15.4058C43.6285 15.5895 43.972 15.6814 44.4113 15.6814C44.8426 15.6814 45.218 15.5855 45.5375 15.3938C45.865 15.2021 46.1006 14.9226 46.2444 14.5551L46.4721 15.3459C46.3203 15.7213 46.0527 16.0208 45.6693 16.2445C45.2859 16.4601 44.8027 16.568 44.2196 16.568ZM52.3028 18.8923C51.7197 18.8923 51.1526 18.8085 50.6015 18.6407C50.0583 18.481 49.615 18.2494 49.2716 17.9458L49.8227 17.0592C50.1182 17.3148 50.4817 17.5145 50.913 17.6583C51.3443 17.81 51.7956 17.8859 52.2669 17.8859C53.0177 17.8859 53.5688 17.7102 53.9203 17.3587C54.2717 17.0073 54.4475 16.4721 54.4475 15.7533V14.4114L54.5673 13.1533L54.5074 11.8833V10.146H55.5977V15.6334C55.5977 16.7517 55.3181 17.5744 54.759 18.1016C54.1999 18.6288 53.3811 18.8923 52.3028 18.8923ZM52.159 16.2325C51.544 16.2325 50.9929 16.1047 50.5056 15.8491C50.0264 15.5855 49.643 15.2221 49.3554 14.7588C49.0759 14.2955 48.9361 13.7604 48.9361 13.1533C48.9361 12.5383 49.0759 12.0031 49.3554 11.5478C49.643 11.0846 50.0264 10.7251 50.5056 10.4695C50.9929 10.2139 51.544 10.0861 52.159 10.0861C52.7022 10.0861 53.1974 10.1979 53.6447 10.4216C54.092 10.6373 54.4475 10.9727 54.7111 11.428C54.9826 11.8833 55.1184 12.4584 55.1184 13.1533C55.1184 13.8402 54.9826 14.4114 54.7111 14.8666C54.4475 15.3219 54.092 15.6654 53.6447 15.897C53.1974 16.1207 52.7022 16.2325 52.159 16.2325ZM52.2908 15.2261C52.7142 15.2261 53.0896 15.1382 53.4171 14.9625C53.7446 14.7868 54.0002 14.5431 54.1839 14.2316C54.3756 13.9201 54.4714 13.5607 54.4714 13.1533C54.4714 12.746 54.3756 12.3865 54.1839 12.075C54.0002 11.7635 53.7446 11.5239 53.4171 11.3561C53.0896 11.1804 52.7142 11.0925 52.2908 11.0925C51.8675 11.0925 51.4881 11.1804 51.1526 11.3561C50.8251 11.5239 50.5655 11.7635 50.3738 12.075C50.1901 12.3865 50.0983 12.746 50.0983 13.1533C50.0983 13.5607 50.1901 13.9201 50.3738 14.2316C50.5655 14.5431 50.8251 14.7868 51.1526 14.9625C51.4881 15.1382 51.8675 15.2261 52.2908 15.2261ZM60.623 16.568C59.944 16.568 59.345 16.4282 58.8258 16.1486C58.3146 15.8691 57.9152 15.4857 57.6277 14.9984C57.3481 14.5112 57.2083 13.9521 57.2083 13.3211C57.2083 12.69 57.3441 12.1309 57.6157 11.6437C57.8952 11.1564 58.2746 10.777 58.7539 10.5055C59.2411 10.2259 59.7883 10.0861 60.3953 10.0861C61.0104 10.0861 61.5535 10.2219 62.0248 10.4935C62.496 10.7651 62.8635 11.1485 63.1271 11.6437C63.3986 12.1309 63.5344 12.702 63.5344 13.357C63.5344 13.4049 63.5304 13.4608 63.5224 13.5247C63.5224 13.5886 63.5184 13.6485 63.5105 13.7045H58.1069V12.8778H62.9114L62.4441 13.1653C62.4521 12.7579 62.3682 12.3945 62.1925 12.075C62.0168 11.7555 61.7732 11.5079 61.4617 11.3322C61.1581 11.1485 60.8027 11.0566 60.3953 11.0566C59.9959 11.0566 59.6405 11.1485 59.329 11.3322C59.0175 11.5079 58.7739 11.7595 58.5981 12.087C58.4224 12.4065 58.3345 12.7739 58.3345 13.1893V13.381C58.3345 13.8043 58.4304 14.1837 58.6221 14.5192C58.8218 14.8467 59.0974 15.1023 59.4488 15.286C59.8003 15.4697 60.2036 15.5616 60.6589 15.5616C61.0343 15.5616 61.3738 15.4977 61.6773 15.3699C61.9888 15.2421 62.2604 15.0504 62.492 14.7948L63.1271 15.5376C62.8395 15.8731 62.4801 16.1287 62.0487 16.3044C61.6254 16.4801 61.1501 16.568 60.623 16.568ZM71.9915 16.5919C70.8892 16.5919 70.0226 16.2764 69.3916 15.6454C68.7606 15.0144 68.4451 14.0919 68.4451 12.8778V8.1092H69.6432V12.8298C69.6432 13.7644 69.8469 14.4473 70.2542 14.8786C70.6696 15.3099 71.2527 15.5256 72.0035 15.5256C72.7623 15.5256 73.3454 15.3099 73.7528 14.8786C74.1681 14.4473 74.3758 13.7644 74.3758 12.8298V8.1092H75.538V12.8778C75.538 14.0919 75.2225 15.0144 74.5914 15.6454C73.9684 16.2764 73.1018 16.5919 71.9915 16.5919ZM79.6477 16.568C79.1206 16.568 78.6173 16.4961 78.1381 16.3523C77.6668 16.2085 77.2954 16.0328 77.0238 15.8251L77.5031 14.9146C77.7747 15.0983 78.1101 15.254 78.5095 15.3818C78.9089 15.5096 79.3162 15.5735 79.7316 15.5735C80.2668 15.5735 80.6502 15.4977 80.8818 15.3459C81.1214 15.1941 81.2412 14.9825 81.2412 14.7109C81.2412 14.5112 81.1694 14.3554 81.0256 14.2436C80.8818 14.1318 80.6901 14.0479 80.4505 13.992C80.2188 13.9361 79.9592 13.8882 79.6717 13.8482C79.3841 13.8003 79.0966 13.7444 78.809 13.6805C78.5215 13.6086 78.2579 13.5128 78.0183 13.3929C77.7787 13.2651 77.587 13.0934 77.4432 12.8778C77.2994 12.6541 77.2275 12.3586 77.2275 11.9911C77.2275 11.6077 77.3353 11.2723 77.551 10.9847C77.7667 10.6972 78.0702 10.4775 78.4616 10.3257C78.861 10.166 79.3322 10.0861 79.8754 10.0861C80.2907 10.0861 80.7101 10.138 81.1334 10.2419C81.5647 10.3377 81.9162 10.4775 82.1878 10.6612L81.6965 11.5718C81.409 11.3801 81.1094 11.2483 80.7979 11.1764C80.4864 11.1045 80.1749 11.0686 79.8634 11.0686C79.3602 11.0686 78.9848 11.1524 78.7372 11.3202C78.4895 11.4799 78.3657 11.6876 78.3657 11.9432C78.3657 12.1589 78.4376 12.3266 78.5814 12.4464C78.7332 12.5582 78.9249 12.6461 79.1565 12.71C79.3961 12.7739 79.6597 12.8298 79.9473 12.8778C80.2348 12.9177 80.5224 12.9736 80.8099 13.0455C81.0975 13.1094 81.3571 13.2012 81.5887 13.3211C81.8283 13.4409 82.02 13.6086 82.1638 13.8243C82.3156 14.0399 82.3914 14.3275 82.3914 14.6869C82.3914 15.0703 82.2796 15.4018 82.056 15.6814C81.8323 15.9609 81.5168 16.1806 81.1094 16.3403C80.7021 16.4921 80.2148 16.568 79.6477 16.568ZM83.8888 13.8482L83.6732 8.1092H85.027L84.7994 13.8482H83.8888ZM84.3561 16.568C84.1324 16.568 83.9447 16.4921 83.793 16.3403C83.6412 16.1886 83.5653 16.0089 83.5653 15.8012C83.5653 15.5775 83.6412 15.3938 83.793 15.25C83.9447 15.1063 84.1324 15.0344 84.3561 15.0344C84.5797 15.0344 84.7635 15.1063 84.9072 15.25C85.051 15.3938 85.1229 15.5775 85.1229 15.8012C85.1229 16.0089 85.051 16.1886 84.9072 16.3403C84.7635 16.4921 84.5797 16.568 84.3561 16.568Z" fill="#392D44"/>
</svg>
