<svg width="150" height="150" viewBox="0 0 150 150" fill="none" xmlns="http://www.w3.org/2000/svg">
<g opacity="0.8">
<path d="M15.6092 97.1504L29.8827 107.791C30.2748 108.104 30.764 108.27 31.2655 108.26C31.8657 108.264 32.4445 108.037 32.8827 107.627L35.1092 105.518L44.8592 113.064L42.4686 115.432C41.412 116.487 40.689 117.83 40.3895 119.294C40.09 120.757 40.2273 122.276 40.7842 123.662C41.3411 125.048 42.2931 126.24 43.5218 127.089C44.7505 127.939 46.2018 128.408 47.6952 128.439C47.7452 130.429 48.5689 132.32 49.9912 133.712C51.4135 135.104 53.3224 135.886 55.3124 135.893C55.9622 135.88 56.6079 135.785 57.2342 135.611C57.7944 136.991 58.7594 138.168 60.002 138.988C61.2446 139.808 62.7066 140.233 64.1952 140.205C64.9425 140.193 65.6844 140.075 66.3983 139.854C66.76 141.069 67.4114 142.179 68.2967 143.088C69.7283 144.514 71.6667 145.315 73.6874 145.315C75.7081 145.315 77.6464 144.514 79.078 143.088L81.0702 141.096L81.3749 141.354C82.5929 142.284 84.0841 142.787 85.6171 142.783C86.6546 142.778 87.6786 142.547 88.6177 142.106C89.5568 141.665 90.3884 141.024 91.0546 140.229C92.224 138.866 92.8129 137.099 92.6952 135.307C94.307 135.025 95.7681 134.184 96.8223 132.933C97.8766 131.682 98.4566 130.099 98.4608 128.463V128.299C100.044 128.094 101.504 127.339 102.586 126.166L103.359 125.346C104.601 124.021 105.274 122.262 105.234 120.447C107.204 120.387 109.089 119.631 110.555 118.314C111.449 117.52 112.166 116.545 112.658 115.455C113.151 114.365 113.409 113.183 113.414 111.986C113.406 110.961 113.216 109.945 112.851 108.986L115.945 105.049L116.789 105.822C117.222 106.204 117.781 106.413 118.359 106.408C118.781 106.416 119.196 106.302 119.555 106.08L134.18 97.4316C134.703 97.1228 135.086 96.6226 135.248 96.0367C135.41 95.4507 135.338 94.8248 135.047 94.291L122.859 71.6504C123.289 68.8504 123.509 66.0222 123.516 63.1895V21.002C123.521 20.4969 123.361 20.0039 123.061 19.5979C122.761 19.1918 122.336 18.8948 121.851 18.752L75.6796 4.78321C75.234 4.66601 74.7657 4.66601 74.3202 4.78321L28.1483 18.752C27.6639 18.8948 27.2392 19.1918 26.9389 19.5979C26.6386 20.0039 26.4789 20.4969 26.4842 21.002V63.1895C26.4903 65.9029 26.6861 68.6127 27.0702 71.2988L14.953 94.1738C14.6924 94.6674 14.6153 95.2374 14.7355 95.7824C14.8556 96.3274 15.1653 96.8122 15.6092 97.1504ZM45.7967 122.908C45.5236 122.636 45.3069 122.313 45.1591 121.957C45.0112 121.601 44.9351 121.219 44.9351 120.834C44.9351 120.449 45.0112 120.067 45.1591 119.711C45.3069 119.355 45.5236 119.032 45.7967 118.76L49.5233 115.01C49.7948 114.74 50.1166 114.527 50.4705 114.383C50.8245 114.238 51.2034 114.164 51.5858 114.166C52.1694 114.16 52.7415 114.329 53.2286 114.65C53.7157 114.972 54.0957 115.432 54.3198 115.971C54.5439 116.509 54.602 117.103 54.4865 117.675C54.371 118.247 54.0873 118.772 53.6717 119.182L49.9452 122.908C49.3849 123.439 48.6426 123.735 47.871 123.735C47.0993 123.735 46.357 123.439 45.7967 122.908ZM56.8124 130.713C56.2603 131.07 55.6018 131.225 54.9484 131.153C54.295 131.08 53.6867 130.784 53.2264 130.314C52.6933 129.776 52.3924 129.05 52.388 128.292C52.3836 127.534 52.6762 126.805 53.203 126.26L53.2499 126.213L56.9764 122.486C57.0197 122.459 57.0526 122.417 57.0702 122.369C57.3435 122.123 57.6619 121.932 58.0077 121.807C58.5356 121.606 59.1099 121.561 59.6625 121.678C60.2151 121.794 60.7227 122.066 61.1249 122.463C61.5487 122.922 61.8119 123.506 61.8749 124.127L58.7811 127.197C57.8219 128.172 57.142 129.386 56.8124 130.713ZM68.2967 132.307C67.8699 132.734 67.4997 133.215 67.1952 133.736L66.2577 134.674C65.7027 135.215 64.9584 135.517 64.1835 135.517C63.4085 135.517 62.6642 135.215 62.1092 134.674C61.7928 134.355 61.5558 133.966 61.4174 133.538C61.279 133.111 61.243 132.657 61.3124 132.213C61.3651 131.572 61.6482 130.973 62.1092 130.525L65.6483 126.963H65.6717L65.7421 126.893L65.8124 126.822C65.8568 126.798 65.8966 126.767 65.9296 126.729C66.3437 126.339 66.8631 126.079 67.4235 125.981C67.9838 125.884 68.5605 125.953 69.082 126.18C69.6035 126.407 70.0469 126.782 70.3573 127.259C70.6676 127.735 70.8313 128.293 70.828 128.861C70.8288 129.266 70.7408 129.666 70.5702 130.033L68.2967 132.307ZM79.4999 136.033L75.7733 139.783C75.2158 140.315 74.4723 140.608 73.7018 140.599C72.9313 140.59 72.1949 140.279 71.65 139.735C71.1052 139.19 70.7951 138.453 70.786 137.683C70.7769 136.912 71.0696 136.169 71.6014 135.611L74.1092 133.127V133.104L75.3514 131.885C75.6229 131.615 75.9448 131.402 76.2987 131.258C76.6526 131.113 77.0316 131.039 77.4139 131.041C78.1923 131.041 78.9402 131.344 79.4999 131.885C79.773 132.157 79.9897 132.48 80.1376 132.836C80.2854 133.192 80.3616 133.574 80.3616 133.959C80.3616 134.344 80.2854 134.726 80.1376 135.082C79.9897 135.438 79.773 135.761 79.4999 136.033ZM87.3983 137.299C87.013 137.739 86.4772 138.018 85.8962 138.084C85.3151 138.149 84.7307 137.994 84.2577 137.65L84.1171 137.533C84.5987 136.631 84.8926 135.64 84.9813 134.621C85.0699 133.602 84.9513 132.576 84.6327 131.604L87.2811 134.088C87.7204 134.499 87.9793 135.068 88.0012 135.669C88.0232 136.271 87.8065 136.856 87.3983 137.299ZM107.414 114.846C106.737 115.436 105.876 115.772 104.978 115.798C104.081 115.823 103.202 115.537 102.492 114.986L102.351 114.893L97.3593 111.236C97.1117 111.056 96.8309 110.926 96.533 110.854C96.2351 110.782 95.9259 110.769 95.6232 110.817C95.3205 110.865 95.0303 110.973 94.7691 111.133C94.508 111.293 94.2811 111.504 94.1014 111.752C93.918 112 93.7852 112.281 93.7107 112.58C93.6361 112.879 93.6213 113.19 93.667 113.495C93.7127 113.799 93.8181 114.092 93.9771 114.356C94.1361 114.62 94.3456 114.85 94.5936 115.033L99.6561 118.736C99.9198 118.915 100.139 119.151 100.298 119.427C100.456 119.704 100.549 120.012 100.57 120.33C100.608 120.657 100.574 120.989 100.468 121.301C100.363 121.613 100.19 121.898 99.9608 122.135L99.1639 122.979C98.9607 123.199 98.7144 123.375 98.4402 123.496C98.166 123.617 97.8699 123.68 97.5702 123.682H97.5233C97.222 123.682 96.9236 123.622 96.6458 123.506C96.368 123.389 96.1165 123.218 95.9061 123.002L91.5468 118.666C91.1042 118.227 90.5061 117.98 89.8827 117.98C89.2593 117.98 88.6611 118.227 88.2186 118.666C87.7821 119.105 87.5371 119.699 87.5371 120.318C87.5371 120.938 87.7821 121.532 88.2186 121.971L93.1171 126.869C93.3268 127.078 93.4928 127.326 93.6055 127.6C93.7181 127.874 93.7752 128.167 93.7733 128.463C93.773 128.952 93.6171 129.428 93.328 129.822C93.1406 130.083 92.899 130.299 92.6198 130.457C92.3406 130.615 92.0304 130.71 91.7108 130.736C91.3908 130.774 91.0663 130.739 90.7618 130.634C90.4573 130.528 90.1807 130.355 89.953 130.127H89.9061L86.1092 126.588C85.8862 126.376 85.6229 126.21 85.3349 126.101C85.047 125.991 84.7401 125.941 84.4323 125.952C84.1244 125.962 83.8219 126.035 83.5424 126.164C83.2629 126.294 83.012 126.477 82.8046 126.705C82.4589 127.087 82.2524 127.574 82.2186 128.088C81.2504 127.298 80.1023 126.758 78.876 126.517C77.6497 126.276 76.3828 126.34 75.1874 126.705C74.646 124.811 73.3814 123.207 71.6667 122.237C69.952 121.268 67.925 121.013 66.0233 121.525C65.6511 120.633 65.1099 119.821 64.4296 119.135C63.0339 117.758 61.1631 116.969 59.203 116.932C59.1781 115.691 58.8501 114.475 58.2477 113.39C57.6453 112.305 56.7867 111.384 55.7468 110.707C54.7069 110.03 53.5171 109.617 52.2812 109.505C51.0454 109.393 49.8008 109.585 48.6561 110.064L37.9217 101.768L50.1561 77.1816L70.3358 79.1504L64.453 91.9707C63.9566 93.0694 63.7038 94.2624 63.7119 95.468C63.72 96.6736 63.9888 97.8632 64.4999 98.9551C65.0099 100.044 65.7529 101.007 66.6764 101.776C67.5998 102.546 68.681 103.103 69.8436 103.408C71.5788 103.87 73.4169 103.756 75.082 103.084C76.7471 102.412 78.1493 101.218 79.078 99.6816L81.7967 95.1582C81.8332 95.0961 81.8816 95.0419 81.9393 94.9988C81.9969 94.9556 82.0625 94.9244 82.1324 94.907C82.2022 94.8895 82.2748 94.8862 82.346 94.8971C82.4171 94.908 82.4854 94.9331 82.5467 94.9707L108.305 110.322C108.567 110.839 108.712 111.407 108.726 111.986C108.723 112.529 108.605 113.064 108.378 113.557C108.152 114.05 107.823 114.49 107.414 114.846ZM82.4999 54.4707L83.7655 61.877L77.1092 58.3848C76.4624 58.0311 75.7371 57.8457 74.9999 57.8457C74.2627 57.8457 73.5373 58.0311 72.8905 58.3848L66.2342 61.877L67.4999 54.4707C67.626 53.7482 67.5746 53.0059 67.35 52.3077C67.1255 51.6095 66.7345 50.9764 66.2108 50.4629L60.8202 45.2129L68.2733 44.1348C68.9993 44.0287 69.6883 43.747 70.2806 43.314C70.8729 42.881 71.3504 42.3099 71.6717 41.6504L74.953 34.8301L78.328 41.6504C78.6513 42.313 79.1325 42.8861 79.7291 43.3193C80.3258 43.7525 81.0197 44.0325 81.7499 44.1348L89.1796 45.2129L83.7889 50.4395C83.2663 50.9586 82.8763 51.5959 82.6519 52.2976C82.4276 52.9993 82.3754 53.7446 82.4999 54.4707ZM109.547 105.611L84.9374 90.9394C84.1274 90.4635 83.2049 90.2126 82.2655 90.2129C81.3636 90.2087 80.4762 90.4401 79.6911 90.884C78.9059 91.328 78.2503 91.9691 77.7889 92.7441L75.0702 97.2676C74.6661 97.9335 74.0574 98.4508 73.3351 98.7423C72.6127 99.0338 71.8155 99.0838 71.0624 98.8848C70.5581 98.7482 70.0894 98.5038 69.6889 98.1683C69.2883 97.8329 68.9654 97.4144 68.7426 96.9419C68.5197 96.4693 68.4021 95.954 68.3979 95.4316C68.3938 94.9091 68.5032 94.392 68.7186 93.916L75.3983 79.3379L99.703 77.1582L112.851 101.393L109.547 105.611ZM129.867 94.5254L118.664 101.182L117.515 100.15L103.148 73.6895L101.742 70.1738L113.695 64.502L129.867 94.5254ZM31.1717 22.7363L74.9999 9.47071L118.828 22.7363V63.1895C118.828 63.4941 118.805 63.7754 118.781 64.0566L116.765 60.3066C116.474 59.7837 115.996 59.3898 115.427 59.203C114.858 59.0163 114.24 59.0505 113.695 59.2988L111.516 60.3535V29.9082C111.514 29.4048 111.352 28.915 111.052 28.5103C110.753 28.1056 110.332 27.807 109.851 27.6582L75.6796 17.3223C75.2373 17.1817 74.7624 17.1817 74.3202 17.3223L40.1483 27.6582C39.6674 27.807 39.2466 28.1056 38.9473 28.5103C38.6479 28.915 38.4857 29.4048 38.4842 29.9082V60.5645L35.9999 59.3223C35.4516 59.0498 34.8185 59.0028 34.236 59.1911C33.6534 59.3794 33.1677 59.7882 32.8827 60.3301L31.1952 63.541C31.1952 63.4238 31.1717 63.3066 31.1717 63.1895V22.7363ZM35.953 64.5488L47.8358 70.4551L46.6405 73.7598L33.0467 101.041L31.1014 102.869L20.0155 94.5957L35.953 64.5488Z" fill="white"/>
</g>
</svg>
