<svg width="61" height="61" viewBox="0 0 61 61" fill="none" xmlns="http://www.w3.org/2000/svg">
<rect width="60.76" height="60.76" rx="17.36" fill="#0267AC"/>
<g clip-path="url(#clip0_2508_88)">
<path d="M30.8669 45.4115L31.357 42.9253L35.6784 41.135L37.7833 42.5466C38.1261 42.7764 38.5728 42.7329 38.8647 42.441L42.1222 39.1835C42.4141 38.8916 42.4577 38.4449 42.2278 38.1021L40.8162 35.9973L42.6066 31.6758L45.0926 31.1857C45.4976 31.1058 45.7826 30.7591 45.7826 30.3464V25.7395C45.7826 25.3266 45.4976 24.98 45.0926 24.9001L42.6066 24.41L40.8163 20.0885L42.2279 17.9836C42.4578 17.6409 42.4142 17.1942 42.1223 16.9023L38.8647 13.6447C38.5728 13.3529 38.1262 13.3092 37.7834 13.5391L35.6786 14.9507L31.3571 13.1604L30.8669 10.6743C30.7871 10.2693 30.4404 9.98438 30.0276 9.98438H25.4206C25.0079 9.98438 24.6612 10.2694 24.5813 10.6743L24.0911 13.1604L19.7696 14.9507L17.6648 13.5391C17.322 13.3093 16.8754 13.3529 16.5836 13.6447L13.3259 16.9023C13.034 17.1942 12.9905 17.6409 13.2204 17.9836L14.6319 20.0885L12.8416 24.41L10.3555 24.9001C9.95051 24.98 9.66553 25.3265 9.66553 25.7395V30.3464C9.66553 30.7592 9.95051 31.1058 10.3554 31.1857L12.8415 31.6758L14.6318 35.9973L13.2203 38.1021C12.9904 38.445 13.034 38.8916 13.3259 39.1835L16.5834 42.441C16.8753 42.7329 17.3219 42.7764 17.6647 42.5466L19.7696 41.135L24.091 42.9253L24.5812 45.4116C24.6611 45.8166 25.0078 46.1015 25.4205 46.1015H30.0274C30.4403 46.1015 30.7869 45.8165 30.8668 45.4116L30.8669 45.4115ZM15.8198 28.0428C15.8198 21.4862 21.1674 16.1385 27.7241 16.1385C34.2808 16.1385 39.6284 21.4862 39.6284 28.0428C39.6284 34.5994 34.2807 39.9471 27.7241 39.9471C21.1675 39.9471 15.8198 34.5994 15.8198 28.0428ZM31.3862 19.0923C29.8862 19.038 29.0023 19.7783 27.7241 19.7674C26.4458 19.7783 25.5619 19.038 24.062 19.0923C20.1726 19.2331 21.4671 24.371 22.5096 26.6339C22.9979 27.8122 23.1467 29.155 22.9558 30.6621C22.8687 32.0435 22.9455 33.2898 23.1862 34.401C23.3958 35.3685 23.7713 36.7024 24.3123 37.2843C24.4835 37.4685 24.681 37.5681 24.8662 37.5694C25.1169 37.5712 25.2897 37.3976 25.3885 37.1808C25.5346 36.8604 25.5371 36.3059 25.6051 35.3835C25.6775 34.4025 25.783 33.4401 26.0374 32.4577C26.2037 31.8154 26.878 29.4127 27.7242 29.3747C28.5704 29.4127 29.2448 31.8154 29.411 32.4577C29.6653 33.4401 29.7709 34.4025 29.8434 35.3835C29.9115 36.3059 29.9138 36.8604 30.0599 37.1808C30.1587 37.3976 30.3315 37.5712 30.5822 37.5694C30.7673 37.5681 30.9649 37.4684 31.1361 37.2843C31.6772 36.7024 32.0526 35.3685 32.2622 34.401C32.5029 33.2898 32.5797 32.0435 32.4926 30.6621C32.3017 29.155 32.4504 27.8122 32.9387 26.6339C33.9812 24.371 35.2757 19.2331 31.3862 19.0923ZM24.3013 25.7728C23.9947 25.9356 23.6141 25.819 23.4513 25.5124C23.0863 24.8257 22.865 24.0371 22.7626 23.3114C22.6384 22.4322 22.694 21.612 22.8818 21.1431C23.0107 20.8216 23.3759 20.6654 23.6974 20.7943C24.019 20.9232 24.1751 21.2883 24.0463 21.6099C23.933 21.8926 23.9109 22.4682 24.0057 23.1394C24.0891 23.7303 24.2678 24.37 24.5617 24.9228C24.7245 25.2294 24.6079 25.61 24.3013 25.7728ZM51.5444 32.1309V39.0226C51.5442 39.2389 51.4306 39.4493 51.2299 39.5655L44.1515 43.6523C44.273 43.9046 44.1885 44.2113 43.9484 44.3636L41.4445 45.9522L40.179 43.7602L42.8067 42.3862C43.0587 42.2544 43.3664 42.3344 43.5241 42.5656L50.2867 38.6612V32.1316C48.7013 31.772 47.4967 30.0762 47.4967 28.0431C47.4967 25.7496 49.0297 23.8828 50.9134 23.8828C52.7972 23.8828 54.3345 25.7496 54.3345 28.0431C54.3345 30.075 53.1314 31.77 51.5444 32.1309ZM39.0634 44.3435L40.3816 46.6267L29.2004 53.7211C28.3009 54.2919 27.1237 54.0027 26.591 53.0801C26.0505 52.1438 26.3665 50.9827 27.3289 50.4795L39.0635 44.3435H39.0634Z" fill="white"/>
</g>
<defs>
<clipPath id="clip0_2508_88">
<rect width="46" height="46" fill="white" transform="translate(9 9)"/>
</clipPath>
</defs>
</svg>
