<svg width="64" height="48" viewBox="0 0 64 48" fill="none" xmlns="http://www.w3.org/2000/svg">
<path d="M59.0746 4.8449C56.2128 1.6301 52.7396 0 48.7515 0C45.1673 0 42.1287 1.27635 39.7196 3.79342C37.3259 6.29441 36.1121 9.40085 36.1121 13.0267C36.1121 16.4531 37.3381 19.5064 39.7561 22.1019C41.889 24.3916 44.5759 25.848 47.7567 26.4416C47.2005 30.6588 43.4724 34.4759 36.6536 37.8019L35.4258 38.401L40.46 47.695L41.5965 47.1189C56.0163 39.8097 63.3277 29.4798 63.3277 16.4161C63.3277 11.9091 61.8968 8.01616 59.0746 4.8449ZM41.5429 44.1957L39.0207 39.5398C46.6057 35.5653 50.4485 30.7875 50.4485 25.3249V24.1553L49.2865 24.0237C46.1565 23.6695 43.6659 22.457 41.6724 20.3168C39.6933 18.1922 38.7311 15.8077 38.7311 13.0267C38.7311 10.0571 39.6735 7.62938 41.6117 5.6041C43.5342 3.59527 45.8698 2.61874 48.7517 2.61874C52.0053 2.61874 54.742 3.91649 57.1182 6.58594C59.5344 9.30067 60.7089 12.5161 60.7089 16.416C60.7089 22.4034 59.0229 27.8089 55.698 32.4822C52.5254 36.9412 47.767 40.8778 41.5429 44.1957Z" fill="#0267AC"/>
<path d="M23.5798 4.83896C20.6864 1.62812 17.1987 0 13.2136 0C9.62584 0 6.60103 1.2787 4.22361 3.80047C1.86659 6.30047 0.671384 9.40456 0.671384 13.0267C0.671384 16.453 1.89739 19.5062 4.31514 22.1019C6.44357 24.3866 9.09819 25.8417 12.2198 26.438C11.6703 30.6584 7.97324 34.4774 1.20918 37.804L0 38.3985L4.90897 47.6992L6.05668 47.12C20.5419 39.8111 27.8865 29.4808 27.8865 16.416C27.8864 11.9056 26.4373 8.01047 23.5798 4.83896ZM6.01858 44.1912L3.56509 39.5425C11.095 35.5665 14.9105 30.7877 14.9105 25.3248V24.1578L13.751 24.024C10.6852 23.6702 8.22531 22.4576 6.2312 20.3167C4.25205 18.1922 3.29013 15.8076 3.29013 13.0267C3.29013 10.0533 4.21878 7.62295 6.12891 5.59705C8.01826 3.59304 10.3358 2.61874 13.2136 2.61874C16.4704 2.61874 19.2251 3.91834 21.6342 6.592C24.0791 9.30524 25.2677 12.5188 25.2677 16.416C25.2677 22.4024 23.5744 27.8071 20.2344 32.48C17.048 36.9377 12.2692 40.8738 6.01858 44.1912Z" fill="#0267AC"/>
</svg>
