<svg width="149" height="70" viewBox="0 0 149 70" fill="none" xmlns="http://www.w3.org/2000/svg">
<path fill-rule="evenodd" clip-rule="evenodd" d="M0.693699 20.7255C0.729406 25.2516 2.54543 28.6996 5.23428 31.5258C7.92298 34.352 11.4845 36.5568 15.0103 38.5958C17.7411 40.1749 22.9945 42.4269 25.7385 45.7364C27.7533 48.1664 28.6081 51.5168 27.876 54.5482L27.8884 54.5368C26.9572 60.0345 22.1729 64.222 16.4096 64.222C15.569 64.222 14.2544 64.1085 12.7427 62.9276C13.5606 63.2121 17.1528 62.8162 17.516 62.5406C13.1942 62.6578 9.94895 60.4886 9.21585 59.144C9.0708 61.007 11.494 63.0878 12.5788 63.6015C8.27072 62.2181 4.61985 58.6804 4.59851 54.6259C4.5917 53.2981 5.1482 52.086 6.41247 51.2221C9.40638 50.7511 9.3077 54.093 9.93917 55.3848C10.3628 55.4398 10.7861 55.4949 11.2097 55.5497C11.0519 54.1092 10.8938 52.6684 10.7358 51.2276C12.1348 50.026 12.0114 49.3714 11.4544 48.331C14.4974 48.4793 15.0668 45.4356 15.7188 43.2163C13.6783 43.9094 9.53676 42.1572 5.65476 43.6836C2.23799 45.0268 -1.0435 49.7736 0.313664 54.7089C1.80477 61.2916 8.34347 65.6266 15.1259 65.6266C20.4411 65.6266 25.131 62.9509 27.9225 58.8729C29.4465 56.6064 30.386 53.9143 30.5235 51.012H30.5662C30.6546 47.9185 29.6541 44.852 27.4552 42.2491C20.422 33.9243 3.87163 33.0295 0.693699 20.7255ZM13.8776 51.0511C15.3046 51.0729 15.5525 51.2327 16.5157 50.7604C16.5023 50.7348 17.1501 49.353 13.8776 51.0511ZM22.7025 10.0713C22.9209 10.139 23.1394 10.2069 23.3578 10.2746C23.6114 10.3137 23.8651 10.3525 24.1189 10.3913C24.4145 10.4105 24.7099 10.4294 25.0055 10.4485C25.7651 10.4863 26.2372 10.287 26.1789 11.1963C26.0686 11.3869 25.958 11.5775 25.8477 11.7681C25.7977 11.8422 25.7477 11.9165 25.6976 11.9906C25.5269 12.4049 26.0714 12.6618 26.4009 12.7299C26.9003 13.0417 27.0309 13.1572 26.887 13.7412C26.8769 13.7706 26.867 13.8003 26.8569 13.8296C26.8857 13.8498 26.9144 13.8699 26.9432 13.8901C27.7238 13.9342 27.5803 14.4117 27.5838 15.0936C27.6816 15.513 27.5939 15.3739 27.9784 15.6673C28.6611 16.257 28.8934 16.5878 28.5965 17.4794C28.2627 17.9807 28.7708 18.944 24.8348 20.7243C24.2114 21.4974 24.7178 25.4706 26.7103 27.3699C17.0911 21.1322 22.4916 9.11271 13.837 6.83872C11.8797 6.29067 9.55662 6.6584 7.91187 7.97319C4.41435 10.7612 3.0154 16.2861 7.91528 20.2483C10.5143 22.3498 13.9529 24.286 17.4786 26.3252C21.0044 28.364 24.5659 30.5687 27.2546 33.3949C29.9436 36.2209 31.7598 39.6693 31.7955 44.195C29.0905 33.7229 13.6745 30.0909 6.19511 23.9912C5.80367 23.7031 5.43311 23.3883 5.08582 23.0499C4.73853 22.7116 4.41464 22.3495 4.11699 21.9656C1.48044 18.7855 1.32961 14.5606 2.94843 11.1307C4.56755 7.70117 8.43844 5.22656 12.8814 5.22656C14.163 5.22656 15.3905 5.45681 16.5257 5.87818C17.3374 6.17925 18.1017 6.57795 18.8042 7.06037C21.4582 8.42287 20.8248 8.98455 22.7025 10.0713ZM12.3104 57.3321C13.4331 57.301 16.5914 56.9872 17.2717 56.6576C17.3089 54.3982 14.4802 56.0802 14.358 56.1785C13.5472 56.8309 14.0471 57.2515 12.3104 57.3321Z" fill="#0267AC"/>
<path d="M47.9381 40.6741C48.2621 40.6741 48.6458 40.6911 49.0892 40.7252C49.5325 40.7593 49.9759 40.8105 50.4193 40.8787C50.8797 40.9299 51.289 40.9895 51.6471 41.0577C52.0052 41.1089 52.2524 41.1686 52.3889 41.2368L52.1842 44.4853H51.9284C51.9284 43.6157 51.613 42.925 50.982 42.4134C50.3681 41.9019 49.5666 41.6461 48.5776 41.6461C47.5885 41.6461 46.7956 41.9019 46.1987 42.4134C45.6189 42.925 45.3205 43.5474 45.3035 44.2807C45.2693 44.707 45.3887 45.1248 45.6616 45.5341C45.9515 45.9263 46.3351 46.2929 46.8126 46.634L51.7494 50.2918C52.4485 50.7522 52.9601 51.3149 53.2841 51.98C53.6081 52.628 53.7531 53.3613 53.719 54.1798C53.6678 55.7486 53.0965 56.9935 52.0052 57.9143C50.9308 58.8352 49.4643 59.2956 47.6056 59.2956C46.9746 59.2956 46.3266 59.2359 45.6616 59.1166C45.0136 59.0142 44.4167 58.8522 43.871 58.6306C43.3253 58.3918 42.8905 58.1104 42.5665 57.7864C42.4642 57.4454 42.4215 57.0361 42.4386 56.5586C42.4557 56.0641 42.5239 55.5611 42.6432 55.0495C42.7626 54.5209 42.9076 54.0775 43.0781 53.7194H43.3083C43.2401 54.5891 43.385 55.382 43.7431 56.0982C44.1012 56.7974 44.6213 57.3516 45.3035 57.7609C46.0026 58.1531 46.8211 58.3407 47.759 58.3236C48.8163 58.2895 49.6604 57.9911 50.2914 57.4283C50.9394 56.8656 51.2634 56.1409 51.2634 55.2541C51.2634 54.7425 51.127 54.2821 50.8541 53.8728C50.5813 53.4465 50.1549 53.0628 49.5752 52.7218L44.9453 49.2175C44.1609 48.7059 43.5982 48.092 43.2571 47.3758C42.9331 46.6425 42.7967 45.8837 42.8479 45.0992C42.899 44.2807 43.1292 43.5389 43.5385 42.8739C43.9478 42.1918 44.519 41.6546 45.2523 41.2624C46.0026 40.8702 46.8979 40.6741 47.9381 40.6741ZM52.4144 40.9299L52.3889 41.467H49.7286V40.9299H52.4144ZM77.6851 40.6741L77.8898 43.1041L70.6765 56.6354C70.6765 56.6354 70.5997 56.7889 70.4463 57.0958C70.2928 57.3857 70.1393 57.7438 69.9858 58.1701C69.8324 58.5964 69.7471 59.0057 69.73 59.3979H69.4743L68.6813 57.3772L77.6851 40.6741ZM60.8797 57.0702V58.9375H58.0404V58.6817C58.0575 58.6817 58.1257 58.6817 58.2451 58.6817C58.3815 58.6817 58.4497 58.6817 58.4497 58.6817C58.9101 58.6817 59.3194 58.5453 59.6775 58.2724C60.0356 57.9825 60.2487 57.5818 60.317 57.0702H60.8797ZM61.8773 57.4795C61.8773 57.4965 61.8773 57.5136 61.8773 57.5307C61.8773 57.5477 61.8773 57.5733 61.8773 57.6074C61.8773 57.8802 61.9711 58.136 62.1586 58.3748C62.3633 58.5964 62.602 58.7073 62.8749 58.7073H63.2585V58.9375H61.6982V57.4795H61.8773ZM62.3633 40.6741H62.6191L63.3864 42.8994L61.7238 58.9375H60.0867L62.3633 40.6741ZM62.6191 40.6741L70.6509 55.1518L69.4743 59.3979L62.0052 45.662L62.6191 40.6741ZM77.9153 40.6741L80.2686 58.9375H76.8666L75.5365 45.9433L77.6851 40.6741H77.9153ZM79.4757 57.0702H80.0384C80.1237 57.5818 80.3368 57.9825 80.6779 58.2724C81.036 58.5453 81.4452 58.6817 81.9057 58.6817C81.9057 58.6817 81.9654 58.6817 82.0847 58.6817C82.2211 58.6817 82.2979 58.6817 82.3149 58.6817V58.9375H79.4757V57.0702ZM76.7131 57.4795H76.8922V58.9375H75.3319V58.7073H75.7155C76.0054 58.7073 76.2442 58.5964 76.4318 58.3748C76.6193 58.136 76.7131 57.8802 76.7131 57.6074C76.7131 57.5733 76.7131 57.5477 76.7131 57.5307C76.7131 57.5136 76.7131 57.4965 76.7131 57.4795ZM91.6587 41.0322V58.9375H88.538V41.0322H91.6587ZM88.6148 57.0702V58.9375H86.5684V58.6817C86.5684 58.6817 86.6196 58.6817 86.7219 58.6817C86.8413 58.6817 86.901 58.6817 86.901 58.6817C87.3443 58.6817 87.7195 58.5282 88.0265 58.2213C88.3505 57.8973 88.521 57.5136 88.538 57.0702H88.6148ZM88.6148 42.8994H88.538C88.521 42.4561 88.3505 42.0809 88.0265 41.774C87.7195 41.45 87.3443 41.288 86.901 41.288C86.901 41.288 86.8413 41.288 86.7219 41.288C86.6196 41.288 86.5684 41.288 86.5684 41.288V41.0322H88.6148V42.8994ZM91.5819 57.0702H91.6587C91.6757 57.5136 91.8377 57.8973 92.1447 58.2213C92.4687 58.5282 92.8524 58.6817 93.2957 58.6817C93.2957 58.6817 93.3469 58.6817 93.4492 58.6817C93.5515 58.6817 93.6112 58.6817 93.6283 58.6817V58.9375H91.5819V57.0702ZM91.5819 42.8994V41.0322H93.6283V41.288C93.6112 41.288 93.5515 41.288 93.4492 41.288C93.3469 41.288 93.2957 41.288 93.2957 41.288C92.8524 41.288 92.4687 41.45 92.1447 41.774C91.8377 42.0809 91.6757 42.4561 91.6587 42.8994H91.5819ZM104.195 41.0322V58.9375H101.075V41.0322H104.195ZM110.974 57.9399L111.409 58.9375H104.119V57.9399H110.974ZM112.764 54.0775L111.485 58.9375H106.702L107.623 57.9399C108.493 57.9399 109.243 57.7864 109.874 57.4795C110.505 57.1555 111.034 56.7036 111.46 56.1238C111.886 55.527 112.236 54.8449 112.509 54.0775H112.764ZM101.151 57.0702V58.9375H99.1052V58.6817C99.1052 58.6817 99.1563 58.6817 99.2586 58.6817C99.378 58.6817 99.4377 58.6817 99.4377 58.6817C99.8811 58.6817 100.256 58.5282 100.563 58.2213C100.887 57.8973 101.058 57.5136 101.075 57.0702H101.151ZM101.151 42.8994H101.075C101.058 42.4561 100.887 42.0809 100.563 41.774C100.256 41.45 99.8811 41.288 99.4377 41.288C99.4377 41.288 99.378 41.288 99.2586 41.288C99.1563 41.288 99.1052 41.288 99.1052 41.288V41.0322H101.151V42.8994ZM104.119 42.8994V41.0322H106.165V41.288C106.148 41.288 106.088 41.288 105.986 41.288C105.884 41.288 105.832 41.288 105.832 41.288C105.389 41.288 105.005 41.45 104.681 41.774C104.374 42.0809 104.212 42.4561 104.195 42.8994H104.119ZM122.328 41.0322V58.9375H119.207V41.0322H122.328ZM129.106 57.9399L129.541 58.9375H122.251V57.9399H129.106ZM128.134 49.6267V50.5987H122.251V49.6267H128.134ZM129.336 41.0322V42.0298H122.251V41.0322H129.336ZM130.897 54.0775L129.618 58.9375H124.834L125.755 57.9399C126.625 57.9399 127.375 57.7864 128.006 57.4795C128.637 57.1555 129.166 56.7036 129.592 56.1238C130.018 55.527 130.368 54.8449 130.641 54.0775H130.897ZM128.134 50.5476V52.7474H127.878V52.466C127.878 51.9374 127.699 51.494 127.341 51.1359C126.983 50.7778 126.54 50.5987 126.011 50.5987V50.5476H128.134ZM128.134 47.4781V49.6779H126.011V49.6267C126.54 49.6097 126.983 49.4221 127.341 49.064C127.699 48.7059 127.878 48.2625 127.878 47.7339V47.4781H128.134ZM129.336 41.953V44.6132H129.08V44.2551C129.08 43.6071 128.876 43.0785 128.467 42.6692C128.057 42.2429 127.512 42.0212 126.829 42.0042V41.953H129.336ZM129.336 40.5717V41.3135L126.216 41.0322C126.591 41.0322 126.983 41.0066 127.392 40.9554C127.819 40.9043 128.211 40.8446 128.569 40.7764C128.927 40.7082 129.183 40.64 129.336 40.5717ZM119.284 57.0702V58.9375H117.237V58.6817C117.237 58.6817 117.288 58.6817 117.391 58.6817C117.51 58.6817 117.57 58.6817 117.57 58.6817C118.013 58.6817 118.388 58.5282 118.695 58.2213C119.019 57.8973 119.19 57.5136 119.207 57.0702H119.284ZM119.284 42.8994H119.207C119.19 42.4561 119.019 42.0809 118.695 41.774C118.388 41.45 118.013 41.288 117.57 41.288C117.57 41.288 117.51 41.288 117.391 41.288C117.288 41.288 117.237 41.288 117.237 41.288V41.0322H119.284V42.8994ZM141.621 40.6741C141.945 40.6741 142.329 40.6911 142.772 40.7252C143.216 40.7593 143.659 40.8105 144.103 40.8787C144.563 40.9299 144.972 40.9895 145.33 41.0577C145.688 41.1089 145.936 41.1686 146.072 41.2368L145.867 44.4853H145.612C145.612 43.6157 145.296 42.925 144.665 42.4134C144.051 41.9019 143.25 41.6461 142.261 41.6461C141.272 41.6461 140.479 41.9019 139.882 42.4134C139.302 42.925 139.004 43.5474 138.987 44.2807C138.953 44.707 139.072 45.1248 139.345 45.5341C139.635 45.9263 140.018 46.2929 140.496 46.634L145.433 50.2918C146.132 50.7522 146.643 51.3149 146.967 51.98C147.291 52.628 147.436 53.3613 147.402 54.1798C147.351 55.7486 146.78 56.9935 145.688 57.9143C144.614 58.8352 143.148 59.2956 141.289 59.2956C140.658 59.2956 140.01 59.2359 139.345 59.1166C138.697 59.0142 138.1 58.8522 137.554 58.6306C137.009 58.3918 136.574 58.1104 136.25 57.7864C136.147 57.4454 136.105 57.0361 136.122 56.5586C136.139 56.0641 136.207 55.5611 136.326 55.0495C136.446 54.5209 136.591 54.0775 136.761 53.7194H136.992C136.923 54.5891 137.068 55.382 137.426 56.0982C137.784 56.7974 138.305 57.3516 138.987 57.7609C139.686 58.1531 140.504 58.3407 141.442 58.3236C142.5 58.2895 143.344 57.9911 143.975 57.4283C144.623 56.8656 144.947 56.1409 144.947 55.2541C144.947 54.7425 144.81 54.2821 144.537 53.8728C144.265 53.4465 143.838 53.0628 143.258 52.7218L138.629 49.2175C137.844 48.7059 137.281 48.092 136.94 47.3758C136.616 46.6425 136.48 45.8837 136.531 45.0992C136.582 44.2807 136.812 43.5389 137.222 42.8739C137.631 42.1918 138.202 41.6546 138.936 41.2624C139.686 40.8702 140.581 40.6741 141.621 40.6741ZM146.098 40.9299L146.072 41.467H143.412V40.9299H146.098Z" fill="#0267AC"/>
<path d="M41.9889 32.6708C41.924 32.3683 41.8916 31.7847 41.8916 30.9202C41.8916 30.0558 42.0537 29.1372 42.3779 28.1647H42.6697C42.648 28.4024 42.6372 28.6401 42.6372 28.8779C42.6372 30.1962 43.0371 31.2985 43.8367 32.1846C44.6364 33.0491 45.6954 33.4813 47.0137 33.4813C48.3753 33.4813 49.4883 33.0707 50.3528 32.2494C51.2389 31.4281 51.682 30.4015 51.682 29.1696C51.682 27.9161 51.2605 26.9004 50.4177 26.1223L44.1933 20.3518C43.0263 19.2712 42.4427 17.9637 42.4427 16.4292C42.4427 14.8947 42.9506 13.5872 43.9664 12.5065C45.0038 11.4043 46.3978 10.8532 48.1484 10.8532C48.9696 10.8532 49.899 10.9613 50.9364 11.1774H52.2007V15.1649H51.9089C51.9089 14.1491 51.5523 13.3386 50.8391 12.7335C50.1475 12.1283 49.2506 11.8258 48.1484 11.8258C47.0461 11.8258 46.1168 12.1932 45.3604 12.928C44.6256 13.6628 44.2582 14.5813 44.2582 15.6836C44.2582 16.7858 44.6904 17.7367 45.5549 18.5364L51.9413 24.4365C53.022 25.4307 53.5623 26.7923 53.5623 28.5213C53.5623 30.2503 53.0111 31.6767 51.9089 32.8005C50.8067 33.9027 49.3371 34.4539 47.5 34.4539C46.5491 34.4539 45.5333 34.3026 44.4527 34C43.3937 33.719 42.5724 33.276 41.9889 32.6708ZM79.2574 33.6758H79.5168V34H72.2226V33.6758H72.5144C72.9683 33.6758 73.3033 33.5353 73.5194 33.2544C73.7571 32.9518 73.876 32.6708 73.876 32.4115C73.876 32.1521 73.8328 31.8928 73.7463 31.6335L71.6715 26.1223H62.9185L60.7465 31.6659C60.66 31.9252 60.6168 32.1846 60.6168 32.4439C60.6168 32.6816 60.7249 32.9518 60.941 33.2544C61.1787 33.5353 61.5245 33.6758 61.9784 33.6758H62.2702V34H55.7541V33.6758H56.0458C56.5861 33.6758 57.1156 33.5029 57.6343 33.1571C58.153 32.8113 58.5745 32.3034 58.8986 31.6335L66.2252 14.1923C67.0249 12.4417 67.4247 11.3287 67.4247 10.8532H67.7165L76.4046 31.6335C76.7072 32.3034 77.1178 32.8113 77.6365 33.1571C78.1552 33.5029 78.6955 33.6758 79.2574 33.6758ZM63.3076 25.1498H71.2825L67.3923 14.7434L63.3076 25.1498ZM81.7509 32.6708C81.686 32.3683 81.6536 31.7847 81.6536 30.9202C81.6536 30.0558 81.8157 29.1372 82.1399 28.1647H82.4317C82.4101 28.4024 82.3993 28.6401 82.3993 28.8779C82.3993 30.1962 82.7991 31.2985 83.5987 32.1846C84.3984 33.0491 85.4574 33.4813 86.7757 33.4813C88.1373 33.4813 89.2504 33.0707 90.1149 32.2494C91.001 31.4281 91.444 30.4015 91.444 29.1696C91.444 27.9161 91.0226 26.9004 90.1797 26.1223L83.9553 20.3518C82.7883 19.2712 82.2047 17.9637 82.2047 16.4292C82.2047 14.8947 82.7126 13.5872 83.7284 12.5065C84.7658 11.4043 86.1598 10.8532 87.9104 10.8532C88.7317 10.8532 89.661 10.9613 90.6984 11.1774H91.9627V15.1649H91.6709C91.6709 14.1491 91.3143 13.3386 90.6011 12.7335C89.9095 12.1283 89.0126 11.8258 87.9104 11.8258C86.8082 11.8258 85.8788 12.1932 85.1224 12.928C84.3876 13.6628 84.0202 14.5813 84.0202 15.6836C84.0202 16.7858 84.4524 17.7367 85.3169 18.5364L91.7034 24.4365C92.784 25.4307 93.3243 26.7923 93.3243 28.5213C93.3243 30.2503 92.7732 31.6767 91.6709 32.8005C90.5687 33.9027 89.0991 34.4539 87.262 34.4539C86.3111 34.4539 85.2953 34.3026 84.2147 34C83.1557 33.719 82.3344 33.276 81.7509 32.6708ZM113.541 33.6758C114.103 33.6758 114.578 33.4813 114.967 33.0923C115.378 32.7033 115.594 32.2278 115.616 31.6659V23.2695H102.356V31.6335C102.356 32.1954 102.562 32.6816 102.972 33.0923C103.383 33.4813 103.869 33.6758 104.431 33.6758H104.853V34H97.7529V33.6758H98.1744C98.7363 33.6758 99.2118 33.4813 99.6008 33.0923C100.011 32.6816 100.228 32.1954 100.249 31.6335V13.6412C100.228 13.0793 100.011 12.6038 99.6008 12.2148C99.2118 11.8258 98.7363 11.6312 98.1744 11.6312H97.7529V11.3071H104.853V11.6312H104.431C103.869 11.6312 103.383 11.8258 102.972 12.2148C102.583 12.6038 102.378 13.0793 102.356 13.6412V22.2969H115.616V13.6412C115.594 12.8632 115.248 12.2796 114.578 11.8906C114.254 11.7177 113.908 11.6312 113.541 11.6312H113.119V11.3071H120.219V11.6312H119.798C119.236 11.6312 118.749 11.8366 118.339 12.2472C117.95 12.6362 117.744 13.1117 117.723 13.6736V31.6335C117.744 32.1954 117.95 32.6816 118.339 33.0923C118.749 33.4813 119.236 33.6758 119.798 33.6758H120.219V34H113.119V33.6758H113.541ZM146.04 33.6758H146.299V34H139.005V33.6758H139.296C139.75 33.6758 140.085 33.5353 140.301 33.2544C140.539 32.9518 140.658 32.6708 140.658 32.4115C140.658 32.1521 140.615 31.8928 140.528 31.6335L138.454 26.1223H129.701L127.529 31.6659C127.442 31.9252 127.399 32.1846 127.399 32.4439C127.399 32.6816 127.507 32.9518 127.723 33.2544C127.961 33.5353 128.307 33.6758 128.76 33.6758H129.052V34H122.536V33.6758H122.828C123.368 33.6758 123.898 33.5029 124.416 33.1571C124.935 32.8113 125.357 32.3034 125.681 31.6335L133.007 14.1923C133.807 12.4417 134.207 11.3287 134.207 10.8532H134.499L143.187 31.6335C143.489 32.3034 143.9 32.8113 144.419 33.1571C144.937 33.5029 145.478 33.6758 146.04 33.6758ZM130.09 25.1498H138.065L134.174 14.7434L130.09 25.1498Z" fill="#0267AC"/>
</svg>
