<svg width="150" height="150" viewBox="0 0 150 150" fill="none" xmlns="http://www.w3.org/2000/svg">
<g opacity="0.8">
<path d="M60.3572 61.6514C63.4352 58.5734 63.4352 53.5349 60.3572 50.4569C57.2792 47.3789 52.2406 47.3789 49.1611 50.4569L48.3602 51.2579L47.5592 50.4569C44.4812 47.3789 39.4427 47.3789 36.3647 50.4569C33.2867 53.5349 33.2867 58.5734 36.3647 61.6514L48.3602 73.6469L60.3572 61.6514Z" fill="white"/>
<path d="M102.44 50.4569L101.639 51.2579L100.838 50.4569C97.7595 47.3789 92.721 47.3789 89.6415 50.4569C86.5635 53.5349 86.5635 58.5734 89.6415 61.6514L101.637 73.6469L113.633 61.6514C116.711 58.5734 116.711 53.5349 113.633 50.4569C110.556 47.3789 105.518 47.3789 102.44 50.4569Z" fill="white"/>
<path d="M75 7.5C37.7805 7.5 7.5 37.7805 7.5 75C7.5 112.219 37.7805 142.5 75 142.5C112.219 142.5 142.5 112.219 142.5 75C142.5 37.7805 112.219 7.5 75 7.5ZM75 135C41.916 135 15 108.084 15 75C15 41.916 41.916 15 75 15C108.084 15 135 41.916 135 75C135 108.084 108.084 135 75 135Z" fill="white"/>
<path d="M99.1441 88.5145C85.6066 100.582 64.3951 100.582 50.8576 88.5145C49.3111 87.1345 46.9411 87.271 45.5641 88.819C44.1856 90.3655 44.3221 92.7355 45.8686 94.114C54.0346 101.393 64.5181 105.035 75.0001 105.035C85.4821 105.035 95.9656 101.395 104.133 94.114C105.68 92.7355 105.816 90.3655 104.438 88.819C103.059 87.2725 100.691 87.1345 99.1441 88.5145Z" fill="white"/>
</g>
</svg>
