<svg width="50" height="50" viewBox="0 0 50 50" fill="none" xmlns="http://www.w3.org/2000/svg">
<path d="M49.8001 20.4744C49.7626 20.1314 49.5046 19.8536 49.1654 19.791C47.0165 19.394 45.0662 17.8777 42.8079 16.1221C40.8067 14.5662 38.5384 12.8026 35.8151 11.6895C32.0458 10.1491 29.9347 11.7544 28.2385 13.0443C27.1652 13.8603 26.2384 14.5651 25 14.5651C23.7617 14.5651 22.8348 13.8603 21.7615 13.0443C20.0652 11.7545 17.9541 10.1494 14.1849 11.6895C11.4617 12.8026 9.1934 14.5662 7.19211 16.1221C4.93386 17.8777 2.98355 19.394 0.834682 19.791C0.495412 19.8536 0.237443 20.1314 0.199964 20.4744C0.162485 20.8173 0.354364 21.1442 0.672033 21.2787C1.51956 21.6375 2.41063 21.953 3.32167 22.2171C4.49918 22.5567 5.74577 22.8203 7.02589 23.0006C11.3973 23.6216 15.6152 23.2539 19.3365 22.9299C21.5191 22.7396 23.4041 22.5757 24.966 22.6434C24.9887 22.6443 25.0113 22.6443 25.034 22.6434C26.596 22.5756 28.4809 22.7396 30.6635 22.9299C32.9119 23.1258 35.3408 23.3374 37.8759 23.3374C39.5366 23.3374 41.2433 23.2465 42.9733 23.0007C44.2543 22.8203 45.5009 22.5567 46.6794 22.2168C47.5894 21.953 48.4805 21.6375 49.328 21.2787C49.6457 21.1442 49.8376 20.8173 49.8001 20.4744Z" fill="#0267AC"/>
<path d="M9.32031 8.05466C9.32031 7.62322 8.97055 7.27341 8.53906 7.27341C6.88486 7.27341 5.53908 5.92759 5.53908 4.27344C5.53908 3.842 5.18932 3.49219 4.75783 3.49219C4.32634 3.49219 3.97658 3.842 3.97658 4.27344C3.97658 5.92759 2.63076 7.27341 0.976562 7.27341C0.545073 7.27341 0.195312 7.62322 0.195312 8.05466C0.195312 8.4861 0.545073 8.83591 0.976562 8.83591C2.63076 8.83591 3.97658 10.1817 3.97658 11.8359C3.97658 12.2673 4.32634 12.6171 4.75783 12.6171C5.18932 12.6171 5.53908 12.2673 5.53908 11.8359C5.53908 10.1817 6.88486 8.83591 8.53906 8.83591C8.97055 8.83591 9.32031 8.4861 9.32031 8.05466Z" fill="#0267AC"/>
<path d="M49.0234 40.4531C47.3692 40.4531 46.0234 39.1073 46.0234 37.4531C46.0234 37.0217 45.6737 36.6719 45.2422 36.6719C44.8107 36.6719 44.4609 37.0217 44.4609 37.4531C44.4609 39.1073 43.1151 40.4531 41.4609 40.4531C41.0294 40.4531 40.6797 40.8029 40.6797 41.2343C40.6797 41.6658 41.0294 42.0156 41.4609 42.0156C43.1151 42.0156 44.4609 43.3614 44.4609 45.0157C44.4609 45.4471 44.8107 45.7969 45.2422 45.7969C45.6737 45.7969 46.0234 45.4471 46.0234 45.0157C46.0234 43.3614 47.3692 42.0156 49.0234 42.0156C49.4549 42.0156 49.8047 41.6658 49.8047 41.2343C49.8047 40.8029 49.4549 40.4531 49.0234 40.4531Z" fill="#0267AC"/>
<path d="M17.1954 37.8945C15.5412 37.8945 14.1953 36.5487 14.1953 34.8945C14.1953 34.4631 13.8456 34.1133 13.4141 34.1133C12.9826 34.1133 12.6328 34.4631 12.6328 34.8945C12.6328 36.5487 11.287 37.8945 9.63281 37.8945C9.20132 37.8945 8.85156 38.2443 8.85156 38.6758C8.85156 39.1072 9.20132 39.457 9.63281 39.457C11.287 39.457 12.6328 40.8028 12.6328 42.457C12.6328 42.8884 12.9826 43.2382 13.4141 43.2382C13.8456 43.2382 14.1953 42.8884 14.1953 42.457C14.1953 40.8028 15.5412 39.457 17.1954 39.457C17.6268 39.457 17.9766 39.1072 17.9766 38.6758C17.9766 38.2443 17.6268 37.8945 17.1954 37.8945Z" fill="#0267AC"/>
<path d="M22.3633 28.0268C23.2026 28.0561 24.08 28.0724 24.9997 28.0724C25.9193 28.0724 26.7967 28.0561 27.6361 28.0268V24.2576C26.9782 24.2166 26.3642 24.1914 25.7941 24.1914C25.5502 24.1914 25.3172 24.1962 25.0988 24.2056C25.0657 24.207 25.0327 24.2077 24.9997 24.2077C24.9667 24.2077 24.9337 24.207 24.898 24.2055C24.6823 24.1962 24.4494 24.1914 24.2058 24.1914C23.6354 24.1914 23.0214 24.2166 22.3633 24.2576V28.0268Z" fill="#0267AC"/>
<path d="M29.1992 27.9558C30.7525 27.8655 32.1551 27.7278 33.4183 27.5592V24.7246C32.4147 24.6531 31.4459 24.5689 30.5281 24.489C30.0695 24.449 29.6266 24.4104 29.1992 24.375V27.9558Z" fill="#0267AC"/>
<path d="M34.9805 27.3228C36.3234 27.097 37.4784 26.8385 38.4622 26.5737V24.8967C38.2684 24.8992 38.0732 24.9007 37.8759 24.9007C36.8952 24.9007 35.9263 24.8695 34.9805 24.8203V27.3228Z" fill="#0267AC"/>
<path d="M34.9805 28.9107V29.5131C35.9169 29.2031 36.7806 28.8345 37.5795 28.4062C36.786 28.5882 35.9206 28.7583 34.9805 28.9107Z" fill="#0267AC"/>
<path d="M29.1992 30.6377C30.7344 30.4979 32.1365 30.2734 33.4183 29.9589V29.1367C32.1377 29.3019 30.735 29.4339 29.1992 29.5202V30.6377Z" fill="#0267AC"/>
<path d="M40.0234 26.1074C40.1463 26.0663 40.2666 26.0254 40.3816 25.9849C40.6285 25.898 40.8613 25.811 41.0826 25.7246C41.3856 25.4004 41.6757 25.061 41.9513 24.7031C41.3233 24.7684 40.6821 24.8173 40.0234 24.8505V26.1074Z" fill="#0267AC"/>
<path d="M9.61656 25.981C9.73155 26.0215 9.85192 26.0624 9.97476 26.1034V24.8465C9.31598 24.8133 8.67476 24.7645 8.04688 24.6992C8.32251 25.0571 8.61265 25.3965 8.91558 25.7207C9.13685 25.8071 9.36965 25.8941 9.61656 25.981Z" fill="#0267AC"/>
<path d="M16.582 27.5592C17.8452 27.7278 19.2479 27.8655 20.8011 27.9558V24.375C20.3725 24.4105 19.9281 24.4492 19.4676 24.4894C18.5513 24.5692 17.5841 24.6531 16.582 24.7245V27.5592Z" fill="#0267AC"/>
<path d="M27.6361 29.5938C26.7936 29.6222 25.9163 29.6379 24.9997 29.6379C24.083 29.6379 23.2057 29.6222 22.3633 29.5938V30.7523C23.2053 30.7961 24.082 30.8191 24.9997 30.8191C25.9174 30.8191 26.794 30.7961 27.6361 30.7523V29.5938Z" fill="#0267AC"/>
<path d="M11.5391 26.5737C12.5229 26.8386 13.6779 27.0971 15.0208 27.3229V24.8203C14.0749 24.8695 13.1059 24.9008 12.1251 24.9008C11.9279 24.9008 11.7328 24.8993 11.5391 24.8968V26.5737Z" fill="#0267AC"/>
<path d="M20.8011 29.5202C19.2653 29.4339 17.8626 29.3019 16.582 29.1367V29.9589C17.8638 30.2734 19.2659 30.4979 20.8011 30.6377V29.5202Z" fill="#0267AC"/>
<path d="M15.0209 29.5131V28.9107C14.0808 28.7583 13.2155 28.5882 12.4219 28.4062C13.2208 28.8345 14.0845 29.2031 15.0209 29.5131Z" fill="#0267AC"/>
<path d="M47.112 23.719C46.1324 24.0015 45.1085 24.2335 44.0597 24.4126C40.4851 30.0241 34.6899 32.3784 24.9996 32.3784C15.3094 32.3784 9.51414 30.0241 5.93952 24.4126C4.89037 24.2334 3.86678 24.0015 2.88629 23.7187C2.03922 23.4732 1.20931 23.1832 0.410156 22.8594C0.823163 25.4397 2.02691 29.7663 5.53185 33.6809C6.48181 34.7418 7.58994 35.6716 8.84957 36.4674C9.0938 36.3809 9.35629 36.3333 9.62979 36.3333C10.4224 36.3333 11.0673 35.6885 11.0673 34.8958C11.0673 33.6035 12.1187 32.5521 13.4111 32.5521C14.7034 32.5521 15.7548 33.6035 15.7548 34.8958C15.7548 35.6885 16.3997 36.3333 17.1923 36.3333C18.4847 36.3333 19.5361 37.3847 19.5361 38.6771C19.5361 39.0604 19.443 39.4222 19.2791 39.7419C21.3094 39.9562 23.2541 39.9967 24.9996 39.9967C27.8178 39.9967 31.1543 39.8923 34.5333 39.1189C38.7606 38.1512 42.103 36.3216 44.4674 33.6809C47.9724 29.7663 49.1761 25.4397 49.5891 22.8594C48.79 23.1831 47.9603 23.4731 47.112 23.719Z" fill="#0267AC"/>
</svg>
