<svg width="150" height="150" viewBox="0 0 150 150" fill="none" xmlns="http://www.w3.org/2000/svg">
<g opacity="0.8" clip-path="url(#clip0_2508_108)">
<path d="M137.903 19.3548H130.645V9.67742H108.143C104.504 3.87581 98.071 0 90.7331 0C86.9323 0 83.1387 1.09839 79.7661 3.17419C77.9976 4.2629 76.35 4.83871 75 4.83871C73.65 4.83871 72.0024 4.2629 70.2339 3.17419C66.8613 1.09839 63.0677 0 59.2669 0C51.929 0 45.4936 3.87581 41.8573 9.67742H19.3548V19.3548H12.0968C5.42661 19.3548 0 24.7815 0 31.4516V123.387C0 130.057 5.42661 135.484 12.0968 135.484H41.129V145.161H31.4516V150H118.548V145.161H108.871V135.484H137.903C144.573 135.484 150 130.057 150 123.387V31.4516C150 24.7815 144.573 19.3548 137.903 19.3548ZM43.5484 20.5573C43.5484 11.8911 50.6008 4.83871 59.2669 4.83871C62.1702 4.83871 65.0855 5.6879 67.696 7.29677C72.8323 10.4589 77.1653 10.4589 82.3016 7.29677C84.9145 5.6879 87.8298 4.83871 90.7331 4.83871C99.3992 4.83871 106.452 11.8911 106.452 20.5573V23.5306C106.452 31.1129 103.498 38.2427 98.1363 43.6065C94.2581 47.4823 91.379 52.304 89.804 57.554L85.6694 71.3395C85.4468 72.0798 84.7766 72.5806 84 72.5806C83.0395 72.5806 82.2581 71.7992 82.2581 70.8387V45.9677C82.2581 41.9661 79.0016 38.7097 75 38.7097C70.9984 38.7097 67.7419 41.9661 67.7419 45.9677V70.8387C67.7419 71.7992 66.9605 72.5806 66 72.5806C65.2234 72.5806 64.5508 72.0798 64.3306 71.3395L60.196 57.5516C58.6234 52.304 55.7395 47.4798 51.8637 43.604C46.5024 38.2403 43.5484 31.1105 43.5484 23.5282V20.5573ZM104.032 145.161H45.9677V135.484H104.032V145.161ZM145.161 123.387C145.161 127.389 141.905 130.645 137.903 130.645H12.0968C8.09516 130.645 4.83871 127.389 4.83871 123.387V116.129H145.161V123.387ZM145.161 111.29H4.83871V31.4516C4.83871 27.45 8.09516 24.1935 12.0968 24.1935H19.3548V106.452H130.645V33.871H125.806V101.613H24.1935V14.5161H39.6194C39.029 16.4274 38.7097 18.4548 38.7097 20.5573V23.5306C38.7097 32.4048 42.1669 40.7516 48.4403 47.0274C51.7524 50.3395 54.2153 54.4621 55.5581 58.9427L59.6927 72.7306C60.5371 75.5347 63.0702 77.4194 66 77.4194C69.629 77.4194 72.5806 74.4677 72.5806 70.8387V45.9677C72.5806 44.6347 73.6645 43.5484 75 43.5484C76.3355 43.5484 77.4194 44.6347 77.4194 45.9677V70.8387C77.4194 74.4677 80.371 77.4194 84 77.4194C86.9298 77.4194 89.4629 75.5347 90.3048 72.7282L94.4395 58.9403C95.7847 54.4548 98.2452 50.3347 101.557 47.025C107.833 40.7492 111.29 32.4048 111.29 23.5282V20.5573C111.29 18.4548 110.971 16.4274 110.381 14.5161H125.806V29.0323H130.645V24.1935H137.903C141.905 24.1935 145.161 27.45 145.161 31.4516V111.29Z" fill="white"/>
<path d="M94.3547 120.969H55.645V125.807H94.3547V120.969Z" fill="white"/>
<path d="M85.6788 10.875C78.4353 15.704 71.5619 15.7016 64.3232 10.8774L61.6401 14.9032C66.07 17.8548 70.5627 19.3524 74.9998 19.3524C79.4369 19.3524 83.9321 17.8548 88.3619 14.9008L85.6788 10.875Z" fill="white"/>
<path d="M62.903 82.2578H38.7095V87.0965H62.903V82.2578Z" fill="white"/>
<path d="M62.903 91.9375H38.7095V96.7762H62.903V91.9375Z" fill="white"/>
<path d="M106.452 82.2578V96.7739H120.968V82.2578H106.452ZM116.129 91.9352H111.29V87.0965H116.129V91.9352Z" fill="white"/>
<path d="M87.0967 82.2578V96.7739H101.613V82.2578H87.0967ZM96.7741 91.9352H91.9354V87.0965H96.7741V91.9352Z" fill="white"/>
<path d="M67.7422 82.2578V96.7739H82.2583V82.2578H67.7422ZM77.4196 91.9352H72.5809V87.0965H77.4196V91.9352Z" fill="white"/>
<path d="M33.8709 82.2578H29.0322V87.0965H33.8709V82.2578Z" fill="white"/>
<path d="M33.8709 91.9375H29.0322V96.7762H33.8709V91.9375Z" fill="white"/>
</g>
<defs>
<clipPath id="clip0_2508_108">
<rect width="150" height="150" fill="white"/>
</clipPath>
</defs>
</svg>
