<svg width="51" height="52" viewBox="0 0 51 52" fill="none" xmlns="http://www.w3.org/2000/svg">
<ellipse cx="25.1618" cy="25.8481" rx="25.1618" ry="25.8481" fill="#4DC247"/>
<path d="M36.452 14.6143C33.4778 11.5527 29.3664 9.89062 25.1675 9.89062C16.245 9.89062 9.07191 17.1511 9.15931 25.9862C9.15931 28.7855 9.9466 31.4974 11.2588 33.9466L8.98438 42.2569L17.4696 40.07C19.8315 41.3822 22.4557 41.9946 25.0801 41.9946C33.9152 41.9946 41.0883 34.7339 41.0883 25.899C41.0883 21.6125 39.4262 17.5886 36.4521 14.6143H36.452ZM25.1675 39.2828C22.8057 39.2828 20.4438 38.6706 18.4318 37.4459L17.907 37.1834L12.8334 38.4955L14.1455 33.5095L13.7956 32.9845C9.9466 26.7738 11.7836 18.5508 18.0819 14.7018C24.3802 10.8529 32.5156 12.6899 36.3646 18.9882C40.2135 25.2865 38.3765 33.4218 32.0783 37.2708C30.0662 38.5829 27.6169 39.2827 25.1675 39.2827V39.2828ZM32.8654 29.573L31.9032 29.1356C31.9032 29.1356 30.5037 28.5233 29.6289 28.0859C29.5414 28.0859 29.454 27.9983 29.3664 27.9983C29.104 27.9983 28.929 28.0859 28.7541 28.1734C28.7541 28.1734 28.6667 28.2608 27.442 29.6604C27.3544 29.8354 27.1795 29.9229 27.0046 29.9229H26.917C26.8296 29.9229 26.6547 29.8354 26.5672 29.748L26.1297 29.573C25.1675 29.1356 24.2928 28.6107 23.5929 27.9109C23.418 27.736 23.1555 27.5611 22.9806 27.3861C22.3682 26.7738 21.7559 26.0739 21.3186 25.2866L21.2311 25.1117C21.1437 25.0241 21.1437 24.9367 21.0561 24.7618C21.0561 24.5869 21.0561 24.4119 21.1437 24.3244C21.1437 24.3244 21.4936 23.887 21.7559 23.6246C21.931 23.4496 22.0184 23.1872 22.1933 23.0123C22.3682 22.7498 22.4558 22.3999 22.3682 22.1375C22.2808 21.7001 21.2311 19.3382 20.9687 18.8134C20.7937 18.5509 20.6189 18.4635 20.3564 18.376H19.3942C19.2191 18.376 19.0443 18.4635 18.8692 18.4635L18.7817 18.5509C18.6068 18.6384 18.4318 18.8134 18.2569 18.9008C18.0819 19.0758 17.9944 19.2507 17.8195 19.4257C17.2071 20.213 16.8572 21.1752 16.8572 22.1375C16.8572 22.8372 17.0322 23.5371 17.2947 24.1494L17.3822 24.4119C18.1695 26.0739 19.2191 27.5611 20.6189 28.8732L20.9687 29.223C21.2311 29.4855 21.4936 29.6604 21.6685 29.9228C23.5055 31.4975 25.6049 32.6347 27.9668 33.247C28.2293 33.3344 28.5791 33.3344 28.8416 33.4219H29.7163C30.1537 33.4219 30.6785 33.247 31.0285 33.0721C31.2909 32.8971 31.4658 32.8971 31.6408 32.7222L31.8158 32.5471C31.9908 32.3722 32.1657 32.2848 32.3406 32.1098C32.5156 31.9349 32.6905 31.76 32.778 31.5849C32.953 31.235 33.0404 30.7976 33.1279 30.3603V29.748C33.1279 29.748 33.0404 29.6604 32.8654 29.573Z" fill="white"/>
</svg>
